<?xml version="1.0" encoding="utf-8"?>
<!-- Generator: Adobe Illustrator 16.0.3, SVG Export Plug-In . SVG Version: 6.00 Build 0)  -->
<!DOCTYPE svg PUBLIC "-//W3C//DTD SVG 1.1//EN" "http://www.w3.org/Graphics/SVG/1.1/DTD/svg11.dtd">
<svg version="1.1" id="Layer_1" xmlns="http://www.w3.org/2000/svg" xmlns:xlink="http://www.w3.org/1999/xlink" x="0px" y="0px"
	 width="60px" height="32px" viewBox="0 0 60 32" enable-background="new 0 0 60 32" xml:space="preserve">
<path fill="#FFFFFF" d="M60,21.92l-2.08-0.91c-2.162-0.947-4.238-1.34-5.83-1.354l-24.188-0.236l-1.105-0.008l-2.252-1.781
	c-3.756-2.631-0.672-1.756-7.455-6.918c-0.4-0.303-0.55-0.414-0.553-0.553c-0.004-0.141,0.132-0.215,0.291-0.279
	c0.021-0.008,0.044-0.016,0.066-0.025L16.9,9.852c1.33-0.506,2.256-1.18,2.674-2.65c0.83-2.92-1.48-6.027-4.151-6.883
	c-2.697-0.865-6.229,0.008-7.06,2.93c-0.238,0.84-0.267,1.818-0.032,2.627l-0.007-0.01c0,0,0.144,1.791,0.29,1.914l0.374,0.313
	c0.049,0.043,0.341,0.053,0.429,0.08c0.288,0.092,0.646,0.512,0.995,0.725c1.684,1.018,3.426,0.977,4.925,2.203
	c4.696,3.84,5.234,6.686,5.954,8.875c-1.082,0.752-2.25,1.752-4.094,2.373c-1.156,0.39-2.248,0.59-3.45,0.726
	c-0.847,0.096-1.791,0.151-2.851,0.157c-1.955,0.009-3.271-1.106-5.231-1.371c-0.407-0.055-0.931,0.037-1.214-0.071
	c-0.086-0.033-0.309-0.181-0.375-0.183L3.582,21.59c-0.193-0.008-1.5,1.307-1.5,1.307l0.012-0.004
	c-0.707,0.479-1.363,1.248-1.726,2.045c-1.262,2.771,0.917,5.685,3.573,6.66c2.598,0.955,6.36,0.25,7.621-2.521
	c0.635-1.392,0.421-2.688-0.275-3.906h0.001l-0.003-0.006c-0.012-0.021-0.023-0.041-0.035-0.063
	c-0.082-0.146-0.137-0.289-0.043-0.395c0.094-0.105,0.279-0.098,0.787-0.082c0.939,0.025,1.74,0.035,2.429,0.029
	c0.898-0.004,1.75-0.035,2.646-0.121c3.051-0.297,2.965-0.938,6.332-0.74l1.855,0.023l0.827,0.603l3.838,3.081h5.414
	c-1.979-2-3.897-3.212-5.624-4.667C39.473,22.815,54.811,22.594,60,21.92z M12.398,8.484c-1.85-0.994-3.574-3.781-2.458-5.82
	c1.118-2.041,4.165-1.717,6.015-0.723c1.849,0.995,3.531,3.688,2.414,5.73C17.252,9.713,14.248,9.476,12.398,8.484z M10.977,27.912
	c-0.538,2.254-3.62,3.191-5.681,2.742c-2.06-0.447-4.568-2.176-4.029-4.428c0.538-2.257,3.713-3.232,5.772-2.783
	C9.099,23.895,11.515,25.658,10.977,27.912z M25.39,21.23c0.236-0.397,0.721-0.571,1.154-0.438l-0.97,1.64
	C25.241,22.129,25.152,21.633,25.39,21.23z M27.108,22.205c-0.237,0.4-0.722,0.574-1.155,0.439l0.971-1.64
	C27.257,21.307,27.345,21.805,27.108,22.205z"/>
</svg>
