<?xml version="1.0" encoding="utf-8"?>
<!-- Generator: Adobe Illustrator 16.0.3, SVG Export Plug-In . SVG Version: 6.00 Build 0)  -->
<!DOCTYPE svg PUBLIC "-//W3C//DTD SVG 1.1//EN" "http://www.w3.org/Graphics/SVG/1.1/DTD/svg11.dtd">
<svg version="1.1" xmlns="http://www.w3.org/2000/svg" xmlns:xlink="http://www.w3.org/1999/xlink" x="0px" y="0px" width="222px"
	 height="100px" viewBox="0 0 222 100" enable-background="new 0 0 222 100" xml:space="preserve">
<g id="guides">
</g>
<g id="Layer_2">
	<g>
		<g>
			<path fill="#FF6633" d="M41.438,29c-11.599,0-21,9.402-21,21s9.401,21,21,21s21-9.402,21-21S53.036,29,41.438,29z M30.353,38.326
				c0.645-0.324,1.436-0.062,1.759,0.587l2.625,5.25c0.323,0.648,0.061,1.436-0.588,1.76c-0.187,0.095-0.387,0.141-0.585,0.141
				c-0.482,0-0.944-0.268-1.174-0.728l-2.626-5.25C29.439,39.438,29.703,38.65,30.353,38.326z M45.236,55.837l-2.624,5.25
				c-0.224,0.445-0.678,0.726-1.175,0.726c-0.496,0-0.95-0.28-1.174-0.726l-2.624-5.25c-0.324-0.648-0.062-1.438,0.587-1.76
				c0.648-0.326,1.436-0.062,1.759,0.587l1.452,2.9l1.452-2.9c0.324-0.648,1.111-0.913,1.76-0.587
				C45.298,54.399,45.561,55.188,45.236,55.837z M52.523,61.674c-0.187,0.094-0.388,0.139-0.585,0.139
				c-0.482,0-0.944-0.265-1.175-0.726l-4.888-9.775h-8.877l-4.888,9.775c-0.323,0.648-1.112,0.911-1.759,0.587
				c-0.649-0.324-0.913-1.112-0.589-1.761l10.5-21c0.224-0.445,0.678-0.726,1.174-0.726c0.497,0,0.951,0.28,1.175,0.726l10.499,21
				C53.437,60.562,53.172,61.35,52.523,61.674z M53.111,40.086l-2.625,5.25c-0.229,0.46-0.692,0.728-1.175,0.728
				c-0.197,0-0.397-0.046-0.585-0.141c-0.648-0.324-0.912-1.111-0.588-1.76l2.625-5.25c0.324-0.648,1.111-0.911,1.76-0.587
				S53.437,39.438,53.111,40.086z"/>
			<polygon fill="#FF6633" points="38.312,48.688 44.564,48.688 41.438,42.436 			"/>
		</g>
		<g>
			<path fill="#FF6633" d="M88.453,61.813h-4.487l-2.025-5.705h-7.864l-2.024,5.705h-4.489l8.403-23.625h4.085L88.453,61.813z
				 M80.456,51.924l-2.465-6.919l-2.429,6.919H80.456z"/>
			<path fill="#FF6633" d="M115.052,61.813h-4.488l-2.025-15.829l-6.04,10.868l-6.076-10.834l-2.024,15.795h-4.489l3.273-23.625
				h3.544l5.772,10.766l5.736-10.766h3.544L115.052,61.813z"/>
			<path fill="#FF6633" d="M126.781,54.051h-4.219v7.762h-4.322V38.188h6.683c1.71,0,3.202,0.096,4.473,0.286
				c1.271,0.191,2.323,0.563,3.155,1.114c0.834,0.551,1.456,1.316,1.874,2.295c0.415,0.979,0.625,2.245,0.625,3.797
				c0,1.644-0.26,2.999-0.778,4.066c-0.517,1.07-1.18,1.926-1.989,2.565c-0.812,0.643-1.705,1.092-2.684,1.35
				C128.62,53.92,127.68,54.051,126.781,54.051z M126.105,41.799h-3.543V50h3.644c1.598,0,2.738-0.321,3.425-0.961
				c0.688-0.643,1.031-1.751,1.031-3.325c0-0.697-0.074-1.295-0.22-1.789c-0.147-0.494-0.396-0.9-0.743-1.216
				c-0.348-0.314-0.816-0.545-1.4-0.69C127.714,41.872,126.982,41.799,126.105,41.799z"/>
			<path fill="#FF6633" d="M157.236,38.188l-8.303,23.625h-5.266l-8.505-23.625h4.488l6.615,17.92l6.516-17.92H157.236z"/>
			<path fill="#FF6633" d="M163.51,61.813h-4.319V38.188h4.319V61.813z"/>
			<path fill="#FF6633" d="M183.332,42.372h-6.684v19.44h-4.32v-19.44h-6.682v-4.185h17.686V42.372z"/>
			<path fill="#FF6633" d="M201.563,61.813h-4.49l-2.023-5.705h-7.864l-2.024,5.705h-4.489l8.404-23.625h4.083L201.563,61.813z
				 M193.564,51.924l-2.465-6.919l-2.431,6.919H193.564z"/>
		</g>
	</g>
</g>
</svg>
