<?xml version="1.0" encoding="utf-8"?>
<!-- Generator: Adobe Illustrator 16.0.3, SVG Export Plug-In . SVG Version: 6.00 Build 0)  -->
<!DOCTYPE svg PUBLIC "-//W3C//DTD SVG 1.1//EN" "http://www.w3.org/Graphics/SVG/1.1/DTD/svg11.dtd">
<svg version="1.1" xmlns="http://www.w3.org/2000/svg" xmlns:xlink="http://www.w3.org/1999/xlink" x="0px" y="0px" width="172px"
	 height="100px" viewBox="0 0 172 100" enable-background="new 0 0 172 100" xml:space="preserve">
<g id="guides">
</g>
<g id="Layer_2">
	<g>
		<g>
			<path fill="#A00000" d="M57.135,35.219v1.945c1.494-1.752,3.256-2.467,5.794-2.467c5.661,0,8.402,2.859,8.402,8.924v13.939
				c0,2.141-0.203,3.641-0.789,5.01c-0.974,2.666-3.577,4.102-7.287,4.102c-2.477,0-4.106-0.523-5.732-1.955v12.504h-6.385V35.219
				H57.135z M61.171,61.531c2.41,0,3.644-1.305,3.644-3.781V43.418c0-2.533-1.172-3.768-3.644-3.768
				c-2.477,0-3.648,1.234-3.648,3.768V57.75C57.522,60.227,58.694,61.531,61.171,61.531z"/>
		</g>
		<g>
			<path fill="#A00000" d="M80.769,35.219v1.945c1.493-1.752,3.256-2.467,5.794-2.467c5.661,0,8.402,2.859,8.402,8.924v13.939
				c0,2.141-0.203,3.641-0.789,5.01c-0.974,2.666-3.577,4.102-7.287,4.102c-2.477,0-4.098-0.523-5.728-1.955v12.504h-6.38V35.219
				H80.769z M84.805,61.531c2.41,0,3.648-1.305,3.648-3.781V43.418c0-2.533-1.177-3.768-3.648-3.768
				c-2.477,0-3.644,1.234-3.644,3.768V57.75C81.161,60.227,82.328,61.531,84.805,61.531z"/>
		</g>
		<g>
			<g>
				<rect x="98.41" y="35.219" fill="#A00000" width="6.512" height="31"/>
			</g>
		</g>
		<g>
			<path fill="#A00000" d="M108.698,45.566v-2.277c0-5.732,3.256-8.592,9.9-8.592c6.64,0,9.636,2.672,9.636,8.592v20.32
				c0,0.912,0.062,1.627,0.26,2.609h-6.252l-0.062-1.957c-1.177,1.693-2.996,2.477-5.992,2.477c-5.274,0-8.011-2.41-8.011-7.037
				v-3.713c0-3.898,1.433-5.789,5.274-7.027l8.336-2.676v-2.867c0-2.406-1.11-3.512-3.389-3.512c-2.41,0-3.582,1.105-3.582,3.449
				v2.211H108.698z M117.096,52.797c-1.824,0.592-2.41,1.504-2.41,3.648v2.41c0,2.213,1.105,3.322,3.389,3.322
				c2.537,0,3.714-1.242,3.714-3.969v-6.914L117.096,52.797z"/>
		</g>
		<g>
			<path fill="#A00000" d="M132.138,35.219h6.12v2.078c1.758-1.885,3.587-2.67,6.054-2.67c2.149,0,4.3,0.723,5.609,1.891
				c0.581,0.52,1.101,1.242,1.427,2.018C151.934,39.84,152,40.559,152,43.1v23.119h-6.446V43.418c0-2.533-1.172-3.768-3.449-3.768
				c-2.283,0-3.45,1.234-3.45,3.768v22.801h-6.517V35.219z"/>
		</g>
		<g>
			<path fill="#A00000" d="M47.334,66.219l-0.02-43.439H35.373L20,66.219h6.819l3.143-9.697c0.86-1.891,1.696-1.998,3.261-2.547
				l7.968-2.557v14.764h0.491v0.08L47.334,66.219z M32.485,48.734l6.182-19.088h2.523v16.289L32.485,48.734z"/>
		</g>
		<g>
			<polygon fill="#00446B" points="106.217,27.932 101.822,23.535 101.468,23.535 97.087,27.916 97.087,28.295 101.473,32.676 
				101.813,32.676 106.217,28.275 			"/>
		</g>
	</g>
</g>
</svg>
