<?xml version="1.0" encoding="utf-8"?>
<!-- Generator: Adobe Illustrator 16.0.3, SVG Export Plug-In . SVG Version: 6.00 Build 0)  -->
<!DOCTYPE svg PUBLIC "-//W3C//DTD SVG 1.1//EN" "http://www.w3.org/Graphics/SVG/1.1/DTD/svg11.dtd">
<svg version="1.1" xmlns="http://www.w3.org/2000/svg" xmlns:xlink="http://www.w3.org/1999/xlink" x="0px" y="0px" width="154px"
	 height="100px" viewBox="0 0 154 100" enable-background="new 0 0 154 100" xml:space="preserve">
<g id="guides">
</g>
<g id="Layer_2">
	<g>
		<g>
			<path fill-rule="evenodd" clip-rule="evenodd" fill="#4BBABD" d="M128.252,77c-1.742-0.43-2.738-1.811-3.847-3.042
				c-1.467-1.634-2.945-3.271-4.415-4.899c-2.719-3.013-5.437-6.021-8.159-9.03c-1.716-1.899-3.442-3.794-5.159-5.688
				c-2.393-2.649-4.784-5.293-7.176-7.931c-0.563-0.617-1.134-1.224-1.703-1.832c-0.172-0.186-0.369-0.281-0.621-0.281
				c-0.256,0-0.513,0-0.769,0c-13.101,0-26.201,0-39.297-0.009c-0.69,0-1.163,0.174-1.643,0.729c-2.14,2.433-4.354,4.806-6.53,7.212
				c-3.167,3.502-6.324,7.005-9.489,10.506c-2.265,2.491-4.544,4.982-6.813,7.479c-1.465,1.606-2.925,3.226-4.359,4.862
				c-0.793,0.903-1.723,1.578-2.885,1.924c-0.598,0-1.194,0-1.797,0c-0.759-0.315-1.529-0.577-2.154-1.169
				c-0.725-0.676-1.125-1.515-1.436-2.421c0-5.002,0-10.008,0-15.011c0.36-1.578,1.051-2.964,2.303-4.049
				c1.121-0.977,2.432-1.569,3.902-1.577c4.448-0.05,8.894-0.025,13.338-0.025c0.142,0,0.295-0.024,0.469,0.127
				c-0.346,0.415-0.677,0.824-1.031,1.209c-0.839,0.947-1.697,1.865-2.536,2.807c-0.3,0.346-0.642,0.498-1.104,0.493
				c-2.792-0.015-5.563-0.005-8.347,0c-1.534,0-2.367,0.834-2.367,2.382c-0.004,3.457-0.004,6.92,0,10.379
				c0,0.325-0.055,0.654,0.173,0.946c0.4,0.276,0.715,0.083,0.992-0.223c0.867-0.94,1.721-1.898,2.575-2.854
				c1.848-2.043,3.688-4.095,5.542-6.137c2.33-2.584,4.657-5.159,6.995-7.749c1.628-1.8,3.266-3.615,4.902-5.411
				c2.313-2.545,4.628-5.08,6.951-7.625c0.896-0.987,2.026-1.431,3.363-1.431c13.766,0.011,27.538,0.011,41.304-0.005
				c1.411,0,2.584,0.448,3.532,1.501c2.481,2.742,4.967,5.474,7.447,8.211c2.156,2.373,4.307,4.745,6.457,7.112
				c2.717,3.009,5.435,6.027,8.157,9.037c1.617,1.796,3.241,3.581,4.859,5.366c0.212,0.236,0.448,0.424,0.783,0.286
				c0.336-0.138,0.356-0.444,0.356-0.75c0-2.101,0-4.192,0-6.293c0-1.471,0.009-2.946,0-4.425c0-1.466-0.819-2.313-2.299-2.318
				c-2.758-0.015-5.52-0.02-8.267,0.005c-0.603,0.011-0.986-0.202-1.366-0.646c-0.986-1.158-2.028-2.254-3.043-3.384
				c-0.139-0.151-0.354-0.251-0.365-0.512c0.188-0.174,0.404-0.095,0.611-0.095c4.184-0.004,8.376-0.004,12.568,0
				c3.254,0.011,5.78,1.953,6.619,5.102c0.048,0.188,0.108,0.369,0.167,0.546c0,5.003,0,10.009,0,15.011
				c-0.307,0.857-0.671,1.666-1.346,2.338c-0.646,0.625-1.45,0.921-2.244,1.252C129.455,77,128.858,77,128.252,77z"/>
		</g>
		<g>
			<path fill-rule="evenodd" clip-rule="evenodd" fill="#51504F" d="M119.273,23c1.428,0.379,2.641,1.061,3.488,2.398
				c-0.479,0.448-1.071,0.689-1.548,0.985c-0.312-0.044-0.425-0.247-0.578-0.39c-2.155-2.057-5.638-1.051-6.407,1.844
				c-0.512,1.988,0.218,3.902,1.89,4.884c1.208,0.716,3.181,0.617,4.241-0.251c0.627-0.514,0.241-1.224,0.311-1.895
				c-0.592-0.173-1.148-0.079-1.691-0.098c-0.527-0.011-1.061,0-1.628,0c-0.217-0.642-0.147-1.215-0.064-1.905
				c1.854-0.093,3.671-0.058,5.472-0.02c0.231,0.483,0.137,0.912,0.142,1.333c0.021,0.877,0,1.75,0.006,2.623
				c0,0.311-0.055,0.577-0.276,0.818c-2.545,2.753-7.563,2.422-9.712-0.656c-2.072-2.954-1.352-8.187,3.25-9.488
				c0.183-0.055,0.364-0.114,0.542-0.184C117.567,23,118.416,23,119.273,23z"/>
		</g>
		<g>
			<path fill-rule="evenodd" clip-rule="evenodd" fill="#51504F" d="M28.592,23c1.49,0.4,2.737,1.134,3.533,2.604
				c-0.584,0.39-1.136,0.729-1.801,0.952c-0.846-1.149-1.921-1.761-3.36-1.613c-0.956,0.088-1.771,0.464-2.421,1.169
				c-1.501,1.608-1.455,4.403,0.083,5.943c1.673,1.677,3.571,1.529,5.753-0.483c0.6,0.188,1.162,0.508,1.775,0.868
				c-0.84,1.479-2.053,2.328-3.643,2.635c-3.334,0.642-6.461-1.367-7.159-4.573c-0.771-3.502,1.079-6.535,4.502-7.404
				c0.099-0.023,0.196-0.063,0.301-0.098C26.964,23,27.778,23,28.592,23z"/>
		</g>
		<g>
			<path fill-rule="evenodd" clip-rule="evenodd" fill="#51504F" d="M76.457,34.844c0-3.893,0-7.745,0-11.559
				c0.251-0.196,0.497-0.166,0.725-0.166c1.726,0,3.457-0.03,5.185,0.01c2.104,0.029,3.384,1.419,3.196,3.453
				c-0.09,1.01-0.686,1.715-1.59,2.263c0.435,0.281,0.839,0.509,1.136,0.884c0.809,1.021,0.923,2.14,0.464,3.318
				c-0.444,1.18-1.392,1.819-2.6,1.87c-2.072,0.079-4.143,0.024-6.216,0.019C76.684,34.936,76.594,34.892,76.457,34.844z
				 M78.657,32.988c1.193,0,2.298,0.015,3.402-0.005c0.897-0.02,1.504-0.632,1.524-1.479c0.01-0.869-0.598-1.524-1.52-1.56
				c-0.981-0.035-1.957-0.019-2.94-0.019c-0.148,0-0.3,0.019-0.478,0.231C78.597,30.995,78.587,31.918,78.657,32.988z M78.65,27.922
				c1.2,0.061,2.367,0.14,3.518-0.034c0.818-0.123,1.219-0.716,1.165-1.504c-0.061-0.75-0.593-1.273-1.417-1.292
				c-0.937-0.031-1.873-0.01-2.815,0c-0.147,0-0.302,0.004-0.45,0.196C78.65,26.077,78.65,26.921,78.65,27.922z"/>
		</g>
		<g>
			<path fill-rule="evenodd" clip-rule="evenodd" fill="#51504F" d="M100.646,23.277c0.088-0.057,0.108-0.075,0.118-0.075
				c2.199-0.079,4.419-0.375,6.555,0.281c2.56,0.79,4.021,3.093,3.896,5.898c-0.127,2.714-1.838,4.771-4.482,5.396
				c-0.795,0.188-5.15,0.262-6.086,0.079C100.646,30.995,100.646,27.113,100.646,23.277z M102.819,32.988
				c0.884,0,1.706,0.023,2.531-0.005c1.854-0.065,3.172-1.273,3.536-3.197c0.356-1.883-0.494-3.658-2.115-4.364
				c-1.272-0.558-2.59-0.296-3.952-0.321C102.819,27.74,102.819,30.291,102.819,32.988z"/>
		</g>
		<g>
			<path fill-rule="evenodd" clip-rule="evenodd" fill="#51504F" d="M58.166,30.635c-0.671-0.063-1.258-0.059-1.947,0.016
				c0,1.41,0,2.787,0,4.188c-0.745,0.187-1.391,0.118-2.132,0.079c0-3.922,0-7.804,0-11.636c0.208-0.162,0.381-0.162,0.552-0.162
				c1.625,0,3.252-0.045,4.876,0.01c3.007,0.108,4.659,3.305,3.052,5.82c-0.479,0.749-1.204,1.134-2.11,1.439
				c0.487,0.785,0.941,1.52,1.39,2.254c0.444,0.715,0.884,1.436,1.396,2.255c-0.917,0.094-1.678,0.059-2.511,0.029
				C59.888,33.511,59.035,32.096,58.166,30.635z M56.264,28.604c1.139,0.024,2.242,0.139,3.328-0.059
				c0.721-0.13,1.233-0.805,1.287-1.496c0.064-0.813-0.266-1.509-0.976-1.761c-1.193-0.424-2.418-0.147-3.671-0.196
				C56.21,26.323,56.164,27.42,56.264,28.604z"/>
		</g>
		<g>
			<path fill-rule="evenodd" clip-rule="evenodd" fill="#51504F" d="M89.35,34.892c-0.739,0.085-1.381,0.1-2.102-0.015
				c0-3.882,0-7.743,0-11.575c0.198-0.223,0.444-0.183,0.675-0.183c1.536,0,3.074-0.03,4.613,0.01
				c3.082,0.059,4.819,3.132,3.246,5.73c-0.336,0.573-0.811,0.987-1.421,1.248c-0.218,0.083-0.425,0.184-0.717,0.311
				c0.913,1.479,1.792,2.9,2.759,4.459c-0.917,0.133-1.688,0.064-2.501,0.059c-0.854-1.44-1.706-2.869-2.545-4.271
				c-0.657-0.114-1.238-0.085-1.89-0.03C89.301,32.056,89.487,33.438,89.35,34.892z M89.468,28.593
				c1.13,0.06,2.181,0.104,3.206-0.015c0.754-0.084,1.342-0.833,1.41-1.623c0.06-0.724-0.36-1.479-1.094-1.706
				c-1.154-0.354-2.338-0.123-3.582-0.157C89.419,26.323,89.34,27.42,89.468,28.593z"/>
		</g>
		<g>
			<path fill-rule="evenodd" clip-rule="evenodd" fill="#51504F" d="M53.407,34.866c-0.884,0.148-1.634,0.075-2.378,0.069
				c-0.449-0.669-0.532-1.455-0.972-2.15c-1.712-0.078-3.453-0.048-5.164-0.029c-0.448,0.706-0.522,1.49-0.986,2.15
				c-0.735,0.079-1.485,0.07-2.397,0c1.559-3.976,3.068-7.832,4.593-11.709c0.916-0.128,1.785-0.093,2.717-0.024
				C50.339,27.049,51.863,30.911,53.407,34.866z M47.553,25.703c-0.06,0-0.119,0-0.174,0c-0.625,1.666-1.252,3.318-1.894,5.021
				c1.362,0,2.619,0,3.966,0C48.796,28.997,48.174,27.351,47.553,25.703z"/>
		</g>
		<g>
			<path fill-rule="evenodd" clip-rule="evenodd" fill="#51504F" d="M67.174,32.795c-0.296,0.73-0.577,1.421-0.858,2.111
				c-0.819,0.079-1.569,0.061-2.477,0.011c1.569-3.986,3.083-7.843,4.607-11.729c0.917-0.118,1.78-0.099,2.712-0.011
				c1.52,3.872,3.034,7.734,4.559,11.602c-0.573,0.198-1.461,0.236-2.363,0.113c-0.449-0.592-0.493-1.415-0.962-2.097
				C70.689,32.795,68.97,32.795,67.174,32.795z M67.813,30.729c1.378,0,2.615,0,3.976,0c-0.655-1.74-1.281-3.418-1.981-5.271
				C69.112,27.311,68.484,28.974,67.813,30.729z"/>
		</g>
		<g>
			<path fill-rule="evenodd" clip-rule="evenodd" fill="#51504F" d="M126.531,29.891c0,1.119,0,2.042,0,3.082
				c1.952,0,3.867,0,5.79,0c0.246,0.706,0.173,1.298,0.079,1.934c-2.714,0-5.353,0-8.06,0c0-3.926,0-7.793,0-11.729
				c2.683,0,5.315,0,8.004,0c0.223,0.617,0.154,1.209,0.024,1.915c-1.962,0-3.867,0-5.824,0c-0.098,0.976-0.064,1.859-0.039,2.861
				c1.942,0,3.832,0,5.712,0c0.197,0.675,0.158,1.237,0.044,1.938C130.373,29.891,128.493,29.891,126.531,29.891z"/>
		</g>
		<g>
			<path fill-rule="evenodd" clip-rule="evenodd" fill="#51504F" d="M35.744,32.993c1.785,0,3.398,0,5.036,0
				c0.202,0.667,0.152,1.238,0.064,1.884c-2.413,0-4.786,0-7.222,0c0-3.882,0-7.743,0-11.649c0.667-0.188,1.327-0.123,2.121-0.04
				C35.744,26.438,35.744,29.645,35.744,32.993z"/>
		</g>
		<g>
			<path fill-rule="evenodd" clip-rule="evenodd" fill="#51504F" d="M99.181,34.892c-0.716,0.094-1.348,0.085-2.052,0.006
				c0-3.888,0-7.749,0-11.681c0.66-0.167,1.316-0.128,2.052-0.029C99.181,27.099,99.181,30.962,99.181,34.892z"/>
		</g>
		<g>
			<path fill-rule="evenodd" clip-rule="evenodd" fill="#4BBABD" d="M107.255,57.334c-20.303,0-40.487,0-60.797,0
				c0.463-0.789,1.119-1.287,1.622-1.903c0.626-0.759,1.346-1.426,1.987-2.176c0.335-0.394,0.721-0.522,1.233-0.513
				c4.549,0.01,9.105,0.006,13.654,0.006c12.464,0,24.928,0.004,37.387-0.016c0.61,0,1.055,0.178,1.45,0.631
				c1.079,1.239,2.19,2.456,3.284,3.68C107.126,57.103,107.161,57.182,107.255,57.334z"/>
		</g>
	</g>
</g>
</svg>
