<?xml version="1.0" encoding="utf-8"?>
<!-- Generator: Adobe Illustrator 16.0.3, SVG Export Plug-In . SVG Version: 6.00 Build 0)  -->
<!DOCTYPE svg PUBLIC "-//W3C//DTD SVG 1.1//EN" "http://www.w3.org/Graphics/SVG/1.1/DTD/svg11.dtd">
<svg version="1.1" id="Layer_1" xmlns="http://www.w3.org/2000/svg" xmlns:xlink="http://www.w3.org/1999/xlink" x="0px" y="0px"
	 width="400px" height="250px" viewBox="0 0 400 250" enable-background="new 0 0 400 250" xml:space="preserve">
<g>
	<g>
		<g>
			<polygon fill="#FF7040" points="280,53.536 280,63.536 270,63.536 270,73.536 260,73.536 260,83.536 250,83.536 260,83.536 
				250,83.536 250,73.536 240,73.536 240,63.536 230,63.536 230,53.536 220,53.536 220,43.536 250,13.536 260,13.536 260,23.536 
				270,23.536 270,33.536 280,33.536 280,43.536 290,43.536 290,53.536 			"/>
		</g>
	</g>
	<g>
		<g>
			
				<rect x="210" y="-15.104" transform="matrix(0.7071 0.7071 -0.7071 0.7071 97.292 -137.8124)" fill="#806D60" width="10" height="127.28"/>
		</g>
	</g>
	<g>
		<g>
			<path fill="none" stroke="#806D60" stroke-width="10" stroke-miterlimit="10" d="M270,23.536"/>
		</g>
	</g>
	<g>
		<g>
			<polygon fill="#FF4046" points="390,53.536 390,63.536 380,63.536 380,73.536 370,73.536 370,83.536 360,83.536 370,83.536 
				360,83.536 360,73.536 350,73.536 350,63.536 340,63.536 340,53.536 330,53.536 330,43.536 360,13.536 370,13.536 370,23.536 
				380,23.536 380,33.536 390,33.536 390,43.536 400,43.536 400,53.536 			"/>
		</g>
	</g>
	<g>
		<g>
			
				<rect x="320" y="-15.104" transform="matrix(0.7071 0.7072 -0.7072 0.7071 129.5284 -215.6074)" fill="#806D60" width="10" height="127.279"/>
		</g>
	</g>
	<g>
		<g>
			<path fill="none" stroke="#806D60" stroke-width="10" stroke-miterlimit="10" d="M380,23.536"/>
		</g>
	</g>
	<g>
		<g>
			<polygon fill="#FFAF40" points="120,53.536 120,63.536 130,63.536 130,73.536 140,73.536 140,83.536 150,83.536 140,83.536 
				150,83.536 150,73.536 160,73.536 160,63.536 170,63.536 170,53.536 180,53.536 180,43.536 150,13.536 140,13.536 140,23.536 
				130,23.536 130,33.536 120,33.536 120,43.536 110,43.536 110,53.536 			"/>
		</g>
	</g>
	<g>
		<g>
			
				<rect x="121.36" y="43.535" transform="matrix(0.7071 0.7071 -0.7071 0.7071 88.5048 -116.5989)" fill="#806D60" width="127.28" height="10"/>
		</g>
	</g>
	<g>
		<g>
			<polygon fill="#FFEF40" points="10,53.536 10,63.536 20,63.536 20,73.536 30,73.536 30,83.536 40,83.536 30,83.536 40,83.536 
				40,73.536 50,73.536 50,63.536 60,63.536 60,53.536 70,53.536 70,43.536 40,13.536 30,13.536 30,23.536 20,23.536 20,33.536 
				10,33.536 10,43.536 0,43.536 0,53.536 			"/>
		</g>
	</g>
	<g>
		<g>
			
				<rect x="11.36" y="43.535" transform="matrix(0.7071 0.7071 -0.7071 0.7071 56.2869 -38.8172)" fill="#806D60" width="127.279" height="10"/>
		</g>
	</g>
	<g>
		<g>
			<polygon fill="#A68E7C" points="370,103.536 370,93.536 30,93.536 30,103.536 20,103.536 20,193.536 30,193.536 30,203.536 
				370,203.536 370,193.536 380,193.536 380,103.536 			"/>
		</g>
		<g>
			<path fill="#736357" d="M375,208.536H25v-10H15v-100h10v-10h350v10h10v100h-10V208.536z M35,198.536h330v-10h10v-80h-10v-10H35
				v10H25v80h10V198.536z"/>
		</g>
	</g>
	<g>
		<g>
			<path fill="#FF4046" d="M132.898,243.536h-0.492c-0.112,0-0.204-0.033-0.276-0.102s-0.108-0.166-0.108-0.293
				c0-0.057,0.004-0.102,0.012-0.133l1.032-4.785h-3.574l-1.031,4.834c-0.04,0.176-0.108,0.299-0.204,0.371
				c-0.096,0.072-0.212,0.107-0.348,0.107h-0.504l1.127-5.313h-2.195c-0.112,0-0.2-0.025-0.264-0.078s-0.096-0.146-0.096-0.281
				v-0.115c0-0.035,0.008-0.094,0.024-0.174l0.036-0.191h2.615l0.983-4.666h-3.034l0.072-0.455c0.032-0.264,0.208-0.396,0.528-0.396
				h2.555l1.043-4.844c0.032-0.152,0.098-0.268,0.198-0.342c0.1-0.076,0.218-0.115,0.354-0.115h0.504l-1.139,5.301h3.574l1.14-5.301
				h0.503c0.248,0,0.372,0.121,0.372,0.359c0,0.064-0.004,0.113-0.012,0.145l-1.043,4.797h2.699l-0.072,0.457
				c-0.04,0.264-0.22,0.395-0.54,0.395h-2.207l-0.984,4.666h2.699c0.24,0,0.36,0.104,0.36,0.313l-0.048,0.527h-3.13L132.898,243.536
				z M133.186,237.383l0.984-4.666h-3.574l-0.983,4.666H133.186z"/>
		</g>
		<g>
			<path fill="#FF4046" d="M153.594,241.282c-0.352,0.375-0.735,0.713-1.151,1.014c-0.416,0.299-0.87,0.555-1.361,0.768
				c-0.492,0.211-1.032,0.375-1.619,0.49c-0.588,0.117-1.234,0.174-1.937,0.174c-1.175,0-2.252-0.205-3.232-0.617
				s-1.819-0.994-2.519-1.75c-0.7-0.756-1.246-1.67-1.637-2.74c-0.392-1.072-0.587-2.264-0.587-3.574
				c0-1.287,0.202-2.463,0.605-3.527c0.404-1.063,0.971-1.977,1.703-2.74c0.731-0.762,1.607-1.354,2.626-1.773
				s2.145-0.631,3.376-0.631c1.588,0,3.395,0.406,5.42,1.217v3.828h-0.583c-0.326,0-0.498-0.195-0.517-0.582
				c-0.009-0.189-0.052-1.053-0.128-2.592c-1.249-0.543-2.646-0.814-4.191-0.814c-1.031,0-1.979,0.178-2.842,0.533
				c-0.864,0.355-1.607,0.863-2.23,1.523c-0.624,0.66-1.109,1.459-1.457,2.398c-0.348,0.939-0.522,1.992-0.522,3.16
				c0,1.199,0.172,2.271,0.516,3.215s0.819,1.74,1.427,2.393c0.607,0.65,1.325,1.15,2.153,1.498s1.725,0.521,2.692,0.521
				c0.608,0,1.149-0.039,1.625-0.119c0.476-0.08,0.914-0.201,1.313-0.361c0.4-0.158,0.772-0.355,1.115-0.586
				c0.344-0.232,0.684-0.504,1.02-0.816c0.04-0.031,0.078-0.059,0.114-0.078c0.036-0.02,0.078-0.029,0.126-0.029
				c0.08,0,0.148,0.027,0.204,0.084L153.594,241.282z"/>
		</g>
		<g>
			<path fill="#FF4046" d="M170.609,238.614c-0.392,1.066-0.943,1.979-1.655,2.734c-0.711,0.754-1.563,1.338-2.555,1.75
				c-0.991,0.412-2.091,0.617-3.298,0.617c-1.191,0-2.283-0.205-3.274-0.617c-0.991-0.412-1.843-0.996-2.555-1.75
				c-0.711-0.756-1.265-1.668-1.661-2.734c-0.396-1.068-0.593-2.258-0.593-3.568c0-1.305,0.198-2.488,0.593-3.557
				c0.396-1.068,0.95-1.979,1.661-2.734c0.712-0.756,1.563-1.342,2.555-1.758c0.992-0.416,2.083-0.623,3.274-0.623
				c1.207,0,2.307,0.205,3.298,0.617c0.992,0.412,1.843,0.998,2.555,1.758c0.712,0.76,1.263,1.672,1.655,2.74
				c0.392,1.068,0.587,2.252,0.587,3.557C171.196,236.356,171,237.545,170.609,238.614z M169.434,231.854
				c-0.328-0.943-0.79-1.742-1.385-2.398s-1.313-1.156-2.153-1.506c-0.84-0.348-1.771-0.521-2.794-0.521
				c-1.007,0-1.929,0.174-2.765,0.521c-0.835,0.35-1.555,0.85-2.159,1.506s-1.071,1.455-1.403,2.398s-0.498,2.008-0.498,3.191
				c0,1.191,0.166,2.256,0.498,3.195s0.8,1.738,1.403,2.393c0.604,0.656,1.323,1.156,2.159,1.5s1.757,0.516,2.765,0.516
				c1.023,0,1.955-0.172,2.794-0.516c0.839-0.344,1.557-0.844,2.153-1.5c0.596-0.654,1.057-1.453,1.385-2.393
				c0.328-0.939,0.492-2.004,0.492-3.195C169.925,233.862,169.761,232.797,169.434,231.854z"/>
		</g>
		<g>
			<path fill="#FF4046" d="M184.452,240.372h0.468v1.748v0.973v0.443h-0.204h-0.214h-9.057h-2.021v-0.477
				c0-0.268,0.158-0.408,0.476-0.424c0.035-0.002,0.111-0.004,0.228-0.008c0.117-0.002,0.294-0.008,0.532-0.016
				c0.238-0.008,0.5-0.018,0.785-0.029V227.52c-0.285-0.012-0.547-0.021-0.785-0.029c-0.238-0.008-0.416-0.014-0.533-0.018
				c-0.117-0.002-0.193-0.006-0.228-0.006c-0.317-0.016-0.476-0.158-0.476-0.424v-0.479h2.021h1.221h2.021v0.479
				c0,0.266-0.158,0.408-0.476,0.424c-0.035,0-0.111,0.004-0.228,0.006c-0.117,0.004-0.293,0.01-0.531,0.018
				c-0.237,0.008-0.499,0.018-0.784,0.029v14.973h7.021c0.018-0.342,0.036-0.627,0.056-0.854s0.037-0.391,0.05-0.488
				c0.014-0.1,0.021-0.166,0.023-0.197c0.019-0.389,0.191-0.582,0.517-0.582H184.452z"/>
		</g>
		<g>
			<path fill="#FF4046" d="M201.713,238.614c-0.393,1.066-0.944,1.979-1.656,2.734c-0.711,0.754-1.563,1.338-2.555,1.75
				c-0.991,0.412-2.091,0.617-3.298,0.617c-1.191,0-2.283-0.205-3.274-0.617c-0.991-0.412-1.843-0.996-2.555-1.75
				c-0.711-0.756-1.265-1.668-1.661-2.734c-0.396-1.068-0.593-2.258-0.593-3.568c0-1.305,0.198-2.488,0.593-3.557
				c0.396-1.068,0.95-1.979,1.661-2.734c0.712-0.756,1.563-1.342,2.555-1.758c0.992-0.416,2.083-0.623,3.274-0.623
				c1.207,0,2.307,0.205,3.298,0.617c0.992,0.412,1.843,0.998,2.555,1.758c0.712,0.76,1.263,1.672,1.656,2.74
				c0.391,1.068,0.587,2.252,0.587,3.557C202.3,236.356,202.104,237.545,201.713,238.614z M200.537,231.854
				c-0.328-0.943-0.79-1.742-1.385-2.398s-1.313-1.156-2.153-1.506c-0.84-0.348-1.771-0.521-2.794-0.521
				c-1.007,0-1.929,0.174-2.765,0.521c-0.835,0.35-1.555,0.85-2.159,1.506s-1.071,1.455-1.403,2.398s-0.498,2.008-0.498,3.191
				c0,1.191,0.166,2.256,0.498,3.195s0.8,1.738,1.403,2.393c0.604,0.656,1.323,1.156,2.159,1.5s1.757,0.516,2.765,0.516
				c1.023,0,1.955-0.172,2.794-0.516c0.839-0.344,1.557-0.844,2.153-1.5c0.596-0.654,1.057-1.453,1.385-2.393
				c0.328-0.939,0.492-2.004,0.492-3.195C201.029,233.862,200.865,232.797,200.537,231.854z"/>
		</g>
		<g>
			<path fill="#FF4046" d="M218.678,243.059v0.477h-0.631h-0.944h-0.124c-0.128,0-0.238-0.023-0.33-0.072
				c-0.092-0.047-0.182-0.127-0.27-0.24l-5.433-6.883c-0.136-0.176-0.282-0.301-0.438-0.373c-0.155-0.07-0.397-0.107-0.726-0.107
				h-2.01v6.723c0.283,0.012,0.545,0.021,0.781,0.029c0.238,0.008,0.415,0.012,0.531,0.016c0.117,0.004,0.193,0.006,0.228,0.008
				c0.317,0.016,0.476,0.156,0.476,0.424v0.477h-2.016h-1.225h-2.02v-0.477c0-0.268,0.158-0.408,0.475-0.424
				c0.035-0.002,0.111-0.004,0.229-0.008c0.116-0.004,0.294-0.008,0.531-0.016c0.238-0.008,0.5-0.018,0.785-0.029v-15.064
				c-0.285-0.01-0.547-0.02-0.784-0.027c-0.238-0.008-0.415-0.014-0.532-0.018c-0.117-0.002-0.193-0.006-0.229-0.008
				c-0.316-0.016-0.475-0.156-0.475-0.422v-0.479h2.02h4.121c1.959,0,3.423,0.379,4.391,1.135c0.967,0.754,1.451,1.863,1.451,3.328
				c0,0.646-0.112,1.238-0.336,1.773c-0.225,0.537-0.546,1.006-0.965,1.41c-0.42,0.404-0.926,0.736-1.518,0.996
				c-0.593,0.26-1.26,0.43-2.003,0.508c0.191,0.121,0.363,0.281,0.515,0.48l5.102,6.41c0.148,0.006,0.291,0.01,0.43,0.014
				c0.14,0.004,0.244,0.008,0.314,0.01s0.121,0.004,0.152,0.006C218.52,242.651,218.678,242.792,218.678,243.059z M212.535,234.678
				c0.596-0.18,1.1-0.438,1.512-0.773s0.726-0.74,0.941-1.211s0.324-1.004,0.324-1.596c0-1.207-0.396-2.102-1.188-2.686
				c-0.792-0.584-1.943-0.875-3.455-0.875h-2.897v7.41h2.742C211.266,234.948,211.939,234.858,212.535,234.678z"/>
		</g>
		<g>
			<path fill="#FF4046" d="M244.22,226.565v0.479c0,0.266-0.158,0.408-0.476,0.424c-0.028,0-0.079,0.004-0.15,0.008
				c-0.072,0.006-0.166,0.012-0.282,0.018c-0.117,0.006-0.251,0.014-0.401,0.02l-5.039,16.023h-1.104l-5.014-14.727
				c-0.063-0.191-0.119-0.395-0.168-0.613c-0.048,0.217-0.104,0.42-0.168,0.613l-5.025,14.727h-1.091l-5.051-16.023
				c-0.151-0.006-0.284-0.014-0.401-0.02c-0.115-0.006-0.21-0.012-0.283-0.018c-0.072-0.004-0.122-0.008-0.149-0.008
				c-0.317-0.018-0.476-0.158-0.476-0.424v-0.479h1.01h1.011h2.529v0.479c0,0.266-0.159,0.406-0.476,0.424
				c-0.037,0-0.104,0.004-0.197,0.006c-0.096,0.004-0.252,0.01-0.469,0.018c-0.218,0.008-0.465,0.016-0.74,0.027l4.088,13.32
				c0.048,0.16,0.09,0.332,0.126,0.516c0.042,0.211,0.079,0.402,0.114,0.574c0.042-0.211,0.082-0.402,0.119-0.574
				c0.04-0.184,0.088-0.355,0.145-0.516l4.797-13.949c0.032-0.088,0.088-0.164,0.168-0.227c0.08-0.064,0.176-0.098,0.288-0.098
				h0.336c0.111,0,0.203,0.031,0.275,0.09c0.072,0.061,0.128,0.139,0.168,0.234l4.797,13.949c0.057,0.16,0.106,0.328,0.15,0.502
				c0.044,0.176,0.086,0.365,0.126,0.564c0.04-0.191,0.076-0.377,0.107-0.559c0.032-0.18,0.072-0.35,0.12-0.508l4.089-13.318
				c-0.284-0.012-0.54-0.021-0.769-0.029c-0.228-0.008-0.394-0.014-0.498-0.018c-0.104-0.002-0.175-0.006-0.211-0.006
				c-0.317-0.018-0.477-0.158-0.476-0.424v-0.479h2.529h0.072h0.938H244.22z"/>
		</g>
		<g>
			<path fill="#FF4046" d="M257.605,242.983v0.553h-0.785h-0.486h-0.461h-0.159h-2.249v-0.553c0-0.309,0.184-0.471,0.55-0.488
				c0.033-0.002,0.083-0.006,0.149-0.012s0.18-0.014,0.338-0.023c0.159-0.01,0.361-0.021,0.607-0.035l-1.683-4.143l-0.121-0.307
				h-8.089l-0.125,0.307l-1.673,4.143c0.247,0.014,0.449,0.025,0.608,0.035s0.271,0.018,0.339,0.023s0.117,0.01,0.149,0.012
				c0.366,0.018,0.55,0.18,0.55,0.488v0.553h-2.249h-0.172h-0.448h-0.487h-0.784v-0.553c0-0.285,0.154-0.445,0.462-0.48l0.776-0.078
				l6.49-15.859h1.224l6.489,15.859l0.775,0.078C257.45,242.538,257.605,242.698,257.605,242.983z M245.588,237.063h7.354
				l-3.342-8.268c-0.056-0.135-0.111-0.287-0.168-0.461c-0.058-0.178-0.113-0.359-0.168-0.545c-0.056,0.189-0.111,0.371-0.168,0.545
				c-0.055,0.17-0.11,0.328-0.167,0.475L245.588,237.063z"/>
		</g>
		<g>
			<path fill="#FF4046" d="M273.903,243.059v0.477h-0.632h-0.944h-0.124c-0.128,0-0.237-0.023-0.329-0.072
				c-0.093-0.047-0.183-0.127-0.271-0.24l-5.433-6.883c-0.137-0.176-0.282-0.301-0.438-0.373c-0.156-0.07-0.397-0.107-0.726-0.107
				h-2.011v6.723c0.285,0.012,0.546,0.021,0.783,0.029s0.414,0.012,0.53,0.016c0.117,0.004,0.192,0.006,0.228,0.008
				c0.317,0.016,0.476,0.156,0.476,0.424v0.477h-2.017h-1.223h-2.021v-0.477c0-0.268,0.159-0.408,0.476-0.424
				c0.035-0.002,0.111-0.004,0.229-0.008c0.116-0.004,0.294-0.008,0.532-0.016c0.237-0.008,0.499-0.018,0.785-0.029v-15.064
				c-0.286-0.01-0.548-0.02-0.785-0.027c-0.238-0.008-0.416-0.014-0.532-0.018c-0.117-0.002-0.193-0.006-0.229-0.008
				c-0.316-0.016-0.476-0.156-0.476-0.422v-0.479h2.021h4.121c1.959,0,3.422,0.379,4.389,1.135c0.968,0.754,1.451,1.863,1.452,3.328
				c-0.001,0.646-0.112,1.238-0.336,1.773c-0.225,0.537-0.546,1.006-0.966,1.41s-0.925,0.736-1.517,0.996
				c-0.593,0.26-1.26,0.43-2.003,0.508c0.191,0.121,0.363,0.281,0.516,0.48l5.101,6.41c0.148,0.006,0.291,0.01,0.431,0.014
				c0.139,0.004,0.243,0.008,0.313,0.01s0.121,0.004,0.152,0.006C273.744,242.651,273.903,242.792,273.903,243.059z M267.76,234.678
				c0.596-0.18,1.1-0.438,1.512-0.773s0.726-0.74,0.941-1.211s0.323-1.004,0.323-1.596c0-1.207-0.396-2.102-1.187-2.686
				c-0.792-0.584-1.943-0.875-3.454-0.875h-2.898v7.41h2.742C266.491,234.948,267.164,234.858,267.76,234.678z"/>
		</g>
	</g>
	<g>
		<g>
			<path fill="#FFFFFF" d="M83.897,168.028c-0.986,1.154-2.054,2.121-3.204,2.898c-1.151,0.779-2.345,1.402-3.582,1.871
				c-1.235,0.469-2.513,0.799-3.834,0.99c-1.322,0.191-2.63,0.287-3.923,0.287c-2.28,0-4.428-0.426-6.443-1.277
				c-2.016-0.852-3.774-2.094-5.273-3.725c-1.5-1.633-2.688-3.631-3.564-5.994s-1.313-5.057-1.313-8.08
				c0-2.711,0.39-5.225,1.169-7.541c0.779-2.314,1.925-4.318,3.438-6.012c1.512-1.691,3.383-3.018,5.615-3.977
				c2.232-0.961,4.8-1.439,7.703-1.439c2.99,0,6.866,0.887,11.63,2.664l-0.003,11.359h-0.308h-0.874H78.17
				c-0.927,0-1.486-0.447-1.679-1.342c-0.106-0.605-0.299-2.344-0.579-5.213c-1.875-0.469-3.437-0.703-4.686-0.703
				c-1.559,0-2.927,0.283-4.104,0.846c-1.176,0.564-2.154,1.375-2.933,2.43c-0.78,1.057-1.362,2.334-1.746,3.834
				c-0.384,1.5-0.576,3.197-0.576,5.094c0,1.967,0.21,3.719,0.629,5.254s1.025,2.826,1.818,3.871
				c0.792,1.043,1.751,1.834,2.879,2.375c1.127,0.539,2.399,0.809,3.815,0.809c1.416,0,2.562-0.174,3.438-0.521
				c0.875-0.348,1.613-0.73,2.213-1.15c0.596-0.418,1.118-0.803,1.566-1.152c0.444-0.348,0.942-0.521,1.494-0.521
				c0.72,0,1.26,0.275,1.62,0.828L83.897,168.028z"/>
		</g>
		<g>
			<path fill="#FFFFFF" d="M111.671,137.36c2.244,0.889,4.157,2.148,5.741,3.781c1.584,1.631,2.808,3.623,3.671,5.975
				s1.296,4.979,1.296,7.883c0,2.928-0.432,5.566-1.296,7.918c-0.864,2.354-2.087,4.355-3.671,6.012s-3.498,2.928-5.741,3.816
				c-2.244,0.887-4.746,1.332-7.505,1.332c-2.759,0-5.267-0.445-7.523-1.332c-2.256-0.889-4.182-2.16-5.777-3.816
				s-2.832-3.658-3.708-6.012c-0.876-2.352-1.313-4.99-1.313-7.918c0-2.904,0.438-5.531,1.313-7.883s2.112-4.344,3.708-5.975
				c1.596-1.633,3.521-2.893,5.777-3.781c2.256-0.887,4.764-1.33,7.523-1.33C106.926,136.03,109.428,136.473,111.671,137.36z
				 M110.987,164.141c1.476-2.064,2.214-5.088,2.214-9.07c0-3.984-0.738-7.02-2.214-9.107c-1.476-2.088-3.75-3.131-6.821-3.131
				c-3.12,0-5.423,1.049-6.911,3.148s-2.231,5.131-2.231,9.09s0.744,6.977,2.231,9.053s3.792,3.113,6.911,3.113
				C107.238,167.237,109.512,166.206,110.987,164.141z"/>
		</g>
		<g>
			<path fill="#FFFFFF" d="M143.982,169.303v4.232h-5.453h-8.891h-5.454v-4.232c0-1.244,0.6-1.994,1.802-2.252
				c0.104-0.018,0.255-0.045,0.452-0.082c0.196-0.035,0.554-0.1,1.073-0.193c0.519-0.092,1.228-0.219,2.127-0.377v-39.217
				c-0.9-0.158-1.609-0.283-2.128-0.377c-0.519-0.094-0.876-0.158-1.072-0.193c-0.196-0.035-0.346-0.063-0.452-0.082
				c-1.202-0.258-1.802-1.007-1.802-2.251v-4.231h5.454h8.891v46.352c0.899,0.158,1.608,0.283,2.127,0.377
				c0.52,0.094,0.877,0.158,1.073,0.193c0.196,0.037,0.347,0.064,0.452,0.082C143.382,167.309,143.982,168.059,143.982,169.303z"/>
		</g>
		<g>
			<path fill="#FFFFFF" d="M172.115,137.36c2.244,0.889,4.157,2.148,5.741,3.781c1.584,1.631,2.808,3.623,3.671,5.975
				s1.296,4.979,1.296,7.883c0,2.928-0.432,5.566-1.296,7.918c-0.864,2.354-2.087,4.355-3.671,6.012s-3.498,2.928-5.741,3.816
				c-2.244,0.887-4.746,1.332-7.505,1.332c-2.759,0-5.267-0.445-7.523-1.332c-2.256-0.889-4.182-2.16-5.777-3.816
				s-2.832-3.658-3.708-6.012c-0.876-2.352-1.313-4.99-1.313-7.918c0-2.904,0.438-5.531,1.313-7.883s2.112-4.344,3.708-5.975
				c1.596-1.633,3.521-2.893,5.777-3.781c2.256-0.887,4.764-1.33,7.523-1.33C167.369,136.03,169.871,136.473,172.115,137.36z
				 M171.431,164.141c1.476-2.064,2.214-5.088,2.214-9.07c0-3.984-0.738-7.02-2.214-9.107c-1.476-2.088-3.75-3.131-6.821-3.131
				c-3.12,0-5.423,1.049-6.911,3.148s-2.231,5.131-2.231,9.09s0.744,6.977,2.231,9.053s3.792,3.113,6.911,3.113
				C167.681,167.237,169.955,166.206,171.431,164.141z"/>
		</g>
		<g>
			<path fill="#FFFFFF" d="M214.377,137.182l-1.151,6.658c-0.072,0.432-0.229,0.738-0.468,0.918c-0.24,0.18-0.564,0.27-0.972,0.27
				c-0.36,0-0.853-0.084-1.476-0.252c-0.625-0.168-1.453-0.252-2.484-0.252c-1.848,0-3.432,0.51-4.751,1.531
				c-1.32,1.02-2.436,2.514-3.347,4.48v15.865c3.065,0.541,3.096,0.555,3.65,0.652c1.201,0.258,1.802,1.008,1.802,2.252v4.23h-5.452
				h-0.002h-8.889h-5.453v-4.23c0-1.244,0.6-1.994,1.801-2.252c0.553-0.098,0.585-0.111,3.652-0.652v-22.658
				c-3.066-0.541-3.099-0.557-3.652-0.654c-1.201-0.256-1.802-1.006-1.801-2.25v-4.232h5.453h5.219c0.912,0,1.548,0.168,1.908,0.504
				c0.359,0.336,0.599,0.912,0.72,1.727l0.54,4.465c1.32-2.281,2.867-4.08,4.644-5.4c1.775-1.318,3.768-1.979,5.975-1.979
				C211.665,135.922,213.178,136.342,214.377,137.182z"/>
		</g>
		<g>
			<path fill="#FFFFFF" d="M278.662,136.608v4.23c0,1.244-0.6,1.994-1.802,2.252c-0.553,0.098-0.341,0.068-3.405,0.609
				l-9.451,29.836h-7.163c-0.769,0-1.32-0.527-1.655-1.584l-6.66-21.344c-0.215-0.695-0.413-1.398-0.593-2.105
				c-0.181-0.709-0.33-1.41-0.45-2.105c-0.144,0.719-0.301,1.434-0.468,2.141c-0.169,0.709-0.36,1.422-0.577,2.143l-6.73,21.273
				c-0.337,1.055-0.984,1.582-1.943,1.582h-6.803l-9.452-29.838c-3.06-0.539-2.848-0.51-3.4-0.607
				c-1.201-0.258-1.802-1.008-1.802-2.252v-4.23h2.956l-0.001-0.002h7.055c0.006,0,0.01,0.002,0.016,0.002h7.963v4.23
				c0,1.244-0.601,1.994-1.802,2.252c-0.449,0.078-0.555,0.104-2.218,0.398l3.889,14.498c0.288,1.08,0.521,2.137,0.701,3.168
				s0.354,2.064,0.522,3.096c0.264-1.031,0.545-2.064,0.846-3.096c0.3-1.031,0.617-2.088,0.954-3.168l6.118-19.797
				c0.145-0.48,0.433-0.875,0.865-1.188c0.432-0.313,0.936-0.469,1.511-0.469h3.924c0.648,0,1.188,0.156,1.62,0.469
				c0.432,0.313,0.72,0.707,0.864,1.188l6.047,20.156c0.312,1.033,0.594,2.035,0.847,3.006c0.251,0.973,0.497,1.951,0.737,2.934
				c0.168-1.031,0.354-2.064,0.558-3.096s0.462-2.1,0.774-3.203l4.004-14.434c-2.009-0.355-2.101-0.379-2.58-0.463
				c-1.201-0.258-1.802-1.008-1.802-2.252v-4.23h8.283c0.005,0,0.009-0.002,0.014-0.002h6.73v0.002H278.662z"/>
		</g>
		<g>
			<path fill="#FFFFFF" d="M315.599,169.231v4.232h-4.473h-0.98h-3.015c-0.841,0-1.5-0.127-1.979-0.379
				c-0.48-0.25-0.841-0.76-1.08-1.529l-0.791-2.627c-0.937,0.84-1.854,1.578-2.755,2.213c-0.897,0.635-1.827,1.17-2.789,1.604
				c-0.961,0.432-1.98,0.756-3.06,0.971c-1.081,0.217-2.28,0.324-3.6,0.324c-1.559,0-2.998-0.211-4.319-0.631
				c-1.32-0.422-2.454-1.055-3.401-1.896c-0.948-0.844-1.687-1.891-2.214-3.143c-0.528-1.252-0.792-2.709-0.792-4.369
				c0-1.396,0.366-2.775,1.098-4.137c0.732-1.359,1.95-2.588,3.654-3.684c1.703-1.096,3.971-2.004,6.803-2.727
				c2.831-0.721,6.347-1.082,10.546-1.082v-2.178c0-2.49-0.521-4.334-1.565-5.531s-2.562-1.795-4.553-1.795
				c-1.439,0-2.64,0.168-3.6,0.504c-0.961,0.336-1.795,0.715-2.502,1.135c-0.702,0.416-1.355,0.795-1.962,1.133
				c-0.6,0.336-1.26,0.504-1.979,0.504c-0.6,0-1.116-0.156-1.548-0.467c-0.433-0.313-0.78-0.697-1.044-1.152l-1.619-2.844
				c4.247-3.887,9.37-5.832,15.369-5.832c2.158,0.002,4.084,0.355,5.777,1.063c1.691,0.707,3.125,1.691,4.302,2.951
				c1.177,1.262,2.07,2.768,2.682,4.518c0.611,1.752,0.917,3.672,0.917,5.76V166.5c0.82,0.145,1.452,0.258,1.896,0.34
				c0.444,0.08,0.702,0.127,0.775,0.139C314.999,167.237,315.6,167.987,315.599,169.231z M302.451,157.805
				c-2.594,0-4.76,0.164-6.497,0.49c-1.739,0.326-3.137,0.742-4.193,1.25s-1.807,1.1-2.25,1.777
				c-0.443,0.676-0.666,1.412-0.666,2.209c0,1.572,0.462,2.697,1.386,3.373c0.923,0.676,2.129,1.016,3.617,1.016
				c0.912,0,1.752-0.084,2.521-0.248c0.769-0.166,1.494-0.414,2.178-0.746c0.683-0.328,1.343-0.736,1.979-1.221
				c0.636-0.484,1.278-1.057,1.926-1.719V157.805z"/>
		</g>
		<g>
			<path fill="#FFFFFF" d="M347.324,137.182l-1.151,6.658c-0.072,0.432-0.229,0.738-0.468,0.918c-0.241,0.18-0.564,0.27-0.973,0.27
				c-0.36,0-0.852-0.084-1.476-0.252c-0.625-0.168-1.452-0.252-2.483-0.252c-1.849,0-3.433,0.51-4.751,1.531
				c-1.321,1.02-2.437,2.514-3.348,4.48v15.865c3.064,0.541,3.097,0.555,3.649,0.652c1.201,0.258,1.802,1.008,1.802,2.252v4.23
				h-5.451h-0.002h-8.889h-5.453v-4.23c-0.001-1.244,0.6-1.994,1.801-2.252c0.554-0.098,0.586-0.111,3.652-0.652v-22.658
				c-3.066-0.541-3.099-0.557-3.652-0.654c-1.201-0.256-1.802-1.006-1.801-2.25v-4.232h5.453h5.219c0.912,0,1.548,0.168,1.908,0.504
				c0.359,0.336,0.6,0.912,0.72,1.727l0.539,4.465c1.32-2.281,2.868-4.08,4.645-5.4c1.775-1.318,3.767-1.979,5.975-1.979
				C344.612,135.922,346.124,136.342,347.324,137.182z"/>
		</g>
	</g>
</g>
</svg>
