<?xml version="1.0" encoding="utf-8"?>
<!-- Generator: Adobe Illustrator 16.0.3, SVG Export Plug-In . SVG Version: 6.00 Build 0)  -->
<!DOCTYPE svg PUBLIC "-//W3C//DTD SVG 1.1//EN" "http://www.w3.org/Graphics/SVG/1.1/DTD/svg11.dtd">
<svg version="1.1" xmlns="http://www.w3.org/2000/svg" xmlns:xlink="http://www.w3.org/1999/xlink" x="0px" y="0px" width="168px"
	 height="100px" viewBox="0 0 168 100" enable-background="new 0 0 168 100" xml:space="preserve">
<g id="guides">
</g>
<g id="Layer_2">
	<path fill="#8CA757" d="M147.962,53.183c-0.548,0.882-2.491,2.984-6.264,2.88c-5.809-0.163-7.838-3.491-8.454-5.173
		c-3.437-0.821-4.508-3.42-4.771-5.195c-0.347,0.856-0.683,1.832-0.965,2.951c-1.449,5.776-3.491,8.607-6.543,6.352
		c-1.365-1.177-2.886-2.444-3.538-7.214c-0.129-0.929-0.272-4.247-0.133-6.619c-0.302,0.992-1.425,4.039-2.63,7.553
		c-1.204,3.514-1.974,7.348-3.997,7.348c-4.112,0-4.636-4.961-4.36-12.848c-0.012-0.069-2.63,13.015-6.87,12.931
		c-0.93-0.02-2.245-0.318-3.308-1.621c-0.008-0.01-0.018-0.021-0.023-0.031c-0.714-0.868-1.249-1.883-1.643-3.063
		c-0.461,1.498-2.179,4.618-4.333,4.618c-3.092,0-3.979-3.107-4.182-3.634c-0.279,0.49-2.702,3.638-5.86,3.638
		c-2.503,0-4.66-1.786-5.244-3.959c-0.986,1.63-2.957,4.112-7.055,4.112c-3.511,0-5.748-1.533-6.818-2.745
		c-1.922,1.535-4.168,2.626-6.981,2.626c-5.256,0-5.857-4.842-5.857-8.778c0-1.433,0.239-4.564,0.458-6.47
		c0.428-2.554-0.051-2.682-0.772-2.936c-0.723-0.256-1.205-0.366-2.059-0.611c0,9.125-3.308,16.979-12.006,18.635
		c-0.646,0.173-1.333,0.263-2.126,0.267c-10.74,0.031-11.804-8.282-11.79-12.615c0.027-8.671,6.133-15.836,10.659-15.848
		c4.526-0.015,7.641,1.364,7.273,4.559c-0.364,3.194-3.351,3.279-3.191,0.767c0-7.501-9.564,1.257-9.591,9.732
		c-0.002,0.584-0.73,10.694,7.38,10.503v-0.051c7.3-0.823,10.536-8.282,10.536-16.554c-3.838-1.919-3.491-5.519-1.019-6.091
		c2.732-0.739,3.941,2.152,3.941,4.61c3.083,1.084,3.071,1.029,4.94,1.645c1.87,0.616,2.936,1.021,2.747,2.947
		c-0.421,3.063-0.924,8.091-0.477,10.547c0.789,4.339,3.487,2.981,6.077,0.443c-0.268-0.579-0.448-1.112-0.55-1.538
		c-0.202-0.855-0.804-3.754-0.314-6.851c0.704-4.473,3.147-8.779,7.896-8.646c3.191,0,4.4,2.806,4.4,6.507
		c0,4.582-4.414,8.771-6.701,10.942c1.039,1.588,2.413,2.759,4.165,2.759c1.682,0,4.421-0.189,5.846-4.754
		c0.054-0.191,0.411-2.708,0.477-3.006c1.074-4.873,3.154-7.98,4.987-9.84c2.843-2.622,6.08-1.307,5.425-0.338
		c-0.383,0.559-1.151,0.508-2.584,2.522c-2.549,3.946-4.092,9.212-2.983,12.551c0.213,0.64,1.092,1.504,1.977,1.501
		c3.096,0,4.261-11.903,6.085-11.903c0.839,0,0.436,2.901,0.344,3.688c-0.231,2.069,0.043,7.487,1.378,8.593
		c2.518,2.124,5.081-2.108,4.757-5.739c-0.006-0.088-0.004-0.128,0.006-0.15c-0.155-3.131,0.243-7.104,1.117-12.206
		c-1.539,0.493-2.26,0.688-3.849,1.282c-0.798,0.305-1.191-0.936-0.21-1.402c0.596-0.274,1.773-0.713,4.362-1.604
		c0.293-1.611,0.628-3.325,1.005-5.155L100.635,26c-0.403,1.963-0.761,3.873-1.073,5.72c3.735-1.14,7.596-2.101,9.688-2.024
		c0.167,0.008,0.315,0.025,0.454,0.049c1.618,0.231,2.495,1.465,2.439,2.628c-0.057,1.269-1.463,2.271-3.69,2.271
		c-1.91-0.037-2.72-1.399-2.67-2.665c-1.59,0.31-3.876,0.846-6.525,1.583c-1.344,8.465-1.659,15.182-0.62,17.54
		c1.333,3.026,2.004,1.821,3.456-0.529c2.055-3.482,4.02-12.425,4.064-12.702c0.107-0.625,4.153-2.896,4.146-0.972
		c-0.188,5.308-0.57,10.869,0.094,13.549c0.138,0.547,0.729,2.383,1.799-0.261c0.469-1.164,1.96-4.399,2.924-7.091
		c0.965-2.689,1.694-3.741,2.01-4.6c0.218-0.581,3.813-1.787,3.946-0.78c0.156,5.978,0.271,10.732,1.351,13.333
		c0.39,0.939,1.104,2.121,1.732,0.195c0.394-1.205,0.782-3.368,1.091-5.517c0.274-1.933,0.842-7.039,4.984-6.163
		c0.601,0.15,0.585,0.527,0.259,1.228v0.003c-0.005,0.009-0.009,0.019-0.013,0.025c-0.002,0.007-0.006,0.012-0.009,0.018
		c-1.631,3.29-0.171,6.872,2.251,7.85c-0.123-0.915-0.169-2.037,0.041-3.194c0.613-3.354,2.558-7.727,7.074-7.598
		c3.073,0.085,4.198,2.239,4.035,4.798c0,3.496-2.344,8.18-6.859,8.383c1.073,3.121,3.75,3.388,4.99,3.388
		c1.572,0,3.819-1.195,5.116-4.609C147.84,47.682,148.509,52.3,147.962,53.183z M65.216,37.259c-1.717,0-4.217,6.451-2.858,10.227
		C66.77,42.963,66.676,37.259,65.216,37.259z M138.669,41.115c-1.258,0-2.799,4.632-2.383,7.805
		C139.962,48.87,140.618,41.115,138.669,41.115z M51.483,69.057c0.02-0.012,0.038-0.023,0.057-0.036
		c0.919-1.446,1.836-2.892,2.755-4.336c0.583,0,0.952-0.076,1.535-0.076c0,3.091,0,6.301,0,9.392c-0.547,0-1.02,0-1.565,0
		c0-2.206,0.141-4.456,0.141-6.662c-0.013,0.007-0.024,0.013-0.037,0.02c-0.962,1.438-1.924,2.879-2.886,4.318
		c-0.056-0.023-0.022,0-0.055-0.039c-0.95-1.426-1.899-2.853-2.848-4.279c-0.007,0-0.013,0-0.013,0
		c-0.006,2.198-0.006,4.399-0.006,6.598c-0.533,0-1.067,0-1.602,0c0-3.09,0-6.182,0-9.271c0.577,0,1.153,0,1.731,0
		C49.624,66.141,50.554,67.6,51.483,69.057z M66.372,64.607c1.354,3.114,2.707,6.232,4.06,9.347c-0.578,0-1.155,0-1.731,0
		c-0.056-0.281-0.797-2.07-0.95-2.225c-1.444,0-2.892,0-4.337,0c-0.315,0.741-0.632,1.482-0.949,2.225c-0.558,0-1.116,0-1.675,0
		c1.353-3.114,2.706-6.232,4.057-9.347C65.355,64.607,65.865,64.607,66.372,64.607z M67.175,70.271c0-0.006,0-0.013,0-0.019
		c-0.533-1.227-1.067-2.456-1.602-3.683c-0.521,1.235-1.042,2.468-1.563,3.701C65.064,70.271,66.12,70.271,67.175,70.271z
		 M81.841,65.486c0.758,0.602,1.165,2.206,0.652,3.403c-0.328,0.762-1.109,1.327-1.974,1.551c0.832,1.17,1.663,2.342,2.496,3.514
		c-0.465,0.004-1.615,0.118-1.957-0.038c-0.744-1.064-1.488-2.13-2.233-3.196c-0.677,0-1.353,0-2.028,0c0,1.078,0,2.156,0,3.235
		c-0.54,0-1.08,0-1.62,0c0-3.09,0-6.182,0-9.271C77.637,64.665,80.462,64.391,81.841,65.486z M76.797,69.263
		c1.696,0.019,3.564,0.242,4.132-0.896c0.085-0.174,0.196-0.481,0.149-0.767c-0.289-1.807-2.264-1.435-4.281-1.421
		C76.797,67.206,76.797,68.235,76.797,69.263z M89.217,69.304c0.029-0.024,0.372-0.035,0.404-0.062
		c1.433-1.519,2.865-3.039,4.298-4.56c0.659,0,1.317,0,1.974,0c-1.279,1.326-2.556,2.655-3.834,3.98
		c1.334,1.764,2.668,3.528,4.003,5.29c-0.302,0.004-1.853,0.07-1.974-0.038c-1.044-1.375-2.085-2.753-3.128-4.13
		c-0.223,0.217-0.447,0.437-0.67,0.654c-0.261,0.28-0.813,0.67-1.073,0.95c0,0.892,0,1.717,0,2.608c-0.541,0-1.024,0-1.565,0
		c0-3.091,0-6.301,0-9.392c0.541,0,1.024,0,1.565,0C89.223,66.152,89.211,67.759,89.217,69.304z M107.476,64.607
		c0,0.486,0,1.079,0,1.565c-1.744,0-3.475,0-5.217,0c0,0.805-0.02,1.575-0.02,2.38c1.544,0,3.09,0,4.632,0c0,0.485,0,0.971,0,1.457
		c-1.542,0-3.089,0-4.632,0c0,0.828,0,1.657,0,2.485c1.762,0,3.523,0,5.284,0c0,0.487,0,0.973,0,1.458c-2.301,0-4.604,0-6.904,0
		c0-3.09,0.073-6.256,0.073-9.347C102.977,64.607,105.194,64.607,107.476,64.607z M118.952,66.178c-0.976,0-1.634-0.005-2.608-0.005
		c0,2.593,0,5.233,0,7.826c-0.546,0-1.021,0-1.565,0c0-2.593,0-5.233,0-7.826c-0.979,0-1.63,0-2.609,0c0-0.499,0-1.065,0-1.565
		c2.5,0,4.283,0,6.783,0C118.952,65.107,118.952,65.68,118.952,66.178z"/>
</g>
</svg>
