<?xml version="1.0" encoding="utf-8"?>
<!-- Generator: Adobe Illustrator 16.0.3, SVG Export Plug-In . SVG Version: 6.00 Build 0)  -->
<!DOCTYPE svg PUBLIC "-//W3C//DTD SVG 1.1//EN" "http://www.w3.org/Graphics/SVG/1.1/DTD/svg11.dtd">
<svg version="1.1" xmlns="http://www.w3.org/2000/svg" xmlns:xlink="http://www.w3.org/1999/xlink" x="0px" y="0px" width="230px"
	 height="100px" viewBox="0 0 230 100" enable-background="new 0 0 230 100" xml:space="preserve">
<g id="guides">
</g>
<g id="Layer_2">
	<g>
		<path fill="#009ABF" d="M103.877,46.186h2.211c0.604,0,1.123,0.228,1.557,0.681c0.432,0.456,0.646,0.965,0.646,1.524v12.662
			c0,3.074-0.885,5.152-2.663,6.231c-1.772,1.081-3.701,1.624-5.777,1.624c-1.124,0-2.228-0.183-3.308-0.555
			c-1.085-0.365-1.949-0.958-2.598-1.783c-1.258-1.602-1.884-3.783-1.884-6.554c0-2.73,0.626-4.912,1.884-6.559
			c1.296-1.688,2.963-2.531,4.996-2.531c1.085,0,2.039,0.216,2.859,0.649c0.863,0.52,1.556,1.189,2.076,2.01V46.186L103.877,46.186z
			 M126.078,67.025c-0.908-0.782-1.556-1.829-1.949-3.153c-0.389-1.317-0.582-2.692-0.582-4.121c0-1.169,0.161-2.337,0.487-3.507
			c0.321-1.168,0.832-2.138,1.523-2.919c1.124-1.296,2.576-2.066,4.348-2.304c1.779-0.238,3.38-0.1,4.809,0.421
			c1.641,0.647,2.854,1.778,3.634,3.379c0.737,1.423,1.103,3.091,1.103,4.997c0,1.383-0.149,2.574-0.454,3.566
			c-0.306,0.997-0.692,1.845-1.168,2.537c-1.036,1.424-2.36,2.311-3.962,2.659c-1.428,0.388-2.863,0.42-4.314,0.1
			C128.101,68.354,126.942,67.8,126.078,67.025L126.078,67.025z M129.191,55.596c-0.907,0.998-1.317,2.482-1.229,4.449
			c0.083,1.967,0.454,3.34,1.103,4.121c0.26,0.349,0.714,0.637,1.362,0.876c0.647,0.238,1.308,0.261,1.979,0.066
			c0.67-0.195,1.267-0.681,1.788-1.463c0.516-0.776,0.797-2.033,0.842-3.762c0-1.563-0.249-2.73-0.747-3.506
			c-0.499-0.782-1.069-1.279-1.718-1.496c-0.648-0.216-1.302-0.227-1.949-0.033C129.973,55.049,129.497,55.297,129.191,55.596
			L129.191,55.596z M119.066,59.884c-0.604,0.306-1.452,0.582-2.532,0.842c-0.997,0.217-1.49,0.327-1.49,0.327
			c-0.78,0.217-1.346,0.499-1.688,0.843c-0.305,0.477-0.454,0.952-0.454,1.429c0,0.648,0.194,1.169,0.581,1.557
			c0.393,0.349,0.953,0.521,1.689,0.521c1.213,0,2.166-0.35,2.858-1.042s1.036-1.64,1.036-2.852V59.884L119.066,59.884z
			 M120.102,67.865c-0.908,0.478-1.872,0.771-2.886,0.882c-1.02,0.104-1.917,0.161-2.697,0.161c-1.557,0-2.92-0.421-4.089-1.269
			c-1.168-0.843-1.75-2.238-1.75-4.189c0-1.815,0.532-3.111,1.59-3.893c1.059-0.776,2.416-1.297,4.055-1.557
			c0.216,0,0.477-0.034,0.781-0.1c0.306-0.063,0.648-0.117,1.036-0.16c1.905-0.261,2.858-0.82,2.858-1.689
			c0-0.648-0.338-1.069-1.009-1.265c-0.67-0.192-1.285-0.293-1.85-0.293c-0.604,0-1.146,0.089-1.623,0.261
			c-0.477,0.171-0.82,0.493-1.036,0.97h-4.349c0.173-1.34,0.776-2.443,1.817-3.313c1.168-0.991,2.836-1.489,4.996-1.489
			c2.426,0,4.244,0.41,5.45,1.235c1.259,0.864,1.884,2.077,1.884,3.633v5.911c0,1.729-0.315,3.085-0.941,4.055
			C121.714,66.73,120.966,67.435,120.102,67.865L120.102,67.865z M96.477,59.818c0,1.733,0.327,3.051,0.975,3.959
			c0.648,0.91,1.579,1.363,2.792,1.363c1.169,0,2.077-0.453,2.726-1.363c0.604-0.908,0.908-2.226,0.908-3.959
			c0-1.558-0.326-2.792-0.975-3.701c-0.691-0.863-1.624-1.296-2.792-1.296c-1.124,0-2.011,0.455-2.659,1.362
			C96.804,57.048,96.477,58.261,96.477,59.818z"/>
		<path fill="#003056" d="M152.175,63.258h3.245c-0.476,1.817-1.385,3.201-2.725,4.154c-1.341,0.997-3.03,1.496-5.063,1.496
			c-2.471,0-4.393-0.803-5.778-2.404c-1.384-1.557-2.076-3.784-2.076-6.686c0-2.771,0.67-4.937,2.011-6.493
			c1.386-1.601,3.313-2.403,5.777-2.403c2.599,0,4.609,0.78,6.039,2.337c0.773,0.953,1.34,2.056,1.683,3.313h-4.542
			c-0.216-0.432-0.432-0.759-0.648-0.977c-0.565-0.604-1.362-0.907-2.404-0.907c-0.946,0-1.729,0.304-2.331,0.907
			c-0.781,0.865-1.169,2.295-1.169,4.288c0,1.988,0.388,3.396,1.169,4.216c0.559,0.691,1.4,1.041,2.531,1.041
			c0.731,0,1.362-0.149,1.878-0.453c0.133-0.045,0.249-0.123,0.359-0.228c0.105-0.111,0.228-0.228,0.354-0.36
			c0.09-0.127,0.261-0.299,0.521-0.515C151.266,63.367,151.654,63.258,152.175,63.258L152.175,63.258z M205.086,46.186h2.21
			c0.604,0,1.125,0.228,1.558,0.681c0.431,0.456,0.647,0.965,0.647,1.524v12.662c0,3.074-0.887,5.152-2.665,6.231
			c-1.772,1.081-3.7,1.624-5.776,1.624c-1.125,0-2.228-0.183-3.308-0.555c-1.086-0.365-1.95-0.958-2.598-1.783
			c-1.258-1.602-1.884-3.783-1.884-6.554c0-2.73,0.626-4.912,1.884-6.559c1.296-1.688,2.963-2.531,4.996-2.531
			c1.086,0,2.038,0.216,2.858,0.649c0.863,0.52,1.557,1.189,2.077,2.01V46.186L205.086,46.186z M197.685,59.818
			c0,1.733,0.327,3.051,0.976,3.959c0.647,0.91,1.579,1.363,2.791,1.363c1.17,0,2.078-0.453,2.727-1.363
			c0.604-0.908,0.908-2.226,0.908-3.959c0-1.558-0.326-2.792-0.976-3.701c-0.692-0.863-1.622-1.296-2.79-1.296
			c-1.126,0-2.013,0.455-2.66,1.362C198.012,57.048,197.685,58.261,197.685,59.818L197.685,59.818z M192.943,51.314V61.44
			c0,3.074-0.804,5.085-2.403,6.038c-1.602,0.954-3.351,1.43-5.257,1.43c-1.861-0.088-3.563-0.604-5.097-1.558
			c-1.534-0.952-2.305-2.923-2.305-5.91V51.314h4.543V62.35c0,1.035,0.305,1.794,0.908,2.271c0.604,0.478,1.296,0.715,2.077,0.715
			s1.485-0.237,2.11-0.715c0.626-0.477,0.941-1.235,0.941-2.271v-8.83l0,0c0-0.604,0.205-1.124,0.615-1.557
			c0.416-0.432,0.941-0.648,1.595-0.648H192.943L192.943,51.314z M163.796,67.025c-0.908-0.782-1.557-1.829-1.95-3.153
			c-0.388-1.317-0.581-2.692-0.581-4.121c0-1.169,0.16-2.337,0.487-3.507c0.321-1.168,0.831-2.138,1.523-2.919
			c1.123-1.296,2.575-2.066,4.348-2.304c1.778-0.238,3.379-0.1,4.809,0.421c1.64,0.647,2.853,1.778,3.634,3.379
			c0.736,1.423,1.103,3.091,1.103,4.997c0,1.383-0.15,2.574-0.455,3.566c-0.305,0.997-0.692,1.845-1.168,2.537
			c-1.035,1.424-2.36,2.311-3.961,2.659c-1.43,0.388-2.864,0.42-4.314,0.1C165.818,68.354,164.66,67.8,163.796,67.025
			L163.796,67.025z M166.908,55.596c-0.908,0.998-1.318,2.482-1.229,4.449c0.083,1.967,0.455,3.34,1.103,4.121
			c0.26,0.349,0.715,0.637,1.362,0.876c0.648,0.238,1.308,0.261,1.978,0.066c0.671-0.195,1.27-0.681,1.79-1.463
			c0.515-0.776,0.797-2.033,0.842-3.762c0-1.563-0.249-2.73-0.748-3.506c-0.498-0.782-1.069-1.279-1.718-1.496
			c-0.647-0.216-1.301-0.227-1.949-0.033C167.69,55.049,167.214,55.297,166.908,55.596L166.908,55.596z M156.328,46.252h2.338
			c0.604,0,1.125,0.205,1.557,0.614c0.432,0.416,0.648,0.92,0.648,1.53v20.185h-4.543V46.252z"/>
		<path fill="#DFE45A" d="M61.866,48.45c0,8.167-3.476,14.787-7.764,14.787s-7.764-6.62-7.764-14.787S54.103,29,54.103,29
			S61.866,40.283,61.866,48.45z"/>
		<path fill="#C4D600" d="M53.747,46.6c4.123,7.048,4.465,14.519,0.765,16.683c-3.702,2.164-10.044-1.795-14.168-8.843
			c-4.123-7.05-3.118-20.71-3.118-20.71S49.624,39.55,53.747,46.6z"/>
		<path fill="#009ABF" d="M39.449,55.474c8.166,0,14.787,3.476,14.787,7.764c0,4.287-6.621,7.763-14.787,7.763S20,63.237,20,63.237
			S31.283,55.474,39.449,55.474z"/>
		<path fill="#4EC1E0" d="M45.064,49.402c7.176,3.901,11.332,10.117,9.285,13.883c-2.047,3.768-9.524,3.661-16.699-0.238
			c-7.175-3.901-13.381-16.11-13.381-16.11S37.891,45.505,45.064,49.402z"/>
		<path fill="#C4D600" d="M54.755,46.6c-4.123,7.048-4.465,14.519-0.765,16.683c3.701,2.164,10.044-1.795,14.167-8.843
			c4.124-7.05,3.119-20.71,3.119-20.71S58.878,39.55,54.755,46.6z"/>
		<path fill="#4EC1E0" d="M63.437,49.402c-7.175,3.901-11.331,10.117-9.284,13.883c2.048,3.768,9.524,3.661,16.699-0.238
			c7.176-3.901,13.382-16.11,13.382-16.11S70.612,45.505,63.437,49.402z"/>
		<path fill="#009ABF" d="M69.052,55.474c-8.166,0-14.786,3.476-14.786,7.764c0,4.287,6.62,7.763,14.786,7.763
			c8.168,0,19.451-7.763,19.451-7.763S77.22,55.474,69.052,55.474z"/>
	</g>
</g>
</svg>
