<?xml version="1.0" encoding="utf-8"?>
<!-- Generator: Adobe Illustrator 16.0.3, SVG Export Plug-In . SVG Version: 6.00 Build 0)  -->
<!DOCTYPE svg PUBLIC "-//W3C//DTD SVG 1.1//EN" "http://www.w3.org/Graphics/SVG/1.1/DTD/svg11.dtd">
<svg version="1.1" xmlns="http://www.w3.org/2000/svg" xmlns:xlink="http://www.w3.org/1999/xlink" x="0px" y="0px" width="416px"
	 height="100px" viewBox="0 0 416 100" enable-background="new 0 0 416 100" xml:space="preserve">
<g id="guides">
</g>
<g id="Layer_2">
	<g>
		<g>
			<g>
				<path fill="#666666" d="M45.906,48.223c0,2.385-0.445,4.441-1.336,6.199c-0.896,1.752-2.068,3.176-3.504,4.307
					c-1.441,1.113-3.07,1.951-4.869,2.502c-1.799,0.563-3.662,0.82-5.59,0.82H19v-1.389c0.381,0,0.879-0.041,1.488-0.1
					c0.609-0.082,1.02-0.164,1.213-0.252c0.398-0.176,0.686-0.428,0.867-0.762c0.17-0.334,0.264-0.738,0.264-1.213V38.104
					c0-0.439-0.076-0.844-0.229-1.195c-0.152-0.357-0.445-0.639-0.902-0.855c-0.404-0.193-0.85-0.334-1.324-0.428
					c-0.469-0.082-0.879-0.152-1.213-0.188v-1.395h12.234c1.688,0,3.352,0.27,4.975,0.779c1.635,0.527,3.053,1.23,4.271,2.109
					c1.641,1.172,2.93,2.701,3.867,4.6S45.906,45.645,45.906,48.223z M41.066,48.211c0-1.881-0.246-3.586-0.738-5.098
					c-0.504-1.523-1.23-2.842-2.197-3.984c-0.908-1.066-2.021-1.922-3.34-2.543c-1.324-0.615-2.795-0.926-4.424-0.926
					c-0.533,0-1.148,0.012-1.816,0.023c-0.691,0.035-1.184,0.047-1.518,0.059v21.521c0,1.201,0.346,2.021,1.049,2.49
					c0.697,0.457,1.77,0.691,3.223,0.691c1.67,0,3.117-0.293,4.383-0.891c1.242-0.592,2.262-1.412,3.035-2.467
					c0.82-1.096,1.418-2.373,1.787-3.838C40.885,51.797,41.066,50.115,41.066,48.211z"/>
			</g>
		</g>
		<g>
			<g>
				<path fill="#666666" d="M63.76,45.1c0,0.674-0.164,1.266-0.492,1.787c-0.334,0.516-0.838,0.785-1.523,0.785
					c-0.738,0-1.307-0.193-1.682-0.58c-0.393-0.375-0.58-0.803-0.58-1.254c0-0.293,0.012-0.557,0.064-0.797
					c0.047-0.229,0.088-0.475,0.123-0.709c-0.615,0-1.342,0.246-2.162,0.744c-0.838,0.51-1.541,1.213-2.121,2.139v11.338
					c0,0.463,0.088,0.838,0.264,1.119c0.182,0.287,0.469,0.504,0.844,0.656c0.328,0.129,0.756,0.234,1.271,0.293
					c0.521,0.064,0.973,0.117,1.348,0.141v1.289h-10.26v-1.289c0.299-0.023,0.615-0.059,0.943-0.082
					c0.316-0.018,0.598-0.076,0.832-0.164c0.363-0.105,0.645-0.322,0.82-0.615c0.182-0.293,0.27-0.674,0.27-1.148V46.734
					c0-0.404-0.094-0.803-0.287-1.207c-0.193-0.393-0.451-0.703-0.803-0.943c-0.252-0.158-0.545-0.27-0.879-0.346
					c-0.352-0.07-0.721-0.117-1.113-0.141v-1.307l6.469-0.428l0.281,0.27v2.754h0.105c0.82-1.072,1.717-1.893,2.719-2.438
					c0.996-0.551,1.922-0.832,2.742-0.832c0.826,0,1.512,0.27,2.027,0.809C63.502,43.471,63.76,44.197,63.76,45.1z"/>
			</g>
		</g>
		<g>
			<g>
				<path fill="#666666" d="M83.863,61.699c-0.621,0.234-1.166,0.41-1.635,0.563c-0.463,0.129-0.996,0.199-1.588,0.199
					c-1.025,0-1.846-0.246-2.455-0.727c-0.615-0.48-1.008-1.172-1.178-2.098h-0.117c-0.855,0.943-1.781,1.67-2.754,2.168
					c-0.984,0.498-2.162,0.75-3.545,0.75c-1.465,0-2.66-0.445-3.604-1.336c-0.943-0.908-1.406-2.074-1.406-3.516
					c0-0.756,0.094-1.43,0.305-2.021c0.217-0.592,0.527-1.131,0.955-1.6c0.322-0.393,0.762-0.744,1.295-1.055
					c0.551-0.305,1.049-0.551,1.523-0.738c0.598-0.223,1.793-0.633,3.604-1.242s3.035-1.084,3.662-1.424v-1.951
					c0-0.176-0.029-0.504-0.1-0.996c-0.076-0.48-0.234-0.938-0.469-1.383c-0.264-0.48-0.633-0.902-1.119-1.271
					c-0.469-0.357-1.16-0.545-2.039-0.545c-0.609,0-1.172,0.105-1.693,0.311c-0.51,0.205-0.885,0.428-1.09,0.645
					c0,0.264,0.059,0.645,0.182,1.154c0.129,0.516,0.193,0.996,0.193,1.441c0,0.451-0.205,0.879-0.627,1.248
					c-0.416,0.393-0.984,0.58-1.723,0.58c-0.662,0-1.148-0.234-1.453-0.703s-0.457-0.99-0.457-1.57c0-0.604,0.211-1.184,0.633-1.74
					c0.434-0.551,0.99-1.037,1.67-1.482c0.604-0.363,1.313-0.68,2.15-0.938c0.844-0.258,1.664-0.375,2.473-0.375
					c1.102,0,2.063,0.07,2.895,0.217c0.82,0.146,1.564,0.486,2.238,0.979c0.668,0.486,1.178,1.154,1.523,1.992
					c0.352,0.82,0.527,1.91,0.527,3.223c0,1.887-0.023,3.551-0.053,5.004c-0.053,1.459-0.064,3.059-0.064,4.77
					c0,0.516,0.088,0.926,0.27,1.225c0.176,0.299,0.445,0.557,0.814,0.768c0.199,0.123,0.51,0.188,0.938,0.199
					c0.434,0.012,0.861,0.023,1.318,0.023V61.699z M76.973,51.287c-1.125,0.322-2.104,0.645-2.947,0.967
					c-0.838,0.305-1.623,0.715-2.35,1.184c-0.656,0.457-1.172,0.984-1.559,1.6c-0.381,0.615-0.574,1.33-0.574,2.186
					c0,1.096,0.287,1.898,0.855,2.414c0.574,0.516,1.307,0.773,2.186,0.773c0.938,0,1.758-0.234,2.467-0.686
					c0.715-0.451,1.313-0.996,1.793-1.611L76.973,51.287z"/>
			</g>
		</g>
		<g>
			<g>
				<path fill="#666666" d="M106.428,62.051h-5.871c-1.025-1.477-2.127-3.07-3.305-4.758c-1.172-1.699-2.385-3.352-3.65-4.951
					l-1.629,1.506v4.617c0,0.475,0.088,0.867,0.264,1.172c0.17,0.322,0.445,0.539,0.832,0.691c0.311,0.129,0.615,0.234,0.902,0.293
					c0.293,0.064,0.621,0.117,1.002,0.141v1.289h-9.527v-1.289c0.293-0.023,0.615-0.059,0.938-0.1
					c0.328-0.023,0.598-0.076,0.82-0.146c0.375-0.105,0.645-0.322,0.826-0.615c0.182-0.299,0.275-0.674,0.275-1.154V36.094
					c0-0.48-0.105-0.943-0.311-1.371s-0.463-0.75-0.791-0.973c-0.281-0.199-0.709-0.352-1.301-0.41
					c-0.58-0.07-1.055-0.117-1.406-0.141v-1.266l7.207-0.434l0.27,0.293v20.602c1.031-1.025,2.145-2.133,3.328-3.305
					c1.207-1.184,2.203-2.227,3.023-3.152c0.1-0.123,0.211-0.275,0.34-0.469c0.129-0.188,0.193-0.352,0.193-0.457
					c0-0.363-0.287-0.621-0.867-0.797c-0.568-0.164-1.119-0.287-1.641-0.352v-1.271h8.561v1.225c-1.102,0.34-2.074,0.75-2.936,1.236
					c-0.85,0.492-1.494,0.943-1.939,1.336c-0.322,0.264-0.768,0.697-1.348,1.283c-0.574,0.586-1.395,1.359-2.432,2.326
					c1.084,1.33,2.303,2.912,3.65,4.775s2.326,3.199,2.947,4.037c0.58,0.768,1.102,1.283,1.564,1.518
					c0.469,0.234,1.125,0.375,2.01,0.434V62.051z"/>
			</g>
		</g>
		<g>
			<g>
				<path fill="#666666" d="M126.455,52.131c0,1.365-0.223,2.713-0.65,4.037c-0.445,1.33-1.066,2.443-1.863,3.363
					c-0.908,1.055-1.963,1.852-3.158,2.361c-1.207,0.51-2.555,0.762-4.043,0.762c-1.236,0-2.414-0.234-3.527-0.703
					c-1.119-0.469-2.115-1.143-2.988-2.045c-0.861-0.885-1.541-1.957-2.051-3.229c-0.498-1.266-0.756-2.689-0.756-4.26
					c0-3.047,0.885-5.543,2.648-7.477c1.793-1.934,4.102-2.895,6.973-2.895c2.736,0,4.98,0.914,6.756,2.754
					C125.559,46.629,126.455,49.078,126.455,52.131z M122.359,52.166c0-0.979-0.094-2.021-0.293-3.129
					c-0.199-1.09-0.492-2.027-0.891-2.789c-0.422-0.82-0.979-1.482-1.658-1.969c-0.686-0.492-1.523-0.744-2.52-0.744
					c-1.014,0-1.875,0.27-2.596,0.756c-0.721,0.498-1.307,1.189-1.758,2.057c-0.416,0.797-0.709,1.717-0.885,2.742
					s-0.252,2.021-0.252,2.982c0,1.266,0.1,2.438,0.305,3.51c0.205,1.066,0.533,2.016,0.973,2.871
					c0.457,0.832,1.02,1.506,1.693,1.98c0.68,0.48,1.523,0.721,2.52,0.721c1.658,0,2.959-0.803,3.926-2.385
					C121.885,57.176,122.359,54.979,122.359,52.166z"/>
			</g>
		</g>
		<g>
			<g>
				<path fill="#666666" d="M150.754,62.051h-9.516v-1.289c0.311-0.023,0.639-0.059,0.996-0.082
					c0.363-0.018,0.668-0.076,0.902-0.164c0.369-0.105,0.639-0.322,0.82-0.615c0.176-0.299,0.264-0.674,0.264-1.154V48.732
					c0-1.389-0.328-2.449-0.979-3.205c-0.656-0.744-1.441-1.113-2.379-1.113c-0.703,0-1.342,0.105-1.928,0.328
					c-0.58,0.211-1.096,0.48-1.541,0.785c-0.439,0.311-0.785,0.633-1.043,0.984c-0.252,0.352-0.445,0.633-0.563,0.832v11.209
					c0,0.439,0.1,0.814,0.275,1.096c0.182,0.293,0.463,0.516,0.826,0.68c0.281,0.129,0.58,0.234,0.902,0.293
					c0.322,0.064,0.656,0.117,1.002,0.141v1.289h-9.545v-1.289c0.311-0.023,0.615-0.059,0.949-0.082
					c0.316-0.018,0.598-0.076,0.838-0.164c0.357-0.105,0.639-0.322,0.814-0.615c0.182-0.293,0.264-0.674,0.264-1.148V46.734
					c0-0.445-0.088-0.855-0.287-1.23c-0.188-0.369-0.451-0.68-0.791-0.92c-0.252-0.158-0.557-0.27-0.891-0.346
					c-0.346-0.07-0.721-0.117-1.107-0.141v-1.307l6.48-0.428l0.27,0.27v2.754h0.105c0.316-0.328,0.703-0.703,1.184-1.148
					c0.469-0.434,0.914-0.803,1.342-1.066c0.486-0.322,1.061-0.586,1.74-0.797c0.662-0.211,1.418-0.316,2.262-0.316
					c1.875,0,3.258,0.586,4.16,1.746c0.902,1.172,1.354,2.719,1.354,4.652v10.131c0,0.463,0.082,0.838,0.234,1.107
					c0.152,0.293,0.434,0.516,0.803,0.674c0.328,0.135,0.598,0.217,0.82,0.27c0.234,0.053,0.551,0.1,0.961,0.123V62.051z"/>
			</g>
		</g>
		<g>
			<g>
				<path fill="#666666" d="M165.18,61.219c-0.867,0.352-1.682,0.65-2.438,0.891c-0.762,0.252-1.705,0.369-2.813,0.369
					c-1.623,0-2.771-0.416-3.439-1.236c-0.662-0.832-0.996-1.98-0.996-3.486V44.566h-3.516v-1.893h3.604v-6.064h3.58v6.064h5.596
					v1.893h-5.549v10.881c0,0.82,0.029,1.494,0.094,2.051c0.053,0.545,0.199,1.014,0.416,1.424c0.211,0.387,0.539,0.668,0.949,0.879
					c0.422,0.188,0.984,0.293,1.699,0.293c0.328,0,0.809-0.035,1.453-0.094c0.633-0.059,1.084-0.135,1.359-0.223V61.219z"/>
			</g>
		</g>
		<g>
			<g>
				<path fill="#666666" d="M185.553,61.699c-0.615,0.234-1.172,0.41-1.635,0.563c-0.457,0.129-0.984,0.199-1.588,0.199
					c-1.025,0-1.846-0.246-2.461-0.727s-0.996-1.172-1.172-2.098h-0.117c-0.855,0.943-1.781,1.67-2.754,2.168
					c-0.979,0.498-2.162,0.75-3.545,0.75c-1.465,0-2.666-0.445-3.609-1.336c-0.938-0.908-1.4-2.074-1.4-3.516
					c0-0.756,0.094-1.43,0.316-2.021c0.205-0.592,0.521-1.131,0.943-1.6c0.328-0.393,0.756-0.744,1.295-1.055
					c0.551-0.305,1.049-0.551,1.518-0.738c0.598-0.223,1.793-0.633,3.609-1.242c1.811-0.609,3.023-1.084,3.668-1.424v-1.951
					c0-0.176-0.035-0.504-0.117-0.996c-0.07-0.48-0.234-0.938-0.457-1.383c-0.27-0.48-0.639-0.902-1.125-1.271
					c-0.469-0.357-1.154-0.545-2.033-0.545c-0.609,0-1.172,0.105-1.699,0.311c-0.51,0.205-0.879,0.428-1.084,0.645
					c0,0.264,0.059,0.645,0.182,1.154c0.123,0.516,0.193,0.996,0.193,1.441c0,0.451-0.205,0.879-0.621,1.248
					c-0.422,0.393-0.99,0.58-1.734,0.58c-0.656,0-1.137-0.234-1.453-0.703c-0.305-0.469-0.463-0.99-0.463-1.57
					c0-0.604,0.211-1.184,0.645-1.74c0.428-0.551,0.99-1.037,1.664-1.482c0.598-0.363,1.307-0.68,2.162-0.938
					c0.832-0.258,1.652-0.375,2.467-0.375c1.107,0,2.063,0.07,2.883,0.217c0.838,0.146,1.576,0.486,2.244,0.979
					c0.668,0.486,1.184,1.154,1.529,1.992c0.352,0.82,0.527,1.91,0.527,3.223c0,1.887-0.018,3.551-0.059,5.004
					c-0.035,1.459-0.064,3.059-0.064,4.77c0,0.516,0.088,0.926,0.275,1.225c0.17,0.299,0.451,0.557,0.82,0.768
					c0.199,0.123,0.498,0.188,0.938,0.199c0.416,0.012,0.861,0.023,1.313,0.023V61.699z M178.662,51.287
					c-1.131,0.322-2.109,0.645-2.947,0.967c-0.85,0.305-1.629,0.715-2.35,1.184c-0.65,0.457-1.172,0.984-1.553,1.6
					c-0.398,0.615-0.58,1.33-0.58,2.186c0,1.096,0.287,1.898,0.867,2.414c0.563,0.516,1.289,0.773,2.18,0.773
					c0.926,0,1.752-0.234,2.461-0.686s1.313-0.996,1.805-1.611L178.662,51.287z"/>
			</g>
		</g>
		<g>
			<g>
				<path fill="#666666" d="M200.336,52.518c0.539,0.486,0.949,1.025,1.236,1.641c0.305,0.621,0.445,1.377,0.445,2.279
					c0,1.805-0.674,3.27-2.021,4.43c-1.348,1.143-3.105,1.705-5.244,1.705c-1.143,0-2.174-0.205-3.129-0.604
					c-0.967-0.41-1.635-0.797-2.045-1.131l-0.398,1.283h-1.482l-0.193-6.773h1.365c0.1,0.516,0.334,1.125,0.668,1.805
					s0.756,1.313,1.236,1.869c0.521,0.568,1.137,1.072,1.846,1.459c0.727,0.398,1.523,0.592,2.426,0.592
					c1.266,0,2.244-0.287,2.912-0.861c0.691-0.574,1.031-1.395,1.031-2.461c0-0.574-0.1-1.043-0.311-1.441
					c-0.234-0.41-0.551-0.762-0.967-1.061c-0.422-0.299-0.961-0.58-1.605-0.82c-0.621-0.24-1.324-0.475-2.098-0.721
					c-0.621-0.176-1.313-0.428-2.074-0.756c-0.756-0.334-1.4-0.697-1.945-1.137c-0.574-0.463-1.055-1.025-1.424-1.699
					s-0.545-1.447-0.545-2.373c0-1.582,0.586-2.93,1.775-4.043c1.184-1.107,2.771-1.652,4.752-1.652c0.773,0,1.553,0.1,2.344,0.293
					c0.809,0.193,1.436,0.434,1.945,0.709l0.457-1.037h1.412l0.311,6.264h-1.371c-0.27-1.4-0.873-2.537-1.781-3.41
					c-0.914-0.879-2.039-1.33-3.352-1.33c-1.078,0-1.928,0.275-2.549,0.82c-0.615,0.545-0.932,1.207-0.932,1.969
					c0,0.598,0.111,1.09,0.316,1.477c0.205,0.398,0.504,0.732,0.914,1.008c0.398,0.27,0.891,0.516,1.494,0.744
					c0.592,0.24,1.33,0.486,2.221,0.779c0.867,0.281,1.682,0.604,2.461,0.973C199.188,51.668,199.832,52.078,200.336,52.518z"/>
			</g>
		</g>
		<g>
			<g>
				<path fill="#439E3F" d="M217.803,62.73c-1.682,0-3.275-0.328-4.799-0.984c-1.547-0.656-2.9-1.605-4.072-2.842
					c-1.178-1.248-2.115-2.754-2.813-4.541s-1.037-3.797-1.037-6.035c0-2.232,0.334-4.277,1.02-6.094
					c0.68-1.828,1.623-3.398,2.848-4.711c1.184-1.313,2.613-2.314,4.23-3.023c1.635-0.703,3.387-1.066,5.238-1.066
					c1.383,0,2.625,0.176,3.738,0.51c1.113,0.346,2.18,0.838,3.199,1.447l0.809-1.348h1.576l0.182,9.996h-1.623
					c-0.205-0.979-0.527-2.039-0.943-3.164c-0.422-1.148-0.914-2.109-1.482-2.906c-0.621-0.891-1.383-1.594-2.25-2.098
					c-0.861-0.504-1.852-0.756-2.965-0.756c-1.271,0-2.461,0.275-3.568,0.85c-1.096,0.557-2.051,1.4-2.854,2.508
					c-0.756,1.066-1.354,2.42-1.787,4.066c-0.439,1.652-0.656,3.48-0.656,5.508c0,1.805,0.223,3.445,0.68,4.939
					c0.451,1.494,1.102,2.813,1.951,3.943c0.826,1.113,1.84,1.992,2.988,2.619c1.154,0.645,2.432,0.955,3.861,0.955
					c1.061,0,2.021-0.17,2.924-0.504c0.896-0.334,1.676-0.773,2.338-1.33c0.65-0.586,1.23-1.248,1.723-1.975
					c0.516-0.75,0.902-1.541,1.225-2.414l1.482,0.715c-1.125,2.777-2.631,4.758-4.488,5.953
					C222.602,62.145,220.381,62.73,217.803,62.73z"/>
			</g>
		</g>
		<g>
			<g>
				<path fill="#439E3F" d="M249.918,52.131c0,1.365-0.211,2.713-0.65,4.037c-0.428,1.33-1.061,2.443-1.857,3.363
					c-0.902,1.055-1.969,1.852-3.164,2.361c-1.213,0.51-2.537,0.762-4.043,0.762c-1.236,0-2.414-0.234-3.527-0.703
					c-1.119-0.469-2.109-1.143-2.988-2.045c-0.844-0.885-1.535-1.957-2.051-3.229c-0.498-1.266-0.756-2.689-0.756-4.26
					c0-3.047,0.896-5.543,2.666-7.477s4.096-2.895,6.967-2.895c2.725,0,4.975,0.914,6.738,2.754
					C249.027,46.629,249.918,49.078,249.918,52.131z M245.822,52.166c0-0.979-0.094-2.021-0.293-3.129
					c-0.193-1.09-0.486-2.027-0.891-2.789c-0.416-0.82-0.961-1.482-1.658-1.969c-0.686-0.492-1.512-0.744-2.502-0.744
					c-1.02,0-1.881,0.27-2.619,0.756c-0.709,0.498-1.301,1.189-1.734,2.057c-0.434,0.797-0.727,1.717-0.891,2.742
					c-0.17,1.025-0.258,2.021-0.258,2.982c0,1.266,0.094,2.438,0.299,3.51c0.205,1.066,0.533,2.016,0.984,2.871
					c0.445,0.832,1.014,1.506,1.682,1.98c0.691,0.48,1.518,0.721,2.537,0.721c1.641,0,2.947-0.803,3.902-2.385
					C245.354,57.176,245.822,54.979,245.822,52.166z"/>
			</g>
		</g>
		<g>
			<g>
				<path fill="#439E3F" d="M274.234,62.051h-9.521v-1.289c0.293-0.023,0.627-0.059,0.996-0.082
					c0.357-0.018,0.662-0.076,0.896-0.164c0.369-0.105,0.627-0.322,0.82-0.615c0.176-0.299,0.258-0.674,0.258-1.154V48.732
					c0-1.389-0.328-2.449-0.979-3.205c-0.662-0.744-1.447-1.113-2.385-1.113c-0.697,0-1.33,0.105-1.922,0.328
					c-0.58,0.211-1.084,0.48-1.535,0.785c-0.445,0.311-0.779,0.633-1.049,0.984c-0.258,0.352-0.434,0.633-0.551,0.832v11.209
					c0,0.439,0.088,0.814,0.264,1.096c0.188,0.293,0.469,0.516,0.844,0.68c0.264,0.129,0.568,0.234,0.902,0.293
					c0.305,0.064,0.633,0.117,0.984,0.141v1.289h-9.539v-1.289c0.311-0.023,0.609-0.059,0.938-0.082
					c0.316-0.018,0.604-0.076,0.844-0.164c0.369-0.105,0.633-0.322,0.82-0.615c0.176-0.293,0.258-0.674,0.258-1.148V46.734
					c0-0.445-0.088-0.855-0.281-1.23c-0.199-0.369-0.457-0.68-0.797-0.92c-0.246-0.158-0.551-0.27-0.891-0.346
					c-0.34-0.07-0.703-0.117-1.107-0.141v-1.307l6.475-0.428l0.287,0.27v2.754h0.088c0.322-0.328,0.703-0.703,1.184-1.148
					c0.486-0.434,0.92-0.803,1.348-1.066c0.492-0.322,1.072-0.586,1.734-0.797s1.43-0.316,2.268-0.316
					c1.875,0,3.264,0.586,4.166,1.746c0.902,1.172,1.359,2.719,1.359,4.652v10.131c0,0.463,0.07,0.838,0.234,1.107
					c0.141,0.293,0.422,0.516,0.797,0.674c0.322,0.135,0.598,0.217,0.82,0.27c0.24,0.053,0.563,0.1,0.973,0.123V62.051z"/>
			</g>
		</g>
		<g>
			<g>
				<path fill="#439E3F" d="M289.463,52.518c0.533,0.486,0.967,1.025,1.248,1.641c0.293,0.621,0.428,1.377,0.428,2.279
					c0,1.805-0.668,3.27-2.016,4.43c-1.354,1.143-3.105,1.705-5.244,1.705c-1.143,0-2.174-0.205-3.129-0.604
					c-0.961-0.41-1.641-0.797-2.039-1.131l-0.404,1.283h-1.482l-0.199-6.773h1.371c0.105,0.516,0.334,1.125,0.668,1.805
					c0.34,0.68,0.756,1.313,1.242,1.869c0.527,0.568,1.137,1.072,1.84,1.459c0.738,0.398,1.523,0.592,2.426,0.592
					c1.266,0,2.244-0.287,2.918-0.861c0.686-0.574,1.043-1.395,1.043-2.461c0-0.574-0.117-1.043-0.328-1.441
					c-0.223-0.41-0.551-0.762-0.967-1.061c-0.422-0.299-0.955-0.58-1.6-0.82c-0.627-0.24-1.33-0.475-2.104-0.721
					c-0.615-0.176-1.313-0.428-2.074-0.756c-0.756-0.334-1.406-0.697-1.939-1.137c-0.58-0.463-1.066-1.025-1.43-1.699
					s-0.539-1.447-0.539-2.373c0-1.582,0.586-2.93,1.77-4.043c1.184-1.107,2.777-1.652,4.752-1.652c0.768,0,1.553,0.1,2.344,0.293
					c0.809,0.193,1.436,0.434,1.957,0.709l0.451-1.037h1.406l0.311,6.264h-1.377c-0.264-1.4-0.867-2.537-1.77-3.41
					c-0.914-0.879-2.045-1.33-3.357-1.33c-1.078,0-1.934,0.275-2.549,0.82s-0.914,1.207-0.914,1.969c0,0.598,0.094,1.09,0.299,1.477
					c0.205,0.398,0.498,0.732,0.908,1.008c0.404,0.27,0.891,0.516,1.5,0.744c0.598,0.24,1.336,0.486,2.221,0.779
					c0.861,0.281,1.682,0.604,2.461,0.973C288.344,51.668,288.965,52.078,289.463,52.518z"/>
			</g>
		</g>
		<g>
			<g>
				<path fill="#439E3F" d="M314.963,61.699l-6.357,0.445l-0.293-0.281v-2.467h-0.123c-0.322,0.328-0.68,0.68-1.061,1.061
					c-0.404,0.363-0.855,0.715-1.359,1.02c-0.604,0.352-1.178,0.621-1.717,0.803c-0.568,0.182-1.342,0.275-2.361,0.275
					c-1.705,0-3.018-0.563-3.914-1.688c-0.902-1.125-1.359-2.754-1.359-4.898v-9.311c0-0.469-0.082-0.861-0.27-1.195
					c-0.176-0.328-0.445-0.592-0.785-0.838c-0.24-0.164-0.533-0.27-0.902-0.346c-0.34-0.064-0.727-0.123-1.119-0.141v-1.307
					l6.492-0.469l0.293,0.27V56.15c0,1.424,0.322,2.479,0.943,3.193c0.645,0.703,1.395,1.066,2.285,1.066
					c0.709,0,1.359-0.117,1.934-0.34c0.563-0.229,1.025-0.492,1.406-0.785c0.357-0.281,0.68-0.574,0.938-0.879
					c0.281-0.305,0.48-0.598,0.639-0.867V46.512c0-0.422-0.105-0.809-0.281-1.143c-0.193-0.334-0.445-0.621-0.773-0.861
					c-0.24-0.152-0.58-0.252-1.061-0.287c-0.457-0.029-0.984-0.064-1.564-0.082v-1.307l7.09-0.469l0.293,0.27v15.445
					c0,0.445,0.088,0.826,0.281,1.148c0.176,0.305,0.445,0.574,0.773,0.809c0.223,0.135,0.51,0.234,0.838,0.275
					s0.691,0.082,1.096,0.1V61.699z"/>
			</g>
		</g>
		<g>
			<g>
				<path fill="#439E3F" d="M326.465,62.051h-9.492v-1.289c0.299-0.023,0.621-0.059,0.961-0.1c0.352-0.023,0.633-0.076,0.855-0.146
					c0.363-0.105,0.65-0.322,0.826-0.615c0.193-0.299,0.275-0.674,0.275-1.154v-22.57c0-0.475-0.094-0.914-0.299-1.33
					s-0.475-0.744-0.803-0.979c-0.246-0.158-0.668-0.305-1.313-0.434c-0.621-0.135-1.119-0.211-1.518-0.234v-1.266l7.33-0.434
					l0.281,0.293v26.719c0,0.469,0.088,0.832,0.258,1.125c0.164,0.305,0.445,0.527,0.826,0.691c0.287,0.129,0.568,0.234,0.855,0.293
					c0.287,0.064,0.609,0.117,0.955,0.141V62.051z"/>
			</g>
		</g>
		<g>
			<g>
				<path fill="#439E3F" d="M340.938,61.219c-0.855,0.352-1.658,0.65-2.426,0.891c-0.768,0.252-1.693,0.369-2.801,0.369
					c-1.629,0-2.777-0.416-3.439-1.236c-0.662-0.832-1.014-1.98-1.014-3.486V44.566h-3.498v-1.893h3.58v-6.064h3.598v6.064h5.59
					v1.893h-5.543v10.881c0,0.82,0.035,1.494,0.082,2.051c0.07,0.545,0.199,1.014,0.422,1.424c0.223,0.387,0.527,0.668,0.961,0.879
					c0.416,0.188,0.984,0.293,1.688,0.293c0.328,0,0.814-0.035,1.441-0.094c0.656-0.059,1.102-0.135,1.359-0.223V61.219z"/>
			</g>
		</g>
		<g>
			<g>
				<path fill="#439E3F" d="M352.328,62.051h-9.422v-1.289c0.316-0.023,0.615-0.059,0.943-0.082c0.322-0.018,0.609-0.076,0.85-0.164
					c0.369-0.105,0.633-0.322,0.814-0.615c0.176-0.293,0.264-0.674,0.264-1.148V46.734c0-0.428-0.088-0.803-0.287-1.148
					c-0.182-0.352-0.463-0.645-0.791-0.879c-0.246-0.158-0.615-0.293-1.096-0.41c-0.463-0.105-0.902-0.176-1.307-0.199v-1.307
					l6.879-0.428l0.281,0.27v15.879c0,0.469,0.082,0.838,0.252,1.137c0.193,0.311,0.457,0.527,0.85,0.68
					c0.287,0.117,0.551,0.211,0.832,0.293c0.281,0.064,0.586,0.117,0.938,0.141V62.051z M349.844,34.676
					c0,0.756-0.252,1.406-0.738,1.963c-0.504,0.557-1.107,0.85-1.816,0.85c-0.691,0-1.266-0.27-1.758-0.809
					c-0.492-0.527-0.744-1.137-0.744-1.828c0-0.727,0.252-1.348,0.744-1.887c0.492-0.545,1.066-0.809,1.758-0.809
					c0.744,0,1.359,0.246,1.84,0.756C349.598,33.416,349.844,34.002,349.844,34.676z"/>
			</g>
		</g>
		<g>
			<g>
				<path fill="#439E3F" d="M376.234,62.051h-9.516v-1.289c0.299-0.023,0.627-0.059,0.984-0.082
					c0.369-0.018,0.662-0.076,0.902-0.164c0.375-0.105,0.639-0.322,0.82-0.615c0.176-0.299,0.258-0.674,0.258-1.154V48.732
					c0-1.389-0.322-2.449-0.984-3.205c-0.65-0.744-1.43-1.113-2.379-1.113c-0.691,0-1.324,0.105-1.916,0.328
					c-0.58,0.211-1.084,0.48-1.541,0.785c-0.439,0.311-0.773,0.633-1.043,0.984c-0.252,0.352-0.434,0.633-0.551,0.832v11.209
					c0,0.439,0.088,0.814,0.264,1.096c0.188,0.293,0.475,0.516,0.838,0.68c0.27,0.129,0.574,0.234,0.902,0.293
					c0.311,0.064,0.639,0.117,0.99,0.141v1.289h-9.545v-1.289c0.316-0.023,0.615-0.059,0.938-0.082
					c0.328-0.018,0.609-0.076,0.85-0.164c0.369-0.105,0.633-0.322,0.82-0.615c0.17-0.293,0.258-0.674,0.258-1.148V46.734
					c0-0.445-0.088-0.855-0.287-1.23c-0.199-0.369-0.451-0.68-0.791-0.92c-0.264-0.158-0.557-0.27-0.891-0.346
					c-0.34-0.07-0.703-0.117-1.107-0.141v-1.307l6.475-0.428l0.287,0.27v2.754h0.088c0.322-0.328,0.709-0.703,1.184-1.148
					c0.486-0.434,0.92-0.803,1.348-1.066c0.492-0.322,1.072-0.586,1.74-0.797c0.656-0.211,1.424-0.316,2.262-0.316
					c1.875,0,3.264,0.586,4.166,1.746c0.902,1.172,1.348,2.719,1.348,4.652v10.131c0,0.463,0.088,0.838,0.229,1.107
					c0.158,0.293,0.439,0.516,0.809,0.674c0.328,0.135,0.604,0.217,0.82,0.27c0.234,0.053,0.563,0.1,0.973,0.123V62.051z"/>
			</g>
		</g>
		<g>
			<g>
				<path fill="#439E3F" d="M395.301,60.047c0.516,0.498,0.949,1.066,1.248,1.699c0.293,0.633,0.451,1.418,0.451,2.355
					c0,0.926-0.199,1.805-0.609,2.625c-0.41,0.826-1.031,1.535-1.857,2.139c-0.891,0.627-1.934,1.107-3.158,1.447
					c-1.23,0.352-2.742,0.516-4.547,0.516c-2.953,0-5.162-0.422-6.609-1.289c-1.465-0.867-2.203-2.121-2.203-3.785
					c0-1.342,0.527-2.402,1.594-3.182c1.055-0.768,2.385-1.189,4.02-1.26v-0.281c-0.404-0.117-0.809-0.27-1.23-0.434
					c-0.41-0.188-0.773-0.387-1.066-0.633c-0.363-0.27-0.627-0.592-0.832-0.973c-0.223-0.381-0.322-0.832-0.322-1.395
					c0-0.691,0.24-1.33,0.744-1.916c0.486-0.604,1.236-1.096,2.227-1.523v-0.293c-1.248-0.586-2.227-1.348-2.93-2.268
					c-0.697-0.938-1.055-2.01-1.055-3.24c0-1.846,0.691-3.357,2.074-4.541c1.365-1.184,3.129-1.77,5.268-1.77
					c0.604,0,1.189,0.059,1.764,0.176c0.604,0.117,1.189,0.27,1.799,0.451h6.803v1.893h-4.594v0.117
					c0.492,0.568,0.855,1.195,1.078,1.875c0.24,0.686,0.363,1.359,0.363,2.016c0,1.717-0.691,3.164-2.086,4.354
					c-1.389,1.172-3,1.775-4.84,1.775h-2.391c-0.311,0.1-0.609,0.293-0.943,0.568c-0.328,0.275-0.498,0.65-0.498,1.131
					s0.135,0.855,0.422,1.113c0.275,0.252,0.609,0.434,0.996,0.527c0.393,0.1,0.82,0.158,1.336,0.188
					c0.498,0.029,1.025,0.047,1.57,0.059c0.574,0.012,1.377,0.059,2.379,0.117c1.008,0.07,1.711,0.105,2.139,0.117
					c0.609,0.029,1.213,0.176,1.834,0.439C394.246,59.227,394.791,59.59,395.301,60.047z M393.76,64.822
					c0-0.732-0.17-1.33-0.521-1.811c-0.34-0.475-0.844-0.797-1.559-0.973c-0.352-0.047-1.125-0.105-2.262-0.176
					c-1.154-0.059-2.473-0.094-3.984-0.094c-1.43,0.27-2.438,0.738-3.035,1.389c-0.609,0.65-0.902,1.488-0.902,2.514
					c0,0.469,0.094,0.902,0.293,1.324c0.199,0.428,0.539,0.809,1.025,1.166c0.475,0.334,1.096,0.621,1.869,0.844
					c0.762,0.211,1.729,0.328,2.842,0.328c1.928,0,3.451-0.381,4.564-1.131C393.191,67.477,393.76,66.346,393.76,64.822z
					 M389.98,48.504c0-1.547-0.322-2.766-0.949-3.691c-0.633-0.908-1.506-1.377-2.648-1.377c-0.615,0-1.143,0.141-1.576,0.393
					c-0.445,0.258-0.803,0.627-1.084,1.102c-0.258,0.422-0.434,0.949-0.551,1.57c-0.117,0.604-0.164,1.242-0.164,1.881
					c0,1.459,0.299,2.643,0.949,3.568c0.645,0.92,1.465,1.389,2.473,1.389c1.137,0,2.004-0.469,2.619-1.377
					C389.664,51.047,389.98,49.898,389.98,48.504z"/>
			</g>
		</g>
	</g>
</g>
</svg>
