<?xml version="1.0" encoding="utf-8"?>
<!-- Generator: Adobe Illustrator 16.0.3, SVG Export Plug-In . SVG Version: 6.00 Build 0)  -->
<!DOCTYPE svg PUBLIC "-//W3C//DTD SVG 1.1//EN" "http://www.w3.org/Graphics/SVG/1.1/DTD/svg11.dtd">
<svg version="1.1" xmlns="http://www.w3.org/2000/svg" xmlns:xlink="http://www.w3.org/1999/xlink" x="0px" y="0px" width="168px"
	 height="100px" viewBox="0 0 168 100" enable-background="new 0 0 168 100" xml:space="preserve">
<g id="guides">
</g>
<g id="Layer_2">
	<g>
		<g>
			<g>
				<path fill-rule="evenodd" clip-rule="evenodd" fill="#C71E1E" d="M54.953,74c0.682-3.252,1.363-6.443,2.055-9.73
					c-12.341,0-24.611,0-36.992,0c0.061-0.57,0.07-1.056,0.167-1.52c0.737-3.706,1.494-7.413,2.252-11.119
					c0.691-3.353,1.398-6.716,2.095-10.078c0.849-4.161,1.672-8.316,2.521-12.478c0.08-0.404,0.197-0.808,0.303-1.232
					c12.427,0,24.823,0,37.32,0c-0.565,2.682-1.131,5.322-1.696,8.004c-8.332,0-16.628,0-24.99,0
					c-0.403,2.101-0.792,4.16-1.206,6.307c7.362,0,14.653,0,22.025,0c-0.546,2.605-1.076,5.115-1.616,7.675
					c-7.321,0-14.639,0-22.035,0c-0.399,2.146-0.788,4.257-1.191,6.429c8.291,0,16.511,0,24.752,0
					c1.434-6.747,2.868-13.473,4.302-20.229c3.58,0,7.13,0,10.7,0c-0.258,1.227-0.505,2.403-0.788,3.731
					c0.823-0.611,1.489-1.161,2.196-1.646c2.429-1.666,5.146-2.51,8.069-2.802c2.459-0.242,4.888-0.025,7.256,0.631
					c4.01,1.11,6.802,3.51,7.807,7.69c0.136,0.535,0.187,1.091,0.409,1.65c0.666-3.08,1.322-6.175,1.984-9.265
					c3.69,0,7.321,0,11.013,0c-0.712,3.337-1.404,6.614-2.131,10.038c0.747-1.177,1.368-2.257,2.101-3.263
					c1.787-2.458,4.171-4.181,6.907-5.473c2.54-1.202,5.241-1.899,8.009-2.223c2.908-0.343,5.842-0.403,8.786-0.11
					c2.277,0.232,4.499,0.621,6.635,1.464c4.227,1.687,6.378,5.227,5.969,9.539c-3.737,0-7.483,0-11.17,0
					c-0.368-0.732-0.596-1.586-1.141-2.121c-0.606-0.621-1.435-1.162-2.272-1.379c-3.636-0.975-8.372-0.515-11.108,2.898
					c-2.192,2.742-3.182,5.872-2.061,9.367c0.505,1.58,1.752,2.52,3.292,2.949c2.924,0.822,5.787,0.66,8.514-0.809
					c1.55-0.833,2.605-2.126,3.393-3.636c3.873,0,7.711,0,11.624,0c-0.919,2.07-2.06,3.924-3.555,5.58
					c-2.636,2.929-5.969,4.635-9.735,5.609c-3.857,1.005-7.791,1.086-11.715,0.879c-2.994-0.167-5.933-0.707-8.654-2.136
					c-3.171-1.656-4.989-4.201-5.357-7.776c-0.035-0.293-0.076-0.591-0.105-0.894c-0.011-0.021-0.031-0.036-0.117-0.151
					c-0.722,3.333-1.413,6.584-2.105,9.846c-3.665,0-7.266,0-10.998,0c0.627-2.979,1.237-5.893,1.849-8.806
					c-0.025-0.016-0.056-0.035-0.086-0.056c-0.419,0.637-0.813,1.288-1.257,1.909c-2.525,3.523-5.903,5.857-10.008,7.175
					c-2.798,0.894-5.671,1.141-8.554,0.889c-3-0.253-5.853-1.061-8.004-3.717c-0.903,4.217-1.772,8.292-2.65,12.387
					C62.295,74,58.689,74,54.953,74z M87.093,48.243c0.151-2.884-1.571-4.443-3.742-5.015c-1.419-0.368-2.883-0.435-4.357-0.242
					c-2.601,0.333-4.802,1.368-6.383,3.524c-1.171,1.605-1.727,3.439-1.797,5.408c-0.086,2.555,1.156,4.297,3.585,5.084
					c1.58,0.516,3.191,0.485,4.821,0.304c1.586-0.177,3.035-0.677,4.308-1.621C86.021,53.833,86.931,51.217,87.093,48.243z"/>
			</g>
			<g>
				<path fill-rule="evenodd" clip-rule="evenodd" fill="#C71E1E" d="M101.382,32.595c0.46-2.207,0.92-4.383,1.39-6.595
					c3.655,0,7.296,0,11.013,0c-0.46,2.212-0.93,4.373-1.394,6.595C108.76,32.595,105.114,32.595,101.382,32.595z"/>
			</g>
		</g>
	</g>
</g>
</svg>
