<?xml version="1.0" encoding="utf-8"?>
<!-- Generator: Adobe Illustrator 16.0.3, SVG Export Plug-In . SVG Version: 6.00 Build 0)  -->
<!DOCTYPE svg PUBLIC "-//W3C//DTD SVG 1.1//EN" "http://www.w3.org/Graphics/SVG/1.1/DTD/svg11.dtd">
<svg version="1.1" xmlns="http://www.w3.org/2000/svg" xmlns:xlink="http://www.w3.org/1999/xlink" x="0px" y="0px" width="248px"
	 height="100px" viewBox="0 0 248 100" enable-background="new 0 0 248 100" xml:space="preserve">
<g id="guides">
</g>
<g id="Layer_2">
	<g>
		<g>
			<path fill="#0C6E77" d="M106.917,38.742c-0.891-0.948-2.138-1.523-3.757-1.523c-3.385,0-5.41,2.664-5.41,5.693
				c0,3.028,2.025,5.691,5.41,5.691c1.36,0,2.658-0.373,3.645-0.932v-4.405h-3.137v-1.23h4.473v6.461
				c-1.467,0.868-3.384,1.331-4.98,1.331c-3.92,0-6.865-2.917-6.865-6.916c0-4.006,2.945-6.923,6.865-6.923
				c2.087,0,3.588,0.599,4.768,1.767L106.917,38.742z"/>
		</g>
		<g>
			<path fill="#0C6E77" d="M111.565,45.479c0.147,1.749,1.468,3.125,3.193,3.125c1.303,0,2.313-0.729,2.793-1.501l0.953,0.772
				c-1.026,1.3-2.308,1.846-3.746,1.846c-2.584,0-4.501-1.957-4.501-4.582c0-2.622,1.917-4.569,4.394-4.569
				c2.641,0.012,4.17,1.969,4.17,4.345v0.564H111.565z M117.479,44.474c0-1.658-1.062-2.787-2.827-2.787
				c-1.601,0-3.052,1.354-3.052,2.787H117.479z"/>
		</g>
		<g>
			<path fill="#0C6E77" d="M121.71,40.789c0.056,0.465,0.056,0.932,0.056,1.395h0.038c0.544-0.947,1.768-1.614,2.918-1.614
				c2.211,0,3.276,1.242,3.276,3.396v5.529h-1.223v-4.818c0-1.936-0.542-2.99-2.363-2.99c-0.261,0-2.646,0.17-2.646,3.34v4.469
				h-1.225v-6.786c0-0.47-0.057-1.287-0.091-1.92H121.71z"/>
		</g>
		<g>
			<path fill="#0C6E77" d="M131.232,45.479c0.146,1.749,1.467,3.125,3.193,3.125c1.302,0,2.313-0.729,2.793-1.501l0.952,0.772
				c-1.026,1.3-2.308,1.846-3.745,1.846c-2.584,0-4.503-1.957-4.503-4.582c0-2.622,1.919-4.569,4.395-4.569
				c2.64,0.012,4.17,1.969,4.17,4.345v0.564H131.232z M137.145,44.474c0-1.658-1.061-2.787-2.827-2.787
				c-1.597,0-3.052,1.354-3.052,2.787H137.145z"/>
		</g>
		<g>
			<path fill="#0C6E77" d="M140.834,43.504c0-0.778-0.034-1.455-0.079-2.715h1.219v1.615h0.033c0.35-0.932,1.264-1.835,2.792-1.835
				c0.351,0,0.649,0.029,0.909,0.113l-0.236,1.196c-0.153-0.046-0.378-0.079-0.711-0.079c-1.862,0-2.697,1.613-2.697,2.787v4.908
				h-1.229V43.504z"/>
		</g>
		<g>
			<path fill="#0C6E77" d="M152.443,44.153v-0.221c0-1.501-0.727-2.246-2.233-2.246c-1.026,0-1.912,0.35-2.663,1.022l-0.739-0.876
				c0.796-0.823,2.048-1.264,3.684-1.264c1.711,0,3.178,0.959,3.178,3.092v3.877c0,0.677,0.079,1.494,0.151,1.957h-1.196
				c-0.067-0.43-0.102-0.948-0.102-1.417h-0.045c-0.705,1.152-1.67,1.643-3.068,1.643c-1.546,0-2.996-0.858-2.996-2.551
				c0-2.825,3.334-3.017,5.416-3.017H152.443z M151.806,45.163c-1.241,0-4.056,0.09-4.056,1.838c0,1.158,1.065,1.603,2.049,1.603
				c1.788,0,2.645-1.264,2.645-2.815v-0.625H151.806z"/>
		</g>
		<g>
			<path fill="#0C6E77" d="M158.006,49.495h-1.229v-14.06h1.229V49.495z"/>
		</g>
		<g>
			<path fill="#0C6E77" d="M175.376,47.407c-0.869,1.354-2.697,2.421-4.874,2.421c-3.921,0-6.86-2.917-6.86-6.916
				c0-4.006,2.939-6.923,6.86-6.923c1.642,0,3.407,0.62,4.563,2.087l-1.178,0.868c-0.514-0.856-1.992-1.726-3.386-1.726
				c-3.386,0-5.409,2.664-5.409,5.693c0,3.028,2.023,5.691,5.409,5.691c1.382,0,2.793-0.444,3.78-1.968L175.376,47.407z"/>
		</g>
		<g>
			<path fill="#0C6E77" d="M182.745,44.153v-0.221c0-1.501-0.729-2.246-2.229-2.246c-1.021,0-1.918,0.35-2.658,1.022l-0.749-0.876
				c0.801-0.823,2.048-1.264,3.685-1.264c1.708,0,3.175,0.959,3.175,3.092v3.877c0,0.677,0.079,1.494,0.158,1.957h-1.191
				c-0.078-0.43-0.111-0.948-0.111-1.417h-0.04c-0.711,1.152-1.676,1.643-3.068,1.643c-1.546,0-2.99-0.858-2.99-2.551
				c0-2.825,3.328-3.017,5.405-3.017H182.745z M182.117,45.163c-1.252,0-4.057,0.09-4.057,1.838c0,1.158,1.056,1.603,2.049,1.603
				c1.782,0,2.636-1.264,2.636-2.815v-0.625H182.117z"/>
		</g>
		<g>
			<path fill="#0C6E77" d="M191.302,41.913h-2.505v5.134c0,1.297,0.497,1.557,1.259,1.557c0.434,0,0.896-0.135,1.27-0.332
				l0.05,1.127c-0.445,0.209-1.037,0.322-1.652,0.322c-0.926,0-2.155-0.406-2.155-2.324v-5.483h-1.84v-1.124h1.84v-2.453h1.229
				v2.453h2.505V41.913z"/>
		</g>
		<g>
			<path fill="#0C6E77" d="M198.54,44.153v-0.221c0-1.501-0.729-2.246-2.229-2.246c-1.021,0-1.918,0.35-2.663,1.022l-0.744-0.876
				c0.802-0.823,2.048-1.264,3.684-1.264c1.71,0,3.176,0.959,3.176,3.092v3.877c0,0.677,0.079,1.494,0.152,1.957h-1.19
				c-0.072-0.43-0.107-0.948-0.107-1.417h-0.045c-0.704,1.152-1.669,1.643-3.063,1.643c-1.546,0-3.001-0.858-3.001-2.551
				c0-2.825,3.339-3.017,5.415-3.017H198.54z M197.902,45.163c-1.241,0-4.051,0.09-4.051,1.838c0,1.158,1.061,1.603,2.054,1.603
				c1.783,0,2.635-1.264,2.635-2.815v-0.625H197.902z"/>
		</g>
		<g>
			<path fill="#0C6E77" d="M203.612,49.495h-1.23v-14.06h1.23V49.495z"/>
		</g>
		<g>
			<path fill="#0C6E77" d="M209.788,47.989l2.658-7.2h1.49l-4.356,10.98c-0.519,1.336-1.225,2.183-2.73,2.183
				c-0.372,0-0.768-0.012-1.139-0.124l0.135-1.186c0.282,0.142,0.592,0.198,0.931,0.198c0.852,0,1.298-0.582,1.669-1.559
				l0.639-1.675l-3.576-8.818h1.545L209.788,47.989z"/>
		</g>
		<g>
			<path fill="#0C6E77" d="M220.113,42.854c-0.367-0.703-0.987-1.167-1.879-1.167c-0.853,0-1.805,0.362-1.805,1.299
				c0,0.812,0.58,1.111,1.714,1.376l1.241,0.3c1.214,0.282,2.122,1.155,2.122,2.386c0,1.884-1.693,2.674-3.386,2.674
				c-1.32,0-2.526-0.463-3.351-1.693l1.065-0.732c0.503,0.783,1.264,1.309,2.285,1.309c1.005,0,2.048-0.444,2.048-1.444
				c0-0.88-0.738-1.178-1.658-1.399l-1.186-0.281c-0.597-0.158-2.233-0.632-2.233-2.284c0-1.806,1.579-2.625,3.216-2.625
				c1.214,0,2.347,0.423,2.905,1.558L220.113,42.854z"/>
		</g>
		<g>
			<path fill="#0C6E77" d="M227.91,41.913h-2.512v5.134c0,1.297,0.502,1.557,1.265,1.557c0.429,0,0.896-0.135,1.264-0.332
				l0.057,1.127c-0.447,0.209-1.044,0.322-1.659,0.322c-0.926,0-2.154-0.406-2.154-2.324v-5.483h-1.846v-1.124h1.846v-2.453h1.229
				v2.453h2.512V41.913z"/>
		</g>
		<g>
			<g>
				<path fill="#0C6E77" d="M97.631,54.944h2.652c1.851,0,2.995,0.801,2.995,2.438c0,1.636-1.145,2.438-2.995,2.438H98.55v4.242
					h-0.919V54.944z M98.55,58.973h1.496c1.659,0,2.229-0.718,2.229-1.591c0-0.881-0.569-1.591-2.229-1.591H98.55V58.973z"/>
			</g>
			<g>
				<path fill="#0C6E77" d="M108.248,60.365v-0.158c0-1.043-0.502-1.556-1.545-1.556c-0.706,0-1.327,0.242-1.84,0.704l-0.512-0.609
					c0.546-0.563,1.415-0.868,2.543-0.868c1.186,0,2.207,0.677,2.207,2.145v2.691c0,0.456,0.05,1.032,0.1,1.348h-0.821
					c-0.052-0.299-0.081-0.655-0.081-0.982h-0.021c-0.491,0.802-1.162,1.135-2.122,1.135c-1.07,0-2.081-0.594-2.081-1.767
					c0-1.951,2.308-2.082,3.751-2.082H108.248z M107.813,61.061c-0.862,0-2.808,0.056-2.808,1.274c0,0.802,0.733,1.112,1.415,1.112
					c1.235,0,1.827-0.876,1.827-1.947v-0.439H107.813z"/>
			</g>
		</g>
		<g>
			<g>
				<path fill="#0C6E77" d="M110.979,59.913c0-0.546-0.023-1.008-0.051-1.884h0.84v1.13h0.023c0.243-0.649,0.88-1.281,1.929-1.281
					c0.249,0,0.452,0.022,0.637,0.08l-0.169,0.834c-0.106-0.046-0.265-0.062-0.49-0.062c-1.286,0-1.866,1.122-1.866,1.93v3.401
					h-0.853V59.913z"/>
			</g>
			<g>
				<path fill="#0C6E77" d="M118.929,58.804h-1.737v3.554c0,0.902,0.343,1.09,0.873,1.09c0.3,0,0.614-0.097,0.876-0.244l0.033,0.79
					c-0.3,0.146-0.717,0.221-1.14,0.221c-0.643,0-1.495-0.289-1.495-1.615v-3.795h-1.275v-0.774h1.275v-1.69h0.853v1.69h1.737
					V58.804z"/>
			</g>
		</g>
		<g>
			<path fill="#0C6E77" d="M121.225,58.029c0.033,0.322,0.033,0.65,0.033,0.978h0.028c0.378-0.667,1.224-1.129,2.02-1.129
				c1.534,0,2.268,0.862,2.268,2.354v3.83h-0.852v-3.341c0-1.336-0.372-2.069-1.636-2.069c-0.175,0-1.828,0.111-1.828,2.313v3.097
				h-0.846v-4.706c0-0.315-0.04-0.891-0.068-1.326H121.225z"/>
		</g>
		<g>
			<path fill="#0C6E77" d="M127.982,61.274c0.102,1.213,1.016,2.173,2.212,2.173c0.901,0,1.602-0.508,1.929-1.045l0.661,0.537
				c-0.706,0.901-1.598,1.274-2.59,1.274c-1.795,0-3.114-1.349-3.114-3.166c0-1.815,1.319-3.17,3.035-3.17
				c1.833,0.012,2.889,1.365,2.889,3.013v0.384H127.982z M132.078,60.586c0-1.145-0.733-1.935-1.963-1.935
				c-1.106,0-2.109,0.941-2.109,1.935H132.078z"/>
		</g>
		<g>
			<path fill="#0C6E77" d="M134.944,59.913c0-0.546-0.018-1.008-0.046-1.884h0.835v1.13h0.023c0.248-0.649,0.873-1.281,1.934-1.281
				c0.244,0,0.453,0.022,0.632,0.08l-0.169,0.834c-0.106-0.046-0.26-0.062-0.49-0.062c-1.286,0-1.861,1.122-1.861,1.93v3.401h-0.857
				V59.913z"/>
		</g>
		<g>
			<path fill="#0C6E77" d="M142.656,59.464c-0.266-0.491-0.683-0.813-1.304-0.813c-0.598,0-1.252,0.254-1.252,0.901
				c0,0.563,0.406,0.773,1.185,0.954l0.862,0.203c0.842,0.198,1.474,0.802,1.474,1.647c0,1.313-1.181,1.856-2.348,1.856
				c-0.914,0-1.76-0.315-2.323-1.179l0.733-0.491c0.354,0.535,0.885,0.903,1.59,0.903c0.7,0,1.417-0.311,1.417-1.011
				c0-0.604-0.514-0.813-1.146-0.964l-0.823-0.198c-0.418-0.102-1.553-0.44-1.553-1.58c0-1.246,1.101-1.816,2.24-1.816
				c0.828,0,1.618,0.294,1.997,1.083L142.656,59.464z"/>
		</g>
		<g>
			<path fill-rule="evenodd" clip-rule="evenodd" fill="#0C6E77" d="M62.436,57.269c0,0-5.156,8.823-19.662,13.343
				c-15.531,4.846-22.729,2.368-22.757-2.354c-0.022-2.989,3.976-6.555,3.976-6.555s-1.466,1.32-1.441,4.227
				c0.01,3.017,6.012,6.707,20.077,2.43C56.517,64.14,60.115,58.651,62.436,57.269z"/>
		</g>
		<g>
			<path fill-rule="evenodd" clip-rule="evenodd" fill="#0C6E77" d="M62.644,51.47c0,0-5.207,8.794-19.745,13.234
				c-15.56,4.739-22.742,2.223-22.742-2.516c0-2.99,4.012-6.511,4.012-6.511s-1.466,1.309-1.466,4.215
				c0,3.011,5.975,6.741,20.066,2.555C56.68,58.313,60.318,52.846,62.644,51.47z"/>
		</g>
		<g>
			<path fill-rule="evenodd" clip-rule="evenodd" fill="#0C6E77" d="M26.521,57.607c0,0,6.103-8.468,20.631-12.919
				c15.39-4.712,22.74-2.228,22.74,2.511c0,2.983-4.018,6.515-4.018,6.515s1.473-1.308,1.473-4.219
				c0-3.013-5.991-6.883-20.078-2.696C32.669,51.13,28.846,56.242,26.521,57.607z"/>
		</g>
		<g>
			<path fill-rule="evenodd" clip-rule="evenodd" fill="#0C6E77" d="M26.746,51.729c0,0,6.104-8.479,20.632-12.919
				c15.39-4.715,22.739-2.233,22.739,2.5c0,2.983-4.011,6.527-4.011,6.527s1.467-1.314,1.467-4.221
				c0-3.018-5.986-6.889-20.078-2.708C32.901,45.253,29.07,50.353,26.746,51.729z"/>
		</g>
		<g>
			<path fill-rule="evenodd" clip-rule="evenodd" fill="#0C6E77" d="M26.904,45.874c0,0,6.11-8.474,20.636-12.921
				c15.385-4.709,22.742-2.227,22.742,2.495c0,2.989-4.017,6.532-4.017,6.532s1.472-1.32,1.472-4.22
				c0-3.013-5.997-6.89-20.077-2.708C33.053,39.396,29.234,44.491,26.904,45.874z"/>
		</g>
		<g>
			<path fill-rule="evenodd" clip-rule="evenodd" fill="#0C6E77" d="M62.796,45.625c0,0-5.213,8.795-19.745,13.223
				c-15.565,4.751-22.746,2.229-22.746-2.493c0-2.99,4.016-6.532,4.016-6.532s-1.467,1.308-1.467,4.22
				c0,3.013,5.969,6.735,20.062,2.556C56.827,52.468,60.466,47.001,62.796,45.625z"/>
		</g>
		<g>
			<rect x="83.557" y="17" fill-rule="evenodd" clip-rule="evenodd" fill="#F0CF12" width="1.343" height="66"/>
		</g>
	</g>
</g>
</svg>
