<?xml version="1.0" encoding="utf-8"?>
<!-- Generator: Adobe Illustrator 16.0.3, SVG Export Plug-In . SVG Version: 6.00 Build 0)  -->
<!DOCTYPE svg PUBLIC "-//W3C//DTD SVG 1.1//EN" "http://www.w3.org/Graphics/SVG/1.1/DTD/svg11.dtd">
<svg version="1.1" xmlns="http://www.w3.org/2000/svg" xmlns:xlink="http://www.w3.org/1999/xlink" x="0px" y="0px" width="260px"
	 height="100px" viewBox="0 0 260 100" enable-background="new 0 0 260 100" xml:space="preserve">
<g id="guides">
</g>
<g id="Layer_2">
	<g>
		<path fill="#F05B62" d="M20,47.876v-0.064c0-6.706,5.217-12.209,12.363-12.209c4.248,0,6.815,1.147,9.276,3.242l-3.271,3.938
			c-1.816-1.514-3.437-2.387-6.17-2.387c-3.774,0-6.779,3.334-6.779,7.345v0.071c0,4.313,2.969,7.477,7.148,7.477
			c1.891,0,3.574-0.469,4.893-1.407v-3.372h-5.226v-4.483h10.244v10.245c-2.425,2.058-5.762,3.736-10.081,3.736
			C25.054,60.007,20,54.85,20,47.876"/>
		<path fill="#F05B62" d="M45.343,35h5.395v4.556h-5.395V35z M45.486,41.541h5.121v18.064h-5.121V41.541z"/>
		<path fill="#F05B62" d="M53.743,41.542h5.123v3.639c1.039-2.49,2.731-4.113,5.76-3.983v5.36h-0.271
			c-3.398,0-5.489,2.057-5.489,6.376v6.672h-5.123V41.542z"/>
		<rect x="66.377" y="35" fill="#F05B62" width="5.127" height="24.605"/>
		<path fill="#F05B62" d="M83.604,36.011h9.201c7.418,0,12.54,5.093,12.54,11.729v0.071c0,6.637-5.122,11.794-12.54,11.794h-9.201
			V36.011z M88.795,40.698v14.223h4.01c4.247,0,7.117-2.862,7.117-7.045v-0.064c0-4.184-2.87-7.113-7.117-7.113H88.795z"/>
		<path fill="#F05B62" d="M106.865,50.674v-0.071c0-5.158,3.676-9.405,8.936-9.405c6.035,0,8.793,4.687,8.793,9.813
			c0,0.41-0.033,0.879-0.063,1.348h-12.57c0.5,2.325,2.116,3.545,4.412,3.545c1.714,0,2.97-0.545,4.379-1.857l2.932,2.59
			c-1.679,2.095-4.104,3.372-7.383,3.372C110.879,60.008,106.865,56.197,106.865,50.674 M119.609,49.16
			c-0.303-2.295-1.651-3.844-3.809-3.844c-2.125,0-3.51,1.512-3.912,3.844H119.609z"/>
		<polygon fill="#F05B62" points="124.265,41.542 129.688,41.542 133.73,53.646 137.81,41.542 143.135,41.542 136.022,59.741 
			131.374,59.741 		"/>
		<path fill="#F05B62" d="M142.531,50.674v-0.071c0-5.158,3.679-9.405,8.931-9.405c6.033,0,8.802,4.687,8.802,9.813
			c0,0.41-0.035,0.879-0.071,1.348h-12.575c0.509,2.325,2.13,3.545,4.424,3.545c1.716,0,2.959-0.545,4.378-1.857l2.935,2.59
			c-1.688,2.095-4.119,3.372-7.382,3.372C146.54,60.008,142.531,56.197,142.531,50.674 M155.271,49.16
			c-0.3-2.295-1.647-3.844-3.809-3.844c-2.116,0-3.501,1.512-3.903,3.844H155.271z"/>
		<rect x="162.617" y="35" fill="#F05B62" width="5.127" height="24.605"/>
		<path fill="#F05B62" d="M170,50.675v-0.073c0-5.187,4.189-9.404,9.814-9.404c5.596,0,9.74,4.155,9.74,9.345v0.06
			c0,5.195-4.175,9.405-9.807,9.405C174.153,60.007,170,55.868,170,50.675 M184.502,50.675v-0.073c0-2.66-1.929-4.981-4.754-4.981
			c-2.935,0-4.685,2.256-4.685,4.922v0.06c0,2.665,1.916,4.994,4.751,4.994C182.744,55.596,184.502,53.336,184.502,50.675"/>
		<path fill="#F05B62" d="M191.579,41.542h5.122v2.591c1.248-1.68,2.97-2.936,5.632-2.936c4.211,0,8.221,3.31,8.221,9.345v0.061
			c0,6.033-3.938,9.344-8.221,9.344c-2.733,0-4.413-1.252-5.632-2.695V65h-5.122V41.542z M205.432,50.603v-0.061
			c0-3.003-2.023-4.989-4.411-4.989c-2.397,0-4.39,1.986-4.39,4.989v0.061c0,3.007,1.992,4.993,4.39,4.993
			C203.408,55.596,205.432,53.646,205.432,50.603"/>
		<rect x="221.853" y="36.011" fill="#F05B62" width="5.188" height="23.595"/>
		<path fill="#F05B62" d="M231.553,54.482v-8.563H229.4v-4.377h2.152v-4.623h5.127v4.623h4.248v4.377h-4.248v7.726
			c0,1.175,0.504,1.749,1.652,1.749c0.946,0,1.785-0.235,2.532-0.638v4.106c-1.079,0.645-2.331,1.053-4.046,1.053
			C233.684,59.915,231.553,58.658,231.553,54.482"/>
	</g>
</g>
</svg>
