<?xml version="1.0" encoding="utf-8"?>
<!-- Generator: Adobe Illustrator 16.0.3, SVG Export Plug-In . SVG Version: 6.00 Build 0)  -->
<!DOCTYPE svg PUBLIC "-//W3C//DTD SVG 1.1//EN" "http://www.w3.org/Graphics/SVG/1.1/DTD/svg11.dtd">
<svg version="1.1" xmlns="http://www.w3.org/2000/svg" xmlns:xlink="http://www.w3.org/1999/xlink" x="0px" y="0px" width="310px"
	 height="100px" viewBox="0 0 310 100" enable-background="new 0 0 310 100" xml:space="preserve">
<g id="guides">
</g>
<g id="Layer_2">
	<g>
		<g>
			<g>
				<g>
					<path fill="#0073A2" d="M32.705,66.324c-4.065,0-7.213-1.299-9.479-4.108c-2.221-2.727-3.228-5.995-3.228-10.567
						c0-5.955,1.804-10.148,5.451-12.831c2.098-1.595,4.362-2.266,7.17-2.266c3.313,0,6.251,1.005,8.639,3.062l-2.433,3.019
						c-2.011-1.55-3.899-2.223-6.121-2.223c-5.366,0-7.338,4.696-7.338,11.491c0,4.064,0.755,6.919,2.138,8.553
						c1.174,1.384,3.271,2.182,5.494,2.182c1.508,0,2.768-0.336,3.858-0.922v-7.548h-4.951l-0.67-3.944h10.527v13.673
						C39.12,65.488,35.934,66.324,32.705,66.324z"/>
					<path fill="#0073A2" d="M52.415,66.408c-4.652,0-4.652-4.192-4.652-5.995V42.34c0-2.896-0.127-4.446-0.421-6.206l4.738-1.05
						c0.335,1.301,0.379,3.062,0.379,5.828v17.991c0,2.85,0.125,3.313,0.459,3.815c0.254,0.377,0.966,0.587,1.513,0.335l0.752,2.851
						C54.345,66.242,53.465,66.408,52.415,66.408z"/>
					<path fill="#0073A2" d="M76.909,55.42c0,6.837-3.651,11.074-9.396,11.074c-5.745,0-9.35-4.321-9.35-11.113
						c0-6.794,3.648-11.155,9.266-11.155C73.469,44.226,76.909,48.712,76.909,55.42z M63.278,55.087c0,6.164,1.552,7.967,4.32,7.967
						c2.725,0,4.234-2.221,4.234-7.548c0-5.997-1.678-7.797-4.361-7.797C64.535,47.709,63.278,49.929,63.278,55.087z"/>
					<path fill="#0073A2" d="M91.419,66.408c-2.097,0-3.858-0.837-5.159-2.431c-0.208,1.09-0.252,1.382-0.587,1.969h-4.236
						c0.381-0.962,0.548-1.887,0.548-4.736V41.206c0-2.433-0.167-3.941-0.548-5.116l4.782-1.047
						c0.251,1.509,0.337,2.558,0.337,4.234v4.948c0,1.386-0.127,2.014-0.127,2.014l0.168,0.042c1.466-1.428,3.021-2.056,5.031-2.056
						c5.073,0,8.262,4.151,8.262,10.778C99.89,61.796,96.366,66.408,91.419,66.408z M90.622,48.126c-1.929,0-3.188,1.09-4.025,2.138
						v10.355c0.921,0.969,2.263,1.849,3.941,1.849c2.894,0,4.151-2.097,4.151-7.423C94.689,51.229,93.936,48.126,90.622,48.126z"/>
					<path fill="#0073A2" d="M119.221,66.828c-1.3-0.504-2.387-1.509-2.893-2.851c-1.719,1.927-3.563,2.599-5.828,2.599
						c-4.862,0-7.045-2.683-7.045-6.374c0-4.906,3.689-7.378,10.482-7.378h1.428v-1.135c0-2.434-0.419-3.732-2.935-3.732
						c-3.062,0-6.334,2.433-6.334,2.433l-2.056-3.313c3.188-2.013,5.83-2.894,9.017-2.894c3.313,0,5.535,1.217,6.459,3.525
						c0.377,0.92,0.377,2.054,0.336,5.197l-0.086,6.078c-0.041,2.853,0.211,3.777,1.847,4.909L119.221,66.828z M114.441,55.926
						c-4.611,0-5.996,1.342-5.996,4.024c0,2.015,1.092,3.271,2.937,3.271c1.467,0,2.893-0.882,3.814-2.223l0.085-5.034
						C115.281,55.965,114.778,55.926,114.441,55.926z"/>
					<path fill="#0073A2" d="M130.842,66.408c-4.655,0-4.655-4.192-4.655-5.995V42.34c0-2.896-0.127-4.446-0.42-6.206l4.74-1.05
						c0.335,1.301,0.376,3.062,0.376,5.828v17.991c0,2.85,0.125,3.313,0.461,3.815c0.251,0.377,0.965,0.587,1.509,0.335l0.756,2.851
						C132.77,66.242,131.891,66.408,130.842,66.408z"/>
					<path fill="#00AEEF" d="M155.163,40.954h-7.297v24.992h-4.821V40.954h-7.339v-4.023h20.086L155.163,40.954z"/>
					<path fill="#00AEEF" d="M171.771,65.946V51.521c0-2.641-0.924-3.395-2.686-3.395c-1.634,0-3.606,1.046-5.113,2.599v15.222
						h-4.655V40.705c0-1.888-0.168-3.523-0.418-4.615l4.653-1.006c0.295,1.216,0.42,2.937,0.42,4.99v4.531
						c0,1.34-0.084,2.389-0.084,2.389c2.097-1.889,4.235-2.769,6.5-2.769c2.515,0,4.444,1.216,5.156,2.601
						c0.547,1.048,0.713,2.012,0.713,4.149v14.971H171.771z"/>
					<path fill="#00AEEF" d="M181.752,38.521c0-1.718,1.345-3.102,3.062-3.102c1.638,0,3.019,1.342,3.019,3.102
						c0,1.679-1.381,3.064-3.101,3.064C183.053,41.586,181.752,40.2,181.752,38.521z M182.424,65.946V45.064l4.655-0.839v21.721
						H182.424z"/>
					<path fill="#00AEEF" d="M205.151,65.946V51.858c0-2.895-0.669-3.689-2.431-3.689c-1.342,0-3.271,1.003-4.653,2.39v15.388
						h-4.532V50.349c0-2.223-0.208-3.522-0.794-5.034l4.193-1.172c0.503,0.963,0.755,1.887,0.755,3.02
						c2.263-1.93,4.234-2.937,6.497-2.937c3.272,0,5.538,1.97,5.538,5.871v15.85H205.151z"/>
					<path fill="#00AEEF" d="M216.016,65.946V41.25c0-2.056-0.127-3.481-0.462-5.116L220.167,35c0.252,1.344,0.42,3.399,0.42,5.62
						v25.326H216.016z M228.933,65.946l-8.01-11.991l6.289-9.227h5.576l-7.253,8.976l8.974,12.242H228.933z"/>
					<path fill="#00AEEF" d="M236.524,38.521c0-1.718,1.341-3.102,3.06-3.102c1.636,0,3.02,1.342,3.02,3.102
						c0,1.679-1.384,3.064-3.104,3.064C237.824,41.586,236.524,40.2,236.524,38.521z M237.193,65.946V45.064l4.655-0.839v21.721
						H237.193z"/>
					<path fill="#00AEEF" d="M259.924,65.946V51.858c0-2.895-0.672-3.689-2.435-3.689c-1.342,0-3.27,1.003-4.651,2.39v15.388h-4.528
						V50.349c0-2.223-0.211-3.522-0.799-5.034l4.194-1.172c0.502,0.963,0.754,1.887,0.754,3.02c2.265-1.93,4.233-2.937,6.5-2.937
						c3.271,0,5.534,1.97,5.534,5.871v15.85H259.924z"/>
					<path fill="#00AEEF" d="M286.973,48.126c-1.007,0-1.637-0.252-1.637-0.252s1.385,1.426,1.385,3.732
						c0,3.689-3.059,6.5-8.051,6.5c-1.511,0.545-2.852,1.342-2.852,2.014c0,0.796,0.291,0.879,5.283,0.879
						c3.396,0,7.045,1.72,7.045,6.041c0,4.528-3.772,6.96-9.438,6.96c-5.49,0-9.476-1.804-9.476-5.789
						c0-1.006,0.42-2.265,0.42-2.265h4.362c0,0-0.336,0.842-0.336,1.511c0,1.972,1.677,3.062,4.655,3.062
						c3.272,0,5.031-1.342,5.031-3.313c0-2.306-1.929-2.934-5.871-2.934c-5.701,0-6.959-1.132-6.959-3.229
						c0-2.099,1.759-2.937,4.021-3.65c-3.184-0.921-4.818-2.979-4.818-5.995c0-4.32,3.394-7.172,8.469-7.172
						c3.019,0,4.738,1.089,6.459,1.089c1.383,0,2.683-0.502,3.858-1.466l2.138,2.894C289.487,47.749,288.398,48.126,286.973,48.126z
						 M274.518,51.397c0,2.432,1.384,3.563,3.649,3.563c2.39,0,3.647-1.257,3.647-3.605c0-2.392-1.217-3.646-3.647-3.646
						C275.818,47.709,274.518,49.006,274.518,51.397z"/>
				</g>
			</g>
		</g>
	</g>
</g>
</svg>
