<?xml version="1.0" encoding="utf-8"?>
<!-- Generator: Adobe Illustrator 16.0.3, SVG Export Plug-In . SVG Version: 6.00 Build 0)  -->
<!DOCTYPE svg PUBLIC "-//W3C//DTD SVG 1.1//EN" "http://www.w3.org/Graphics/SVG/1.1/DTD/svg11.dtd">
<svg version="1.1" xmlns="http://www.w3.org/2000/svg" xmlns:xlink="http://www.w3.org/1999/xlink" x="0px" y="0px" width="160px"
	 height="100px" viewBox="0 0 160 100" enable-background="new 0 0 160 100" xml:space="preserve">
<g id="guides">
</g>
<g id="Layer_2">
	<g>
		<path fill="#3D9689" d="M110.001,20c-1.644,0-3.304,0.138-4.941,0.409l-0.002-0.015l-0.92,0.182
			c-0.252,0.05-0.5,0.107-0.749,0.164l-0.088,0.02c-1.534,0.333-3.456,0.842-6.067,2.09c-0.255,0.12-0.508,0.248-0.763,0.377
			l-0.258,0.131c-0.255,0.133-0.511,0.266-0.756,0.403c-4.639,2.538-9.835,6.598-15.456,12.071
			c-5.625-5.479-10.826-9.539-15.463-12.075c-0.245-0.135-0.492-0.265-0.744-0.396l-0.277-0.142
			c-0.247-0.125-0.492-0.249-0.738-0.365c-2.621-1.252-4.544-1.763-6.076-2.094l-0.072-0.017c-0.252-0.059-0.506-0.115-0.803-0.177
			L54.7,20.325l0.005,0.046C53.144,20.125,51.564,20,50,20c-16.542,0-30,13.458-30,30c0,16.543,13.457,30,30,30
			c6.623,0,12.905-2.12,18.132-6.103c3.276-2.119,9.783-8.095,11.868-10.035c2.084,1.94,8.588,7.913,11.831,10.005
			C97.093,77.88,103.376,80,109.999,80C126.542,80,140,66.543,140,50C140.001,33.459,126.543,20,110.001,20z"/>
		
			<linearGradient id="SVGID_1_" gradientUnits="userSpaceOnUse" x1="31.0459" y1="-1626.1914" x2="190.4432" y2="-1607.83" gradientTransform="matrix(1 0 0 -1 4 -1571.0645)">
			<stop  offset="0" style="stop-color:#4BB177"/>
			<stop  offset="1" style="stop-color:#4BB177"/>
		</linearGradient>
		<path fill="url(#SVGID_1_)" d="M110.001,20.554c-1.805,0-3.627,0.17-5.419,0.504l-0.001-0.003l-0.326,0.064
			c-0.244,0.048-0.488,0.104-0.731,0.16l-0.094,0.021c-1.5,0.326-3.379,0.822-5.938,2.045c-0.25,0.118-0.497,0.243-0.744,0.368
			l-0.256,0.131c-0.249,0.129-0.499,0.26-0.743,0.396c-4.706,2.575-10.004,6.742-15.747,12.387
			c-5.748-5.649-11.048-9.818-15.757-12.392c-0.239-0.133-0.482-0.26-0.726-0.387l-0.275-0.141
			c-0.241-0.122-0.481-0.243-0.726-0.357c-2.564-1.227-4.447-1.726-5.948-2.051l-0.062-0.014c-0.253-0.058-0.505-0.115-0.814-0.179
			l-0.309-0.071l0.002,0.016c-1.781-0.33-3.593-0.498-5.388-0.498c-16.208,0-29.395,13.187-29.395,29.396
			c0,16.208,13.187,29.395,29.395,29.395c6.491,0,12.646-2.077,17.803-6.007c3.53-2.282,11.023-9.254,12.198-10.354
			c1.174,1.101,8.668,8.072,12.197,10.354c5.157,3.93,11.312,6.008,17.803,6.008c16.208,0,29.395-13.187,29.395-29.395
			C139.396,33.74,126.209,20.554,110.001,20.554z"/>
		<g>
			<path fill="#89C984" d="M62.546,38.977h-2.909c-0.417,0-0.757,0.339-0.757,0.757v8.11H40.303v-8.11
				c0-0.418-0.34-0.757-0.757-0.757h-2.91c-0.417,0-0.756,0.339-0.756,0.757v20.979c0,0.418,0.339,0.757,0.756,0.757h2.91
				c0.417,0,0.757-0.339,0.757-0.757v-8.895H58.88v8.895c0,0.418,0.34,0.757,0.757,0.757h2.909c0.418,0,0.757-0.339,0.757-0.757
				V39.733C63.303,39.315,62.964,38.977,62.546,38.977z"/>
			<path fill="#89C984" d="M124.411,45.283c-0.19-1.249-0.529-2.272-1.004-3.04c-0.938-1.533-2.322-2.493-4.111-2.852
				c-1.378-0.279-3.66-0.414-6.98-0.414H97.693c-0.417,0-0.757,0.339-0.757,0.756v20.979c0,0.418,0.34,0.757,0.757,0.757h14.84
				c2.896,0,4.922-0.104,6.196-0.317c2.651-0.449,4.408-1.994,5.222-4.596c0.485-1.571,0.731-3.705,0.731-6.341
				C124.683,48.129,124.592,46.469,124.411,45.283z M101.274,42.949h10.995c2.132,0,3.475,0.02,3.983,0.059
				c0.839,0.075,1.497,0.202,1.957,0.376c0.403,0.152,0.715,0.37,0.957,0.673c0.51,0.619,1.115,2.17,1.115,6.035
				c0,2.431-0.231,4.232-0.688,5.355c-0.402,0.986-1.036,1.567-1.947,1.778c-0.542,0.132-1.039,0.21-1.481,0.233
				c-0.476,0.024-1.738,0.037-3.756,0.037h-11.135V42.949L101.274,42.949z"/>
		</g>
		<g>
			
				<linearGradient id="SVGID_3_" gradientUnits="userSpaceOnUse" x1="45.7559" y1="-1626.2222" x2="45.9577" y2="-1633.5873" gradientTransform="matrix(1 0 0 -1 4 -1571.0645)">
				<stop  offset="0" style="stop-color:#44955A"/>
				<stop  offset="1" style="stop-color:#41B8CF"/>
			</linearGradient>
			<path fill="url(#SVGID_3_)" d="M62.546,37.614h-2.909c-0.584,0-1.06,0.476-1.06,1.06v7.809H40.604v-7.809
				c0-0.584-0.475-1.06-1.059-1.06h-2.91c-0.584,0-1.059,0.476-1.059,1.06v20.979c0,0.584,0.475,1.06,1.059,1.06h2.91
				c0.584,0,1.059-0.476,1.059-1.06v-8.592h17.973v8.592c0,0.584,0.476,1.06,1.06,1.06h2.909c0.584,0,1.06-0.476,1.06-1.06V38.674
				C63.605,38.09,63.13,37.614,62.546,37.614z"/>
			
				<linearGradient id="SVGID_4_" gradientUnits="userSpaceOnUse" x1="106.7959" y1="-1624.5498" x2="106.9978" y2="-1631.9153" gradientTransform="matrix(1 0 0 -1 4 -1571.0645)">
				<stop  offset="0" style="stop-color:#44955A"/>
				<stop  offset="1" style="stop-color:#41B8CF"/>
			</linearGradient>
			<path fill="url(#SVGID_4_)" d="M124.709,44.178c-0.195-1.287-0.548-2.348-1.044-3.151c-0.983-1.608-2.434-2.615-4.31-2.991
				c-1.397-0.283-3.7-0.421-7.041-0.421H97.692c-0.584,0-1.06,0.476-1.06,1.06v20.979c0,0.584,0.476,1.06,1.06,1.06h14.841
				c2.911,0,4.954-0.105,6.245-0.322c2.774-0.47,4.611-2.086,5.461-4.805c0.494-1.601,0.746-3.764,0.746-6.43
				C124.985,47.054,124.894,45.379,124.709,44.178z M119.979,49.033c0,2.391-0.225,4.154-0.666,5.241
				c-0.367,0.9-0.919,1.408-1.738,1.599c-0.522,0.127-1.002,0.203-1.427,0.225c-0.471,0.024-1.729,0.037-3.739,0.037h-10.832V42.193
				h10.691c2.091,0,3.461,0.02,3.957,0.057c0.811,0.073,1.441,0.194,1.878,0.359c0.354,0.134,0.617,0.317,0.828,0.58
				C119.324,43.665,119.979,45.057,119.979,49.033z"/>
		</g>
		<g>
			<path fill="#FFFFFF" d="M62.546,37.917h-2.909c-0.417,0-0.757,0.339-0.757,0.757v8.111H40.303v-8.111
				c0-0.418-0.34-0.757-0.757-0.757h-2.91c-0.417,0-0.756,0.339-0.756,0.757v20.979c0,0.418,0.339,0.757,0.756,0.757h2.91
				c0.417,0,0.757-0.339,0.757-0.757v-8.895H58.88v8.895c0,0.418,0.34,0.757,0.757,0.757h2.909c0.418,0,0.757-0.339,0.757-0.757
				V38.674C63.303,38.256,62.964,37.917,62.546,37.917z"/>
			<path fill="#FFFFFF" d="M124.411,44.224c-0.19-1.249-0.529-2.271-1.004-3.04c-0.938-1.533-2.322-2.492-4.111-2.852
				c-1.378-0.278-3.66-0.414-6.98-0.414H97.693c-0.417,0-0.757,0.339-0.757,0.757v20.979c0,0.418,0.34,0.756,0.757,0.756h14.84
				c2.896,0,4.922-0.104,6.196-0.317c2.651-0.449,4.408-1.994,5.222-4.595c0.485-1.572,0.731-3.705,0.731-6.341
				C124.683,47.069,124.592,45.41,124.411,44.224z M101.274,41.89h10.995c2.132,0,3.475,0.021,3.983,0.059
				c0.839,0.075,1.497,0.202,1.957,0.376c0.403,0.153,0.715,0.37,0.957,0.673c0.51,0.619,1.115,2.17,1.115,6.036
				c0,2.431-0.231,4.231-0.688,5.355c-0.402,0.985-1.036,1.566-1.947,1.777c-0.542,0.133-1.039,0.21-1.481,0.233
				c-0.476,0.024-1.738,0.038-3.756,0.038h-11.135V41.89L101.274,41.89z"/>
		</g>
	</g>
</g>
</svg>
