<?xml version="1.0" encoding="utf-8"?>
<!-- Generator: Adobe Illustrator 16.0.3, SVG Export Plug-In . SVG Version: 6.00 Build 0)  -->
<!DOCTYPE svg PUBLIC "-//W3C//DTD SVG 1.1//EN" "http://www.w3.org/Graphics/SVG/1.1/DTD/svg11.dtd">
<svg version="1.1" xmlns="http://www.w3.org/2000/svg" xmlns:xlink="http://www.w3.org/1999/xlink" x="0px" y="0px" width="112px"
	 height="100px" viewBox="0 0 112 100" enable-background="new 0 0 112 100" xml:space="preserve">
<g id="guides">
</g>
<g id="Layer_2">
	<path fill="#0096D6" d="M56,86c-0.357,0-0.715-0.006-1.071-0.017l7.358-20.221h10.125c1.776,0,3.728-1.365,4.336-3.035
		l7.981-21.922c1.306-3.591-0.75-6.527-4.57-6.527H66.113L54.329,66.664h-0.005l-6.681,18.358C31.79,81.254,20,67.004,20,50
		c0-16.513,11.121-30.429,26.28-34.671l-6.893,18.949h-0.004L27.923,65.763h7.629l9.749-26.754h5.731l-9.745,26.754l7.628,0.004
		l9.082-24.961c1.307-3.591-0.749-6.527-4.564-6.527h-6.415l7.365-20.242C54.917,14.013,55.456,14,56,14c19.882,0,36,16.118,36,36
		S75.882,86,56,86z M77.78,38.99h-5.731l-8.027,22.025h5.731L77.78,38.99z"/>
</g>
</svg>
