<?xml version="1.0" encoding="utf-8"?>
<!-- Generator: Adobe Illustrator 16.0.3, SVG Export Plug-In . SVG Version: 6.00 Build 0)  -->
<!DOCTYPE svg PUBLIC "-//W3C//DTD SVG 1.1//EN" "http://www.w3.org/Graphics/SVG/1.1/DTD/svg11.dtd">
<svg version="1.1" xmlns="http://www.w3.org/2000/svg" xmlns:xlink="http://www.w3.org/1999/xlink" x="0px" y="0px" width="200px"
	 height="100px" viewBox="0 0 200 100" enable-background="new 0 0 200 100" xml:space="preserve">
<g id="guides">
</g>
<g id="Layer_2">
	<g>
		<path fill="#78FFFF" d="M154.831,63.218v-3.6l4.496-8.986l-4.496-8.99v-3.594h3.595v3.594l3.597,7.19l3.594-7.19v-3.594h3.598
			v3.594l-4.496,8.99l4.496,8.986v3.6h-3.598v-3.6l-3.594-7.191l-3.597,7.191v3.6H154.831z"/>
		<g>
			<path fill="#78FFFF" d="M180,27.262V74h-10.786v-3.591h7.189V30.856h-7.189v-3.595H180z"/>
		</g>
		<path fill="#111111" d="M154.831,61.957v-3.598l4.496-8.988l-4.496-8.989v-3.596h3.595v3.596l3.597,7.189l3.594-7.189v-3.596
			h3.598v3.596l-4.496,8.989l4.496,8.988v3.598h-3.598v-3.598l-3.594-7.191l-3.597,7.191v3.598H154.831z"/>
		<g>
			<path fill="#78FFFF" d="M30.786,63.218v-3.6h3.597V41.642h-3.597v-3.594h10.787v3.594h-3.596v17.977h3.596v3.6H30.786z"/>
			<path fill="#78FFFF" d="M45.168,63.218v-25.17h3.597l5.393,10.784l5.394-10.784h3.597v25.17h-3.597V45.238l-3.595,7.188h-3.597
				l-3.595-7.188v17.979H45.168z"/>
			<path fill="#78FFFF" d="M66.741,63.218V41.642c0-0.992,0.346-1.834,1.04-2.527c0.692-0.711,1.544-1.066,2.555-1.066h7.192
				c0.991,0,1.835,0.355,2.527,1.066c0.711,0.693,1.068,1.535,1.068,2.527v21.576h-3.596V52.427h-7.192v10.791H66.741z
				 M77.528,48.832v-7.19h-7.192v7.19H77.528z"/>
			<path fill="#78FFFF" d="M88.315,63.218c-1.012,0-1.863-0.347-2.558-1.041c-0.692-0.692-1.038-1.545-1.038-2.559V41.642
				c0-0.992,0.346-1.834,1.038-2.527c0.694-0.711,1.546-1.066,2.558-1.066h7.191c0.992,0,1.834,0.355,2.527,1.066
				c0.712,0.693,1.067,1.535,1.067,2.527v3.597h-3.595v-3.597h-7.191v17.977h7.191v-7.191H91.91v-3.595h5.394
				c0.486,0,0.907,0.181,1.264,0.535c0.355,0.356,0.534,0.777,0.534,1.265v8.986c0,1.014-0.355,1.866-1.067,2.559
				c-0.693,0.694-1.535,1.041-2.527,1.041H88.315z"/>
			<path fill="#78FFFF" d="M102.696,63.218v-3.6h3.597V41.642h-3.597v-3.594h10.787v3.594h-3.596v17.977h3.596v3.6H102.696z"/>
			<path fill="#78FFFF" d="M117.078,63.218v-25.17h3.594l8.991,17.977V38.048h3.596v25.17h-3.596l-8.991-17.979v17.979H117.078z"/>
			<path fill="#78FFFF" d="M136.853,63.218v-25.17h14.382v3.594h-10.785v7.19h7.192v3.595h-7.192v7.191h10.785v3.6H136.853z"/>
			<g>
				<path fill="#78FFFF" d="M20,74V27.262h10.786v3.595h-7.189v39.553h7.189V74H20z"/>
			</g>
			<path fill="#111111" d="M30.786,61.957v-3.598h3.597V40.382h-3.597v-3.596h10.787v3.596h-3.596v17.978h3.596v3.598H30.786z"/>
			<path fill="#111111" d="M45.168,61.957V36.786h3.597l5.393,10.785l5.394-10.785h3.597v25.171h-3.597V43.978l-3.595,7.19h-3.597
				l-3.595-7.19v17.979H45.168z"/>
			<path fill="#111111" d="M66.741,61.957V40.382c0-0.992,0.346-1.835,1.04-2.527c0.692-0.711,1.544-1.068,2.555-1.068h7.192
				c0.991,0,1.835,0.357,2.527,1.068c0.711,0.692,1.068,1.535,1.068,2.527v21.575h-3.596V51.168h-7.192v10.789H66.741z
				 M77.528,47.571v-7.189h-7.192v7.189H77.528z"/>
			<path fill="#111111" d="M88.315,61.957c-1.012,0-1.863-0.347-2.558-1.04c-0.692-0.693-1.038-1.546-1.038-2.558V40.382
				c0-0.992,0.346-1.835,1.038-2.527c0.694-0.711,1.546-1.068,2.558-1.068h7.191c0.992,0,1.834,0.357,2.527,1.068
				c0.712,0.692,1.067,1.535,1.067,2.527v3.596h-3.595v-3.596h-7.191v17.978h7.191v-7.191H91.91v-3.597h5.394
				c0.486,0,0.907,0.182,1.264,0.535c0.355,0.357,0.534,0.777,0.534,1.265v8.988c0,1.012-0.355,1.864-1.067,2.558
				c-0.693,0.693-1.535,1.04-2.527,1.04H88.315z"/>
			<path fill="#111111" d="M102.696,61.957v-3.598h3.597V40.382h-3.597v-3.596h10.787v3.596h-3.596v17.978h3.596v3.598H102.696z"/>
			<path fill="#111111" d="M117.078,61.957V36.786h3.594l8.991,17.979V36.786h3.596v25.171h-3.596l-8.991-17.979v17.979H117.078z"/>
			<path fill="#111111" d="M136.853,61.957V36.786h14.382v3.596h-10.785v7.189h7.192v3.597h-7.192v7.191h10.785v3.598H136.853z"/>
			<g>
				<path fill="#111111" d="M20,72.741V26h10.786v3.597h-7.189v39.552h7.189v3.593H20z"/>
			</g>
		</g>
		<g>
			<path fill="#111111" d="M180,26v46.741h-10.786v-3.593h7.189V29.597h-7.189V26H180z"/>
		</g>
	</g>
</g>
</svg>
