<?xml version="1.0" encoding="utf-8"?>
<!-- Generator: Adobe Illustrator 16.0.3, SVG Export Plug-In . SVG Version: 6.00 Build 0)  -->
<!DOCTYPE svg PUBLIC "-//W3C//DTD SVG 1.1//EN" "http://www.w3.org/Graphics/SVG/1.1/DTD/svg11.dtd">
<svg version="1.1" xmlns="http://www.w3.org/2000/svg" xmlns:xlink="http://www.w3.org/1999/xlink" x="0px" y="0px" width="194px"
	 height="100px" viewBox="0 0 194 100" enable-background="new 0 0 194 100" xml:space="preserve">
<g id="guides">
</g>
<g id="Layer_2">
	<path fill="#48B827" d="M68,70c0,2.209-1.791,4-4,4H24c-2.209,0-4-1.791-4-4V30c0-2.209,1.791-4,4-4h40c2.209,0,4,1.791,4,4V70z"/>
	<g>
		<path fill="#333333" d="M83.82,50.612h-2.373v8.906H77.17V38.19h4.277v8.716h1.859l5.654-8.716h5.23l-7.178,9.932l7.748,11.396
			h-5.215L83.82,50.612z"/>
		<path fill="#333333" d="M101.84,59.519h-4.277V38.19h4.277V59.519z"/>
		<path fill="#333333" d="M114.09,53.85l0.264,1.157h0.088l0.248-1.128l4.645-15.688h4.512l-7.252,21.328h-4.395l-7.236-21.328
			h4.512L114.09,53.85z"/>
		<path fill="#333333" d="M133.926,53.85l0.264,1.157h0.088l0.25-1.128l4.643-15.688h4.512l-7.25,21.328h-4.395l-7.236-21.328h4.512
			L133.926,53.85z"/>
		<path fill="#333333" d="M151.068,59.519h-4.277V38.19h4.277V59.519z"/>
		<path fill="#333333" d="M162.73,50.612h-2.373v8.906h-4.277V38.19h4.277v8.716h1.861l5.654-8.716h5.229l-7.178,9.932l7.75,11.396
			h-5.215L162.73,50.612z"/>
	</g>
	<g>
		<rect x="30.666" y="36.666" fill="#FFFFFF" width="9.1" height="26.668"/>
		<rect x="39.766" y="45.451" fill="#FFFFFF" width="8.783" height="8.785"/>
		<rect x="48.549" y="54.236" fill="#FFFFFF" width="8.785" height="9.098"/>
		<rect x="48.549" y="36.666" fill="#FFFFFF" width="8.785" height="8.785"/>
	</g>
</g>
</svg>
