<?xml version="1.0" encoding="utf-8"?>
<!-- Generator: Adobe Illustrator 16.0.3, SVG Export Plug-In . SVG Version: 6.00 Build 0)  -->
<!DOCTYPE svg PUBLIC "-//W3C//DTD SVG 1.1//EN" "http://www.w3.org/Graphics/SVG/1.1/DTD/svg11.dtd">
<svg version="1.1" xmlns="http://www.w3.org/2000/svg" xmlns:xlink="http://www.w3.org/1999/xlink" x="0px" y="0px" width="208px"
	 height="100px" viewBox="0 0 208 100" enable-background="new 0 0 208 100" xml:space="preserve">
<g id="guides">
</g>
<g id="content_1_">
	<g>
		<g>
			<g>
				<path d="M65.874,61.39V41.797c0-2.075-0.415-3.256-0.415-3.256l2.491-0.48c0,0,0.412,1.343,0.412,3.765V61.39H65.874z
					 M75.768,61.39l-7.309-8.998l6.066-6.894h3.123l-6.255,6.894l7.69,8.998H75.768z"/>
				<path d="M84.401,61.71c-0.764,0-1.405-0.223-1.881-0.673c-0.515-0.442-0.768-1.116-0.768-2.264v-16.85
					c0-2.075-0.385-3.255-0.385-3.255l2.49-0.479c0,0,0.415,1.34,0.415,3.767V58.2c0,1.244,0.192,1.595,0.893,1.595
					c0.096,0,0.321-0.063,0.321-0.063l0.511,1.628C85.36,61.646,85.075,61.71,84.401,61.71z"/>
				<path d="M95.226,61.808c-4.372,0-6.861-3.224-6.861-8.46c0-5.171,2.582-8.326,6.763-8.326c2.649,0,4.371,1.21,5.459,2.775
					c0.99,1.435,1.47,3.317,1.47,5.903C102.056,58.998,99.211,61.808,95.226,61.808z M98.48,49.103
					c-0.673-1.403-2.076-2.04-3.383-2.04c-1.406,0-2.713,0.668-3.255,1.724c-0.512,0.989-0.769,2.264-0.769,4.146
					c0,2.234,0.385,4.214,0.989,5.201c0.574,0.958,1.853,1.598,3.225,1.598c1.658,0,2.906-0.862,3.445-2.396
					c0.353-0.985,0.478-1.881,0.478-3.443C99.211,51.657,98.989,50.157,98.48,49.103z"/>
				<path d="M117.407,62.06c-1.054-0.859-1.503-1.499-1.726-2.553c-1.212,1.627-2.874,2.426-5.044,2.426
					c-2.008,0-3.509-0.861-4.179-2.267c-0.287-0.605-0.413-1.435-0.413-2.361V45.624l2.455-0.475v11.423
					c0,1.5,0.223,2.17,0.958,2.679c0.512,0.354,1.243,0.544,1.946,0.544c1.564,0,3.192-1.148,4.054-2.871V45.657l2.458-0.416v11.587
					c0,2.012,0.286,2.806,1.084,3.542L117.407,62.06z"/>
				<path d="M133.081,61.39c0,0-0.319-0.795-0.353-1.624c-1.147,1.306-2.362,1.849-4.211,1.849c-4.12,0-6.479-2.968-6.479-8.042
					c0-3.384,1.116-5.873,3.286-7.372c1.023-0.702,1.915-0.988,3.061-0.988c1.792,0,3.352,0.734,4.309,2.008
					c0,0-0.031-1.307-0.031-2.454v-6.672l2.494,0.414v17.746c0,2.744,0.125,4.212,0.478,5.136H133.081z M132.633,48.913
					c-0.797-1.116-1.978-1.659-3.861-1.659c-1.244,0-2.295,0.573-2.969,1.659c-0.764,1.213-1.021,2.362-1.021,4.595
					c0,1.852,0.127,3.225,0.638,4.149c0.736,1.309,1.727,1.85,3.192,1.85c1.31,0,2.044-0.286,3.064-1.02
					c0.671-0.478,0.957-1.151,0.957-1.151V48.913z"/>
				<path d="M142.802,61.71c-0.764,0-1.403-0.223-1.884-0.673c-0.509-0.442-0.765-1.116-0.765-2.264v-16.85
					c0-2.075-0.384-3.255-0.384-3.255l2.492-0.479c0,0,0.416,1.34,0.416,3.767V58.2c0,1.244,0.188,1.595,0.891,1.595
					c0.095,0,0.318-0.063,0.318-0.063l0.512,1.628C143.76,61.646,143.473,61.71,142.802,61.71z"/>
				<path d="M149.713,53.858v0.385c0,1.499,0.192,2.647,0.734,3.477c0.892,1.372,2.359,1.946,3.956,1.946
					c1.529,0,2.777-0.478,3.894-1.5l0.957,1.6c-1.405,1.271-3.321,1.975-5.36,1.975c-4.402,0-7.052-3.189-7.052-8.455
					c0-2.682,0.571-4.403,1.916-6c1.274-1.5,2.838-2.201,4.752-2.201c1.722,0,3.226,0.606,4.31,1.724
					c1.37,1.404,1.816,2.9,1.816,6.7v0.351H149.713z M156.256,48.433c-0.543-0.86-1.66-1.403-2.873-1.403
					c-2.267,0-3.543,1.659-3.67,4.946h7.277C156.956,50.254,156.735,49.199,156.256,48.433z"/>
				<path d="M168.331,61.87c-2.01,0-4.211-0.607-5.839-1.598l0.96-1.852c1.627,0.992,3.284,1.5,5.041,1.5
					c1.944,0,3.22-1.052,3.22-2.741c0-1.438-0.799-2.236-2.616-2.619l-1.978-0.414c-2.616-0.543-4.021-2.171-4.021-4.371
					c0-2.874,2.33-4.884,5.65-4.884c1.658,0,3.508,0.51,4.85,1.277l-0.925,1.852c-1.403-0.671-2.585-1.149-3.987-1.149
					c-1.822,0-3,1.053-3,2.612c0,1.217,0.604,1.949,2.294,2.302l2.108,0.445c2.87,0.608,4.242,2.074,4.242,4.438
					C174.33,59.766,171.906,61.87,168.331,61.87z"/>
				<path d="M182.812,61.87c-2.014,0-4.213-0.607-5.842-1.598l0.958-1.852c1.628,0.992,3.286,1.5,5.04,1.5
					c1.946,0,3.225-1.052,3.225-2.741c0-1.438-0.799-2.236-2.619-2.619l-1.978-0.414c-2.619-0.543-4.021-2.171-4.021-4.371
					c0-2.874,2.33-4.884,5.648-4.884c1.662,0,3.511,0.51,4.852,1.277l-0.925,1.852c-1.404-0.671-2.587-1.149-3.99-1.149
					c-1.821,0-3,1.053-3,2.612c0,1.217,0.605,1.949,2.297,2.302l2.106,0.445c2.874,0.608,4.245,2.074,4.245,4.438
					C188.809,59.766,186.386,61.87,182.812,61.87z"/>
			</g>
		</g>
		<g>
			<g>
				<g>
					<path fill="#3C98FF" d="M30.807,42.805l-5.689-5.687c-0.117,0.118-0.158,0.314-0.097,0.558l1.466,5.685
						c0.127,0.489-0.156,1.04-0.624,1.224L20.4,46.739c-0.235,0.093-0.367,0.242-0.396,0.408l7.948,1.26
						C28.293,46.236,29.319,44.291,30.807,42.805z"/>
					<path fill="#1B5CED" d="M27.827,49.998c0-0.541,0.042-1.071,0.126-1.591l-7.948-1.26c-0.025,0.167,0.057,0.352,0.252,0.511
						l4.527,3.737c0.388,0.322,0.485,0.933,0.216,1.357l-3.152,4.954c-0.135,0.213-0.154,0.412-0.081,0.562l7.171-3.65
						C28.229,53.23,27.827,51.662,27.827,49.998z"/>
					<path fill="#009B4A" d="M36.409,39.949l-1.259-7.944c-0.166,0.027-0.315,0.16-0.409,0.395l-2.156,5.461
						c-0.185,0.47-0.733,0.75-1.225,0.624l-5.683-1.466c-0.245-0.066-0.44-0.021-0.561,0.1l5.689,5.687
						C32.291,41.32,34.235,40.292,36.409,39.949z"/>
					<path fill="#1B5CED" d="M48.174,49.998c0,0.543-0.043,1.073-0.126,1.594l7.948,1.258c0.026-0.167-0.056-0.352-0.252-0.513
						l-4.526-3.735c-0.389-0.32-0.487-0.933-0.215-1.357l3.153-4.954c0.136-0.213,0.155-0.413,0.078-0.563l-7.17,3.654
						C47.771,46.767,48.174,48.336,48.174,49.998z"/>
					<path fill="#EA3200" d="M47.064,45.381l7.17-3.654c-0.078-0.151-0.251-0.248-0.503-0.265l-5.861-0.363
						c-0.502-0.03-0.941-0.467-0.971-0.973l-0.358-5.857c-0.016-0.252-0.118-0.425-0.268-0.503l-3.652,7.169
						C44.532,41.911,46.09,43.471,47.064,45.381z"/>
					<path fill="#EAAD00" d="M38.002,39.823c1.663,0,3.231,0.403,4.619,1.111l3.652-7.169c-0.15-0.074-0.351-0.056-0.566,0.078
						l-4.952,3.153c-0.424,0.271-1.037,0.174-1.357-0.215l-3.738-4.529c-0.157-0.196-0.342-0.275-0.509-0.248l1.259,7.944
						C36.929,39.869,37.458,39.823,38.002,39.823z"/>
					<path fill="#009B4A" d="M39.592,60.047l1.26,7.948c0.165-0.026,0.316-0.162,0.409-0.395l2.15-5.464
						c0.188-0.469,0.74-0.75,1.227-0.624l5.687,1.47c0.242,0.061,0.44,0.018,0.56-0.101l-5.688-5.688
						C43.708,58.678,41.764,59.707,39.592,60.047z"/>
					<path fill="#3C98FF" d="M48.048,51.592c-0.338,2.171-1.368,4.114-2.853,5.602l5.688,5.688c0.121-0.121,0.164-0.318,0.098-0.561
						l-1.466-5.685c-0.128-0.488,0.155-1.04,0.624-1.225l5.459-2.156c0.236-0.091,0.368-0.24,0.397-0.406L48.048,51.592z"/>
					<path fill="#EAAD00" d="M38.002,60.173c-1.665,0-3.233-0.403-4.62-1.11l-3.653,7.167c0.151,0.079,0.352,0.058,0.565-0.078
						L35.245,63c0.427-0.27,1.035-0.172,1.359,0.215l3.735,4.528c0.161,0.197,0.345,0.276,0.512,0.252l-1.26-7.948
						C39.074,60.131,38.543,60.173,38.002,60.173z"/>
					<path fill="#EA3200" d="M28.938,54.618l-7.171,3.65c0.079,0.151,0.252,0.255,0.503,0.27l5.859,0.358
						c0.506,0.032,0.941,0.469,0.973,0.975l0.363,5.857c0.015,0.253,0.115,0.426,0.264,0.501l3.653-7.167
						C31.47,58.087,29.913,56.528,28.938,54.618z"/>
				</g>
				<g>
					<path fill="#EAAD00" d="M35.904,51.811c0.396,0.06,0.794,0,1.149-0.184l0.284-0.146c0.93-0.472,1.3-1.608,0.826-2.536
						l-1.823-3.583c-0.108-0.206-0.303-0.353-0.523-0.388c-0.121-0.019-0.244,0-0.35,0.054c-0.148,0.076-0.256,0.216-0.302,0.387
						c-0.043,0.171-0.021,0.356,0.061,0.517l1.757,3.45c0.197,0.391,0.045,0.869-0.349,1.07c-0.151,0.078-0.318,0.104-0.484,0.078
						c-0.249-0.042-0.467-0.2-0.587-0.428l-1.757-3.449c-0.571-1.122-0.147-2.486,0.938-3.041c0.409-0.208,0.867-0.277,1.324-0.208
						c0.721,0.116,1.351,0.576,1.688,1.237l1.824,3.583c0.871,1.708,0.19,3.805-1.519,4.675l-0.285,0.146
						c-0.656,0.333-1.39,0.449-2.117,0.334c-1.1-0.173-2.055-0.865-2.557-1.854l-2.567-5.038l-0.037-0.072
						c-0.337,0.706-0.583,1.469-0.712,2.281c-0.717,4.538,2.377,8.8,6.914,9.516c4.533,0.721,8.796-2.375,9.517-6.913
						c0.718-4.535-2.382-8.795-6.916-9.513c-3.075-0.487-6.017,0.779-7.818,3.056l3.035,5.963
						C34.79,51.34,35.311,51.716,35.904,51.811z"/>
				</g>
			</g>
		</g>
	</g>
</g>
</svg>
