<?xml version="1.0" encoding="utf-8"?>
<!-- Generator: Adobe Illustrator 16.0.3, SVG Export Plug-In . SVG Version: 6.00 Build 0)  -->
<!DOCTYPE svg PUBLIC "-//W3C//DTD SVG 1.1//EN" "http://www.w3.org/Graphics/SVG/1.1/DTD/svg11.dtd">
<svg version="1.1" xmlns="http://www.w3.org/2000/svg" xmlns:xlink="http://www.w3.org/1999/xlink" x="0px" y="0px" width="116px"
	 height="100px" viewBox="0 0 116 100" enable-background="new 0 0 116 100" xml:space="preserve">
<g id="guides">
</g>
<g id="Layer_2">
	<g>
		<g>
			<path fill="#636466" d="M27.871,75.004h-1.523c-0.111,0-0.162-0.049-0.162-0.163v-1.7c0-1.281,0.146-3.533,0.178-3.922
				l-0.066-0.016c-0.047,0.13-0.227,0.874-0.42,1.296l-1.344,3.015c-0.033,0.063-0.082,0.097-0.146,0.097h-0.826
				c-0.064,0-0.113-0.034-0.146-0.097l-1.346-3.015c-0.191-0.422-0.371-1.166-0.42-1.296l-0.063,0.016
				c0.031,0.389,0.176,2.641,0.176,3.922v1.7c0,0.114-0.049,0.163-0.162,0.163h-1.539c-0.115,0-0.162-0.049-0.162-0.163v-9.885
				c0-0.112,0.047-0.161,0.162-0.161h1.361c0.064,0,0.115,0.033,0.146,0.097l2.154,5.153c0.049,0.113,0.178,0.6,0.209,0.729h0.049
				c0.035-0.13,0.178-0.616,0.229-0.729l2.154-5.153c0.033-0.063,0.082-0.097,0.145-0.097h1.363c0.113,0,0.162,0.049,0.162,0.161
				v9.885C28.033,74.955,27.984,75.004,27.871,75.004"/>
			<path fill="#636466" d="M36.588,70.934l-0.469-1.894c-0.033-0.112-0.146-0.762-0.178-0.892h-0.049
				c-0.033,0.13-0.162,0.762-0.195,0.892l-0.486,1.88c-0.031,0.113-0.08,0.259-0.08,0.323c0,0.081,0.064,0.146,0.178,0.146h1.184
				c0.113,0,0.176-0.065,0.176-0.146C36.668,71.179,36.621,71.033,36.588,70.934L36.588,70.934z M39.504,75.004h-1.635
				c-0.082,0-0.146-0.033-0.162-0.115l-0.486-1.7c-0.016-0.081-0.08-0.097-0.162-0.097H34.74c-0.082,0-0.145,0.016-0.162,0.097
				l-0.484,1.7c-0.018,0.082-0.08,0.115-0.162,0.115h-1.621c-0.113,0-0.178-0.049-0.178-0.131c0-0.064,0.047-0.161,0.082-0.291
				l2.947-9.674c0.018-0.08,0.082-0.113,0.164-0.113h1.166c0.08,0,0.146,0.033,0.162,0.113l2.949,9.674
				c0.031,0.098,0.082,0.227,0.082,0.291C39.686,74.955,39.621,75.004,39.504,75.004"/>
			<path fill="#636466" d="M47.168,75.164H46.52c-1.344,0-2.074-0.551-2.561-1.313c-0.145-0.241-0.307-0.502-0.307-0.599
				c0-0.048,0.033-0.082,0.098-0.112l1.295-0.666c0.066-0.031,0.131-0.08,0.195-0.08c0.047,0,0.098,0.031,0.129,0.113
				c0.291,0.697,0.713,0.957,1.15,0.957h0.648c0.633,0,1.166-0.534,1.166-1.167c0-0.876-0.857-1.2-1.732-1.604
				c-1.281-0.616-2.691-1.279-2.691-3.193c0-1.684,1.166-2.867,3.016-2.867h0.26c1.344,0,2.074,0.552,2.559,1.313
				c0.148,0.242,0.307,0.504,0.307,0.599c0,0.05-0.031,0.082-0.096,0.114l-1.295,0.664c-0.066,0.033-0.131,0.082-0.195,0.082
				c-0.047,0-0.096-0.033-0.131-0.115c-0.289-0.695-0.713-0.956-1.148-0.956h-0.26c-0.631,0-1.166,0.536-1.166,1.167
				c0,0.826,0.939,1.07,1.877,1.508c1.232,0.566,2.545,1.328,2.545,3.29C50.182,73.982,49.014,75.164,47.168,75.164"/>
			<path fill="#636466" d="M61.85,75.004h-1.523c-0.113,0-0.162-0.049-0.162-0.163v-4.002c0-0.112-0.047-0.161-0.16-0.161h-3.016
				c-0.115,0-0.164,0.049-0.164,0.161v4.002c0,0.114-0.047,0.163-0.16,0.163h-1.539c-0.115,0-0.164-0.049-0.164-0.163v-9.885
				c0-0.112,0.049-0.161,0.164-0.161h1.539c0.113,0,0.16,0.049,0.16,0.161v3.858c0,0.113,0.049,0.16,0.164,0.16h3.016
				c0.113,0,0.16-0.047,0.16-0.16v-3.858c0-0.112,0.049-0.161,0.162-0.161h1.523c0.113,0,0.162,0.049,0.162,0.161v9.885
				C62.012,74.955,61.963,75.004,61.85,75.004"/>
			<path fill="#636466" d="M73.209,75.004h-5.721c-0.111,0-0.162-0.049-0.162-0.163v-9.885c0-0.112,0.051-0.161,0.162-0.161h5.721
				c0.115,0,0.162,0.049,0.162,0.161v1.377c0,0.116-0.047,0.164-0.162,0.164h-3.857c-0.111,0-0.162,0.047-0.162,0.161v2.156
				c0,0.113,0.051,0.16,0.162,0.16h3.16c0.113,0,0.162,0.049,0.162,0.162v1.379c0,0.112-0.049,0.162-0.162,0.162h-3.16
				c-0.111,0-0.162,0.049-0.162,0.161v2.302c0,0.112,0.051,0.16,0.162,0.16h3.857c0.115,0,0.162,0.049,0.162,0.164v1.376
				C73.371,74.955,73.324,75.004,73.209,75.004"/>
			<path fill="#636466" d="M83.176,67.663c0-0.632-0.535-1.166-1.168-1.166h-1.783c-0.113,0-0.162,0.047-0.162,0.161v2.156
				c0,0.113,0.049,0.16,0.162,0.16h1.783c0.633,0,1.168-0.535,1.168-1.166V67.663L83.176,67.663z M85.037,75.004h-1.668
				c-0.066,0-0.129-0.049-0.146-0.115l-1.426-4.114c-0.018-0.065-0.064-0.097-0.129-0.097h-1.443c-0.113,0-0.162,0.049-0.162,0.161
				v4.002c0,0.114-0.049,0.163-0.162,0.163h-1.537c-0.115,0-0.164-0.049-0.164-0.163v-9.885c0-0.112,0.049-0.161,0.164-0.161h3.645
				c1.848,0,3.014,1.184,3.014,3.014v0.16c0,0.828-0.695,1.785-1.313,2.205c-0.049,0.033-0.064,0.064-0.064,0.131
				c0,0.048,0.031,0.129,0.08,0.259l1.395,4.05c0.033,0.115,0.08,0.211,0.08,0.26C85.199,74.955,85.152,75.004,85.037,75.004"/>
			<path fill="#636466" d="M96.105,65.185l-2.639,4.94c-0.086,0.163-0.115,0.26-0.115,0.455v4.261c0,0.114-0.051,0.163-0.164,0.163
				h-1.539c-0.113,0-0.16-0.049-0.16-0.163v-4.277c0-0.163-0.018-0.243-0.113-0.438l-2.643-4.94
				c-0.066-0.116-0.113-0.196-0.113-0.261c0-0.08,0.063-0.129,0.18-0.129h1.797c0.066,0,0.113,0.049,0.145,0.097l1.539,3.176
				c0.031,0.081,0.1,0.13,0.146,0.13c0.051,0,0.115-0.049,0.146-0.13l1.541-3.176c0.031-0.048,0.078-0.097,0.145-0.097h1.783
				c0.115,0,0.178,0.049,0.178,0.129C96.219,64.988,96.156,65.085,96.105,65.185"/>
			<path fill-rule="evenodd" clip-rule="evenodd" fill="#BF2B2E" d="M90.799,14H24.643c-2.213,0-4.078,1.479-4.666,3.502
				l6.734,2.775l2.375,0.997c0,0,0.434,0.012,0.773,0.14c0.344,0.124,0.623,0.373,0.623,0.373s1.234,0.441,1.598,0.7
				c0.264,0.188,0.535,0.651,0.592,1.108c0.059,0.461-0.061,1.123-0.061,1.123s3.102,1.272,3.74,1.445
				c0.639,0.174,2.121,0.133,3.516-0.066s8.199-1.193,8.199-1.193L60.111,23.1c0,0,5.041-0.724,5.555-0.771
				c0.516-0.051,1.639-0.004,2.484,0.232c0.848,0.236,3.527,1.052,3.527,1.052l2.777,0.885l4.43,1.38c0,0,0.121-0.115,0.369-0.179
				c0.244-0.064,0.691-0.171,1.25,0.094c0.561,0.263,0.818,0.861,0.818,0.861l2.48,0.753c0,0,0.031-0.378,0.158-0.841
				c0.127-0.464,0.32-0.903,0.58-1.274c0.209-0.297,0.662-0.776,1.131-0.936c0.473-0.163,0.994-0.081,1.363,0.107
				c0.365,0.189,0.756,0.721,0.943,1.176c0.186,0.455,0.334,1.328,0.354,1.918c0.021,0.586-0.092,1.188-0.33,1.504
				c-0.242,0.313-0.65,0.629-1.168,0.681c-0.514,0.053-1.219-0.117-1.219-0.117s-0.004,0.029,0.025,0.167
				c0.031,0.137,0.162,1.052,0.398,2.084c0.234,1.036,0.535,2.432,0.674,3.422c0.141,0.99,0,2.055-0.223,2.636
				c-0.219,0.581-0.672,1.376-1.111,1.688c-0.434,0.314-1.012,0.415-1.479,0.254c-0.469-0.162-0.861-0.486-1.154-1.017
				c-0.293-0.528-0.559-1.7-0.883-3.173c-0.32-1.473-0.83-3.549-1.156-4.994c-0.166-0.746-0.352-1.536-0.48-2.055
				c-0.119-0.482-0.195-0.718-0.195-0.718l-0.615-0.216c0,0-0.031,0.025-0.213,0.333c-0.184,0.311-0.334,0.888-0.354,1.588
				c-0.02,0.703,0.334,1.975,0.662,3.39c0.328,1.416,0.912,4.088,1.1,5.027c0.199,1.017,0.801,3.571,0.988,4.467
				c0.191,0.896,0.455,1.905,0.531,2.648c0.076,0.746-0.014,1.437-0.123,1.873c-0.107,0.437-0.398,1.316-0.926,1.836
				c-0.074,0.07-0.146,0.137-0.221,0.2l-0.021-0.036c-0.494,0.309-1.148,0.561-1.605,0.49c-0.523-0.085-0.918-0.35-1.287-0.929
				c-0.371-0.581-0.498-1.237-0.824-2.565s-0.951-3.874-1.273-5.318c-0.32-1.441-0.918-3.709-1.16-4.836
				c-0.242-1.123-0.662-2.684-0.891-3.705c-0.23-1.021-0.416-1.488-0.494-1.645c-0.078-0.154-0.121-0.25-0.305-0.165
				c-0.189,0.085-0.258,0.149-0.58,0.634c-0.32,0.486-0.391,1.012-0.391,1.646c0,0.639,0.195,1.512,0.443,2.508
				s0.92,3.984,1.232,5.297c0.314,1.309,0.961,4.092,0.961,4.092s0.879,3.764,1.141,4.878c0.256,1.112,0.566,2.438,0.646,3.22
				c0.082,0.781-0.023,1.719-0.254,2.335c-0.227,0.616-0.691,1.353-1.313,1.704c-0.619,0.353-1.213,0.434-1.791,0.254
				c-0.58-0.178-1.072-0.75-1.27-1.318c-0.201-0.566-0.746-2.434-0.746-2.434l-1.605-5.864c0,0-1.27-4.521-1.594-5.761
				s-0.785-2.818-0.916-3.174c-0.133-0.352-0.283-0.506-0.561-0.306c-0.277,0.202-0.41,0.299-0.736,0.899
				c-0.33,0.6-0.342,1.234-0.283,1.879c0.057,0.648,0.301,1.484,0.563,2.496c0.258,1.013,0.791,3.14,1.074,4.285
				c0.279,1.148,0.777,3.037,0.777,3.037s0.713,2.811,0.914,3.652c0.197,0.846,0.299,1.569,0.225,2.413
				c-0.074,0.841-0.432,1.626-0.688,1.978c-0.258,0.35-0.777,1.078-1.488,1.258c-0.709,0.178-1.389-0.002-1.828-0.348
				c-0.438-0.345-0.756-1.09-1.061-2.082c-0.305-0.99-0.762-2.874-0.762-2.874s-0.955-3.398-1.271-4.506
				c-0.314-1.106-0.484-1.511-0.596-1.729c-0.109-0.222-0.256-0.216-0.521,0.002c-0.303,0.252-0.453,0.393-0.715,1.033
				c-0.26,0.641-0.252,1.033-0.158,1.742c0.092,0.711,0.57,2.076,0.895,3.215c0.326,1.139,0.76,2.613,0.891,3.344
				c0.133,0.732,0.047,1.716-0.223,2.43c-0.049,0.123-0.109,0.247-0.168,0.371h29.555c2.686,0,4.863-2.176,4.863-4.861V18.86
				C95.662,16.177,93.484,14,90.799,14"/>
			<path fill-rule="evenodd" clip-rule="evenodd" fill="#BF2B2E" d="M67.869,24.066c-0.715-0.17-1.391-0.29-2.23-0.191
				c-0.842,0.096-5.215,0.725-5.215,0.725s-6.492,0.943-8.023,1.193c-1.529,0.251-7.74,1.137-7.74,1.137s-4.871,0.752-5.986,0.849
				c-1.115,0.1-1.961,0.028-2.615-0.124c-0.559-0.131-1.008-0.304-1.008-0.304s0.545,0.392,0.822,0.825
				c0.279,0.436,0.406,1.021,0.455,1.695c0.053,0.676,0.072,5.504,0.076,5.563c0.004,0.061,0.055,5.5,0.055,5.5
				s0.023,2.688,0.051,3.257c0.025,0.568,0.029,1.107,0.113,1.294c0.086,0.188,0.379,0.535,1.006,0.883
				c0.627,0.344,3.73,1.969,3.73,1.969l5.67,2.968c0,0,5.998,3.196,6.982,3.743s1.857,1.076,2.438,1.705
				c0.582,0.628,1.1,1.379,1.42,2.109c0.318,0.73,0.502,1.398,0.613,1.605c0.02,0.035,0.041,0.065,0.063,0.096h0.539
				c0.264-0.206,0.482-0.476,0.693-1.021c0.221-0.59,0.137-1.341,0.023-1.909c-0.111-0.568-0.557-1.974-0.791-2.777
				c-0.234-0.806-0.582-1.991-0.762-2.601c-0.178-0.607-0.313-1.586-0.182-2.418c0.135-0.836,0.441-1.699,1.088-2.381
				c0.641-0.68,1.309-0.944,1.82-0.988c0.602-0.049,1.152,0.243,1.609,0.836c0.51,0.666,0.678,1.382,0.898,2.084
				c0.223,0.703,1.285,4.783,1.285,4.783s0.65,2.391,0.852,3.047c0.207,0.699,0.305,1.004,0.377,1.074
				c0.078,0.072,0.197,0.045,0.463-0.186c0.271-0.232,0.518-0.597,0.646-0.955c0.129-0.359,0.211-1.145,0.127-1.617
				c-0.084-0.479-0.631-2.607-0.631-2.607s-0.582-2.154-0.736-2.77c-0.184-0.754-0.748-2.959-1.115-4.379
				c-0.371-1.423-0.803-3.17-0.984-3.938c-0.182-0.771-0.291-1.977-0.029-2.832c0.242-0.789,0.67-1.603,1.357-2.177
				c0.684-0.573,1.391-0.706,2.031-0.563c0.654,0.147,1.135,0.773,1.467,1.522c0.301,0.67,0.676,2.223,1.057,3.574
				c0.379,1.348,1.285,4.678,1.703,6.253c0.42,1.575,1.064,3.792,1.383,4.987c0.316,1.194,0.557,2.162,0.715,2.521
				c0.162,0.355,0.408,0.267,0.725-0.074c0.316-0.345,0.555-0.857,0.611-1.398c0.057-0.54-0.014-1.278-0.168-1.955
				s-0.949-3.976-0.949-3.976l-1.156-4.878l-1.094-4.608c0,0-0.775-3.413-0.924-4.044c-0.146-0.632-0.359-1.578-0.123-2.613
				c0.234-1.036,0.555-1.754,1.197-2.348c0.646-0.593,1.326-0.703,1.949-0.604s1.092,0.606,1.389,1.206
				c0.299,0.599,0.84,2.931,0.84,2.931l0.965,4.237c0,0,0.734,3.146,1.131,4.846c0.395,1.703,1.039,4.311,1.189,4.914
				c0.152,0.604,0.299,0.959,0.381,1.09c0.08,0.129,0.342-0.076,0.539-0.309c0.178-0.235,0.434-0.723,0.516-1.149
				c0.08-0.429,0.104-1.025-0.008-1.528c-0.109-0.5-0.381-1.627-0.381-1.627s-0.449-2.139-0.746-3.389
				c-0.301-1.248-1.076-4.803-1.076-4.803s-0.6-2.807-0.836-3.828c-0.234-1.02-0.305-2.143-0.156-2.867c0.15-0.725,0.4-1.2,0.4-1.2
				s-0.654-0.204-1.426-0.445l0.004,0.018c-1.24-0.398-2.654-0.854-3.627-1.167C70.492,24.873,68.58,24.236,67.869,24.066"/>
			<path fill-rule="evenodd" clip-rule="evenodd" fill="#BF2B2E" d="M56.09,59.217c-0.299-0.7-0.65-1.029-1.051-1.412
				c-0.406-0.381-1.35-0.908-2.785-1.717c-1.436-0.807-4.668-2.511-5.883-3.178c-1.453-0.797-3.201-1.736-4.541-2.428
				c-1.342-0.69-4.391-2.275-5.342-2.861c-0.949-0.586-1.42-1.268-1.564-1.914c-0.146-0.645-0.096-2.232-0.096-2.232
				s-0.025-6.061-0.008-7.74c0.021-1.68,0.039-5.459-0.088-6.203s-0.459-0.854-1.035-1.148c-0.574-0.293-2.645-1.143-2.645-1.143
				s-0.367,0.318-0.908,0.609c-0.537,0.291-1.193,0.318-1.6,0.238c-0.408-0.081-1.68-0.644-1.68-0.644s-0.09,0.018-0.457-0.056
				c-0.363-0.073-0.785-0.43-0.785-0.43l-2.313-1.032l-3.529-1.53v31.305c0,2.686,2.176,4.861,4.861,4.861h31.982
				C56.471,60.176,56.309,59.735,56.09,59.217"/>
			<path fill-rule="evenodd" clip-rule="evenodd" fill="#BE2B2E" d="M83.574,35.863c0.287,1.261,0.418,1.841,0.537,2.107
				c0.119,0.268,0.176,0.277,0.299,0.164c0.123-0.111,0.322-0.42,0.459-0.734c0.143-0.316,0.25-0.739,0.25-1.238
				c0.002-0.497-0.023-0.984-0.207-1.775c-0.188-0.793-0.518-2.489-0.744-3.608c-0.227-1.12-0.266-1.302-0.281-1.466
				c-0.014-0.164-0.08-0.219-0.08-0.219l-1.857-0.6l0.914,4.105C82.863,32.6,83.291,34.604,83.574,35.863"/>
			<path fill-rule="evenodd" clip-rule="evenodd" fill="#BE2B2E" d="M86.656,27.939c0.047-0.213,0.09-0.557-0.031-1.104
				s-0.203-0.737-0.24-0.785c-0.047-0.062-0.01-0.164-0.307,0.128c-0.234,0.225-0.438,0.674-0.508,0.998
				c-0.072,0.326-0.123,0.73-0.123,0.73s0.732,0.133,0.914,0.177C86.539,28.125,86.605,28.15,86.656,27.939"/>
		</g>
		<g>
			<path fill="#636466" d="M32.271,84.266c0,0.086-0.045,0.129-0.139,0.129h-0.477c-0.039,0-0.068-0.012-0.09-0.035
				c-0.021-0.025-0.037-0.053-0.049-0.085L30.99,82.41h-2.098l-0.518,1.864c-0.01,0.032-0.029,0.06-0.057,0.085
				c-0.027,0.023-0.059,0.035-0.09,0.035H27.75c-0.092,0-0.137-0.043-0.137-0.129c0-0.026,0.002-0.045,0.008-0.057l1.5-5.273
				c0.031-0.125,0.078-0.227,0.141-0.304c0.063-0.079,0.131-0.141,0.207-0.188c0.074-0.046,0.156-0.077,0.238-0.097
				c0.084-0.02,0.164-0.027,0.24-0.027c0.074,0,0.152,0.007,0.234,0.023c0.08,0.016,0.158,0.048,0.234,0.094
				c0.076,0.045,0.145,0.107,0.205,0.186c0.064,0.079,0.111,0.18,0.143,0.305l1.498,5.281
				C32.268,84.221,32.271,84.239,32.271,84.266z M30.1,79.105c-0.027-0.098-0.078-0.146-0.152-0.146
				c-0.082,0-0.135,0.048-0.164,0.146l-0.736,2.666h1.791L30.1,79.105z"/>
			<path fill="#636466" d="M36.338,84.346c-0.033,0.033-0.07,0.049-0.113,0.049h-0.389c-0.043,0-0.082-0.015-0.113-0.049
				c-0.033-0.031-0.049-0.068-0.049-0.112v-2.66c0-0.205-0.018-0.375-0.053-0.513s-0.09-0.246-0.162-0.328
				c-0.074-0.08-0.164-0.138-0.275-0.173c-0.109-0.035-0.244-0.053-0.402-0.053c-0.172,0-0.35,0.029-0.533,0.089
				c-0.184,0.059-0.369,0.135-0.559,0.227v3.411c0,0.044-0.016,0.081-0.049,0.112c-0.033,0.034-0.07,0.049-0.113,0.049h-0.398
				c-0.041,0-0.078-0.016-0.107-0.049c-0.031-0.031-0.045-0.07-0.045-0.112v-4.132c0-0.043,0.014-0.081,0.045-0.113
				c0.029-0.032,0.066-0.049,0.107-0.049h0.406c0.043,0,0.08,0.017,0.109,0.049c0.029,0.033,0.045,0.072,0.045,0.115v0.157
				c0.227-0.126,0.436-0.222,0.631-0.282c0.195-0.063,0.414-0.096,0.656-0.096c0.492,0,0.85,0.146,1.074,0.438
				c0.225,0.292,0.336,0.708,0.336,1.247v2.666C36.387,84.275,36.369,84.314,36.338,84.346z"/>
			<path fill="#636466" d="M40.186,84.346c-0.025,0.033-0.061,0.049-0.105,0.049h-0.445c-0.043,0-0.078-0.016-0.105-0.049
				c-0.025-0.031-0.041-0.07-0.041-0.112v-5.704c0-0.043,0.016-0.079,0.041-0.108c0.027-0.029,0.063-0.046,0.105-0.046h0.445
				c0.045,0,0.08,0.017,0.105,0.046c0.027,0.029,0.041,0.065,0.041,0.108v5.704C40.227,84.275,40.213,84.314,40.186,84.346z"/>
			<path fill="#636466" d="M44.771,84.346c-0.033,0.033-0.07,0.049-0.113,0.049h-0.391c-0.041,0-0.08-0.015-0.111-0.049
				c-0.033-0.031-0.049-0.068-0.049-0.112v-2.66c0-0.205-0.018-0.375-0.053-0.513s-0.09-0.246-0.162-0.328
				c-0.074-0.08-0.164-0.138-0.275-0.173s-0.246-0.053-0.402-0.053c-0.172,0-0.35,0.029-0.535,0.089
				c-0.182,0.059-0.369,0.135-0.557,0.227v3.411c0,0.044-0.018,0.081-0.049,0.112c-0.033,0.034-0.07,0.049-0.115,0.049h-0.396
				c-0.043,0-0.078-0.016-0.107-0.049c-0.031-0.031-0.047-0.07-0.047-0.112v-4.132c0-0.043,0.016-0.081,0.047-0.113
				c0.029-0.032,0.064-0.049,0.107-0.049h0.406c0.043,0,0.078,0.017,0.107,0.049c0.031,0.033,0.047,0.072,0.047,0.115v0.157
				c0.227-0.126,0.436-0.222,0.631-0.282c0.195-0.063,0.412-0.096,0.656-0.096c0.492,0,0.85,0.146,1.074,0.438
				c0.223,0.292,0.334,0.708,0.334,1.247v2.666C44.818,84.275,44.803,84.314,44.771,84.346z"/>
			<path fill="#636466" d="M48.061,84.412c-0.082,0.01-0.172,0.02-0.268,0.027c-0.098,0.008-0.184,0.012-0.26,0.012
				c-0.184,0-0.346-0.014-0.486-0.043c-0.141-0.031-0.254-0.086-0.344-0.168c-0.09-0.08-0.156-0.189-0.203-0.33
				c-0.045-0.141-0.068-0.322-0.068-0.544v-2.827l-0.787-0.09c-0.102-0.01-0.152-0.059-0.152-0.145v-0.22
				c0-0.097,0.051-0.146,0.152-0.146h0.787v-0.793c0-0.093,0.049-0.146,0.145-0.163l0.422-0.064h0.025
				c0.033,0,0.061,0.012,0.086,0.036c0.023,0.023,0.035,0.059,0.035,0.102v0.883h0.875c0.043,0,0.08,0.017,0.113,0.049
				c0.031,0.032,0.049,0.07,0.049,0.113v0.275c0,0.043-0.018,0.082-0.049,0.113c-0.033,0.033-0.07,0.049-0.113,0.049h-0.875v2.82
				c0,0.221,0.033,0.361,0.098,0.42c0.064,0.061,0.178,0.09,0.34,0.09h0.453c0.113,0,0.17,0.037,0.17,0.115v0.287
				C48.205,84.348,48.158,84.395,48.061,84.412z"/>
			<path fill="#636466" d="M52.16,82.395h-2.715v0.113c0,0.48,0.096,0.82,0.283,1.021c0.189,0.199,0.471,0.299,0.844,0.299
				c0.236,0,0.488-0.008,0.756-0.023c0.27-0.017,0.496-0.039,0.686-0.066h0.041c0.031,0,0.061,0.009,0.088,0.025
				c0.027,0.016,0.041,0.047,0.041,0.089v0.275c0,0.054-0.012,0.095-0.033,0.126c-0.02,0.029-0.064,0.05-0.129,0.061
				c-0.232,0.043-0.463,0.077-0.693,0.101c-0.229,0.024-0.48,0.036-0.756,0.036c-0.234,0-0.459-0.03-0.682-0.092
				c-0.221-0.063-0.418-0.168-0.588-0.316c-0.17-0.149-0.307-0.348-0.412-0.596s-0.158-0.562-0.158-0.939v-0.729
				c0-0.583,0.154-1.044,0.463-1.386c0.307-0.34,0.752-0.51,1.336-0.51c0.297,0,0.557,0.045,0.777,0.133
				c0.221,0.09,0.406,0.217,0.555,0.381c0.148,0.166,0.262,0.365,0.336,0.6c0.076,0.236,0.113,0.496,0.113,0.782v0.438
				C52.313,82.335,52.262,82.395,52.16,82.395z M51.6,81.778c0-0.458-0.088-0.785-0.264-0.979c-0.178-0.195-0.443-0.292-0.801-0.292
				c-0.354,0-0.623,0.103-0.809,0.308c-0.188,0.205-0.281,0.525-0.281,0.964v0.073H51.6V81.778z"/>
			<path fill="#636466" d="M53.959,84.346c-0.029,0.033-0.064,0.049-0.105,0.049h-0.422c-0.045,0-0.078-0.016-0.105-0.049
				c-0.027-0.031-0.041-0.07-0.041-0.112v-5.776c0-0.043,0.014-0.08,0.041-0.109s0.061-0.044,0.105-0.044h0.422
				c0.041,0,0.076,0.015,0.105,0.044c0.025,0.029,0.039,0.066,0.039,0.109v5.776C53.998,84.275,53.984,84.314,53.959,84.346z"/>
			<path fill="#636466" d="M60.551,84.293c-0.031,0.025-0.07,0.043-0.111,0.053c-0.088,0.017-0.174,0.031-0.26,0.046
				c-0.086,0.013-0.182,0.023-0.285,0.032c-0.102,0.008-0.217,0.015-0.348,0.021c-0.129,0.005-0.279,0.007-0.453,0.007
				c-0.248,0-0.5-0.037-0.754-0.112c-0.254-0.076-0.484-0.21-0.689-0.401s-0.371-0.448-0.502-0.77
				c-0.129-0.322-0.193-0.728-0.193-1.22v-1.125c0-0.498,0.064-0.907,0.193-1.228c0.131-0.322,0.297-0.577,0.502-0.766
				c0.205-0.189,0.436-0.321,0.689-0.397c0.254-0.075,0.506-0.112,0.754-0.112c0.26,0,0.506,0.014,0.742,0.043
				c0.234,0.031,0.439,0.059,0.619,0.086c0.086,0.012,0.129,0.047,0.129,0.105v0.412c0,0.028-0.004,0.049-0.016,0.064
				c-0.012,0.017-0.039,0.025-0.082,0.025h-0.023c-0.07-0.006-0.158-0.012-0.268-0.021c-0.107-0.007-0.223-0.017-0.344-0.024
				s-0.248-0.016-0.377-0.02c-0.131-0.006-0.254-0.009-0.373-0.009c-0.199,0-0.385,0.03-0.555,0.094
				c-0.17,0.062-0.318,0.164-0.445,0.308c-0.129,0.144-0.229,0.332-0.301,0.566s-0.109,0.526-0.109,0.872v1.125
				c0,0.341,0.037,0.628,0.109,0.862c0.072,0.236,0.172,0.426,0.301,0.567c0.127,0.144,0.275,0.247,0.445,0.312
				c0.17,0.066,0.355,0.099,0.555,0.099c0.113,0,0.234-0.003,0.359-0.009c0.129-0.004,0.252-0.01,0.375-0.016
				c0.121-0.006,0.234-0.012,0.34-0.021c0.105-0.007,0.193-0.014,0.264-0.02h0.031c0.086,0,0.129,0.043,0.129,0.13v0.333
				C60.6,84.233,60.584,84.27,60.551,84.293z"/>
			<path fill="#636466" d="M64.699,83.285c-0.076,0.244-0.188,0.451-0.34,0.625c-0.152,0.172-0.34,0.306-0.568,0.399
				c-0.227,0.095-0.488,0.142-0.785,0.142s-0.557-0.047-0.781-0.142c-0.225-0.094-0.412-0.228-0.563-0.399
				c-0.15-0.174-0.266-0.381-0.34-0.625c-0.076-0.242-0.115-0.512-0.115-0.81v-0.616c0-0.297,0.039-0.567,0.115-0.811
				c0.074-0.242,0.189-0.449,0.34-0.623c0.15-0.172,0.338-0.307,0.563-0.4c0.225-0.096,0.484-0.143,0.781-0.143
				s0.559,0.047,0.785,0.143c0.229,0.094,0.416,0.229,0.568,0.4c0.152,0.174,0.264,0.381,0.34,0.623
				c0.076,0.243,0.113,0.514,0.113,0.811v0.616C64.813,82.773,64.775,83.043,64.699,83.285z M64.1,81.859
				c0-0.415-0.086-0.744-0.26-0.988c-0.172-0.242-0.449-0.364-0.834-0.364c-0.377,0-0.652,0.12-0.826,0.36
				c-0.172,0.24-0.258,0.571-0.258,0.992v0.616c0,0.416,0.084,0.745,0.254,0.987c0.17,0.243,0.447,0.365,0.83,0.365
				c0.379,0,0.656-0.121,0.832-0.361c0.174-0.24,0.262-0.57,0.262-0.991V81.859z"/>
			<path fill="#636466" d="M71.002,84.346c-0.033,0.033-0.07,0.049-0.113,0.049H70.5c-0.043,0-0.082-0.016-0.113-0.049
				c-0.033-0.031-0.049-0.07-0.049-0.112v-2.868c0-0.173-0.02-0.314-0.057-0.425c-0.039-0.111-0.09-0.199-0.154-0.264
				s-0.143-0.11-0.23-0.138c-0.09-0.026-0.188-0.041-0.297-0.041c-0.145,0-0.301,0.021-0.465,0.066
				c-0.164,0.042-0.326,0.094-0.482,0.153c0.049,0.177,0.072,0.388,0.072,0.632v2.884c0,0.042-0.012,0.081-0.041,0.112
				c-0.025,0.033-0.061,0.049-0.104,0.049h-0.43c-0.043,0-0.076-0.016-0.102-0.049c-0.023-0.031-0.037-0.07-0.037-0.112V81.35
				c0-0.18-0.012-0.322-0.035-0.434c-0.025-0.11-0.064-0.197-0.119-0.26c-0.053-0.062-0.117-0.104-0.193-0.126
				c-0.076-0.021-0.168-0.032-0.275-0.032c-0.146,0-0.305,0.032-0.475,0.094s-0.34,0.137-0.514,0.223v3.419
				c0,0.042-0.014,0.081-0.041,0.112c-0.025,0.033-0.061,0.049-0.105,0.049h-0.43c-0.041,0-0.076-0.016-0.1-0.049
				c-0.025-0.031-0.037-0.07-0.037-0.112v-4.132c0-0.043,0.016-0.081,0.045-0.113s0.066-0.049,0.109-0.049h0.404
				c0.043,0,0.08,0.017,0.111,0.049c0.029,0.032,0.043,0.07,0.043,0.113v0.153c0.162-0.101,0.344-0.19,0.543-0.267
				s0.412-0.114,0.639-0.114c0.174,0,0.328,0.026,0.459,0.077c0.133,0.052,0.25,0.137,0.352,0.256
				c0.227-0.107,0.455-0.191,0.686-0.246c0.229-0.058,0.449-0.087,0.66-0.087c0.184,0,0.355,0.024,0.516,0.073
				c0.158,0.05,0.297,0.132,0.416,0.248c0.117,0.115,0.211,0.27,0.279,0.461c0.066,0.191,0.102,0.428,0.102,0.709v2.868
				C71.051,84.275,71.033,84.314,71.002,84.346z"/>
			<path fill="#636466" d="M75.061,83.938c-0.291,0.343-0.734,0.514-1.328,0.514c-0.125,0-0.273-0.007-0.449-0.023
				c-0.176-0.016-0.342-0.037-0.498-0.065v1.466c0,0.045-0.016,0.081-0.045,0.11c-0.031,0.029-0.066,0.044-0.109,0.044h-0.414
				c-0.043,0-0.078-0.015-0.105-0.044s-0.041-0.065-0.041-0.11v-5.573c0-0.053,0.012-0.094,0.029-0.12
				c0.018-0.027,0.066-0.05,0.141-0.066c0.217-0.053,0.457-0.098,0.723-0.133c0.264-0.035,0.52-0.053,0.77-0.053
				c0.301,0,0.564,0.047,0.785,0.143c0.223,0.094,0.406,0.229,0.551,0.4c0.146,0.174,0.254,0.383,0.324,0.632
				s0.105,0.524,0.105,0.826v0.583C75.498,83.104,75.352,83.595,75.061,83.938z M74.785,81.884c0-0.211-0.018-0.403-0.053-0.575
				s-0.094-0.32-0.174-0.441s-0.189-0.215-0.324-0.284c-0.135-0.067-0.303-0.101-0.502-0.101c-0.174,0-0.346,0.008-0.52,0.024
				c-0.172,0.017-0.316,0.035-0.428,0.058v3.207c0.135,0.027,0.293,0.047,0.477,0.061c0.186,0.014,0.34,0.021,0.471,0.021
				c0.199,0,0.367-0.03,0.502-0.094c0.135-0.062,0.244-0.152,0.324-0.271c0.08-0.119,0.139-0.266,0.174-0.438
				c0.035-0.171,0.053-0.366,0.053-0.583V81.884z"/>
			<path fill="#636466" d="M79.428,84.346c-0.033,0.033-0.07,0.049-0.115,0.049h-0.371c-0.045,0-0.08-0.016-0.115-0.049
				c-0.031-0.031-0.047-0.07-0.047-0.112v-0.179c-0.193,0.114-0.395,0.208-0.6,0.284c-0.205,0.075-0.422,0.112-0.648,0.112
				c-0.172,0-0.34-0.02-0.498-0.06c-0.158-0.041-0.299-0.112-0.422-0.216c-0.121-0.102-0.219-0.236-0.291-0.404
				s-0.109-0.377-0.109-0.633v-0.096c0-0.222,0.033-0.414,0.102-0.576c0.066-0.161,0.178-0.297,0.332-0.408s0.354-0.193,0.604-0.248
				c0.248-0.053,0.553-0.08,0.916-0.08h0.598v-0.324c0-0.342-0.064-0.578-0.193-0.713s-0.354-0.203-0.674-0.203
				c-0.264,0-0.496,0.008-0.695,0.021c-0.201,0.013-0.381,0.027-0.543,0.043h-0.039c-0.039,0-0.072-0.007-0.104-0.024
				c-0.029-0.017-0.043-0.05-0.043-0.104v-0.283c0-0.087,0.057-0.139,0.17-0.154c0.166-0.026,0.35-0.051,0.547-0.073
				s0.432-0.032,0.707-0.032c0.563,0,0.967,0.133,1.213,0.401c0.246,0.267,0.369,0.642,0.369,1.122v2.827
				C79.477,84.275,79.459,84.314,79.428,84.346z M78.762,82.24h-0.598c-0.244,0-0.445,0.016-0.609,0.045
				c-0.16,0.029-0.287,0.074-0.381,0.138c-0.09,0.062-0.156,0.144-0.193,0.243s-0.057,0.223-0.057,0.367v0.099
				c0,0.292,0.064,0.486,0.195,0.587c0.129,0.1,0.313,0.15,0.551,0.15c0.189,0,0.369-0.027,0.541-0.081
				c0.174-0.054,0.357-0.135,0.551-0.243V82.24z"/>
			<path fill="#636466" d="M83.859,84.346c-0.033,0.033-0.07,0.049-0.115,0.049h-0.389c-0.043,0-0.08-0.015-0.113-0.049
				c-0.033-0.031-0.049-0.068-0.049-0.112v-2.66c0-0.205-0.018-0.375-0.053-0.513s-0.09-0.246-0.16-0.328
				c-0.074-0.08-0.166-0.138-0.275-0.173c-0.111-0.035-0.246-0.053-0.402-0.053c-0.172,0-0.352,0.029-0.535,0.089
				c-0.182,0.059-0.369,0.135-0.557,0.227v3.411c0,0.044-0.018,0.081-0.051,0.112c-0.031,0.034-0.07,0.049-0.113,0.049H80.65
				c-0.043,0-0.08-0.016-0.109-0.049c-0.029-0.031-0.045-0.07-0.045-0.112v-4.132c0-0.043,0.016-0.081,0.045-0.113
				s0.066-0.049,0.109-0.049h0.404c0.045,0,0.08,0.017,0.109,0.049c0.029,0.033,0.047,0.072,0.047,0.115v0.157
				c0.225-0.126,0.436-0.222,0.631-0.282c0.195-0.063,0.412-0.096,0.656-0.096c0.49,0,0.848,0.146,1.074,0.438
				c0.223,0.292,0.334,0.708,0.334,1.247v2.666C83.906,84.275,83.891,84.314,83.859,84.346z"/>
			<path fill="#636466" d="M88.387,80.078c0,0.025-0.004,0.045-0.008,0.057l-1.338,4.666c-0.064,0.221-0.133,0.406-0.205,0.559
				c-0.074,0.151-0.166,0.274-0.281,0.368c-0.111,0.095-0.248,0.164-0.408,0.206C85.986,85.979,85.793,86,85.559,86
				c-0.111,0-0.232-0.008-0.359-0.021c-0.127-0.015-0.232-0.032-0.32-0.053c-0.049-0.012-0.088-0.024-0.121-0.041
				s-0.049-0.046-0.049-0.089v-0.299c0-0.087,0.051-0.131,0.152-0.131h0.025c0.092,0.01,0.213,0.021,0.361,0.032
				c0.148,0.012,0.27,0.017,0.359,0.017c0.115,0,0.215-0.01,0.301-0.028s0.16-0.054,0.223-0.105
				c0.061-0.052,0.115-0.122,0.162-0.211c0.045-0.089,0.086-0.204,0.117-0.345l0.08-0.332h-0.111c-0.061,0-0.117-0.004-0.176-0.016
				c-0.057-0.011-0.111-0.035-0.162-0.072c-0.051-0.038-0.098-0.096-0.143-0.17c-0.041-0.076-0.082-0.176-0.119-0.301l-1.078-3.701
				c-0.006-0.012-0.01-0.031-0.01-0.057c0-0.093,0.051-0.139,0.146-0.139h0.445c0.033,0,0.061,0.014,0.086,0.041
				s0.043,0.057,0.053,0.088l0.957,3.525c0.02,0.08,0.045,0.13,0.07,0.148c0.029,0.02,0.055,0.029,0.082,0.029h0.129l0.99-3.71
				c0.01-0.032,0.029-0.062,0.057-0.085c0.025-0.025,0.059-0.037,0.096-0.037h0.455C88.344,79.939,88.387,79.985,88.387,80.078z"/>
		</g>
	</g>
</g>
</svg>
