<?xml version="1.0" encoding="utf-8"?>
<!-- Generator: Adobe Illustrator 16.0.3, SVG Export Plug-In . SVG Version: 6.00 Build 0)  -->
<!DOCTYPE svg PUBLIC "-//W3C//DTD SVG 1.1//EN" "http://www.w3.org/Graphics/SVG/1.1/DTD/svg11.dtd">
<svg version="1.1" xmlns="http://www.w3.org/2000/svg" xmlns:xlink="http://www.w3.org/1999/xlink" x="0px" y="0px" width="225px"
	 height="100px" viewBox="0 0 225 100" enable-background="new 0 0 225 100" xml:space="preserve">
<g id="guides">
</g>
<g id="Layer_2">
	<g>
		<path fill="#005E97" d="M188.563,48.684v-8.451h6.92c2.253,0,4.205,1.87,4.205,4.12c0,2.378-1.952,4.331-4.205,4.331H188.563z
			 M182.999,64.055c0,0.426,0.341,0.807,0.806,0.807h3.908c0.424,0,0.807-0.381,0.807-0.807V53.228h4.712l5.649,11.253
			c0.085,0.169,0.296,0.381,0.679,0.381h4.459c0.722,0,1.018-0.679,0.722-1.229l-5.817-10.786c3.695-1.486,6.285-4.673,6.285-8.578
			c0-5.054-4.163-9.129-9.259-9.129h-12.145c-0.465,0-0.806,0.381-0.806,0.806V64.055z M158.358,64.055
			c0,0.426,0.341,0.807,0.808,0.807h17.283c0.467,0,0.807-0.381,0.807-0.807v-3.48c0-0.425-0.34-0.809-0.807-0.809h-12.57v-7.431
			h11.521c0.425,0,0.808-0.34,0.808-0.807v-3.524c0-0.424-0.383-0.807-0.808-0.807h-11.521v-6.965h12.57
			c0.467,0,0.807-0.382,0.807-0.807v-3.481c0-0.425-0.34-0.806-0.807-0.806h-17.283c-0.467,0-0.808,0.381-0.808,0.806V64.055z
			 M126.084,64.692c0.085,0.34,0.424,0.595,0.765,0.595h0.68c0.424,0,0.593-0.213,0.722-0.468l7.516-19.237h0.214l7.599,19.237
			c0.084,0.255,0.34,0.468,0.723,0.468h0.68c0.338,0,0.68-0.255,0.766-0.595l8.023-28.535c0.172-0.595-0.17-1.019-0.764-1.019
			h-3.907c-0.34,0-0.68,0.296-0.763,0.594l-4.332,16.942h-0.17L137.04,35.18c-0.086-0.254-0.297-0.466-0.723-0.466h-0.764
			c-0.425,0-0.637,0.212-0.722,0.466l-6.753,17.495h-0.168l-4.417-16.942c-0.085-0.298-0.425-0.594-0.765-0.594h-3.907
			c-0.594,0-0.934,0.424-0.763,1.019L126.084,64.692z M61.083,48.895v-8.535h4.926c2.378,0,4.374,1.784,4.374,4.121
			c0,2.504-1.996,4.414-4.374,4.414H61.083z M55.563,64.055c0,0.426,0.34,0.807,0.807,0.807h3.906c0.424,0,0.807-0.381,0.807-0.807
			v-9.978h5.309c5.181,0,9.469-4.29,9.469-9.556c0-5.137-4.288-9.383-9.512-9.383H56.37c-0.467,0-0.807,0.381-0.807,0.806V64.055z
			 M25.521,50.043c0-5.352,4.372-9.811,9.725-9.811c5.35,0,9.766,4.459,9.766,9.811c0,5.349-4.416,9.723-9.766,9.723
			C29.894,59.766,25.521,55.392,25.521,50.043 M20,50.043c0,8.492,6.752,15.244,15.246,15.244c8.491,0,15.286-6.752,15.286-15.244
			c0-8.493-6.795-15.329-15.286-15.329C26.752,34.714,20,41.55,20,50.043"/>
		<g>
			<path fill="#009BDF" d="M106.117,34H91.026l1.573,2.981l0.006,0.002c0.065,0.146,0.172,0.278,0.317,0.377
				c0.245,0.166,0.638,0.153,0.638,0.153h11.646c1.76,1.093,6.753,4.866,6.753,12.487l-0.002-0.013c0,6.18-3.436,9.84-5.625,11.585
				c-0.004,0.002-0.005,0.004-0.005,0.004c-0.218,0.173-0.36,0.435-0.36,0.731c0,0.175,0.05,0.336,0.135,0.476v0.005l1.403,2.369
				c2.605-1.761,7.966-6.444,7.966-15.17l0.001,0.013C115.472,38.476,106.117,34,106.117,34"/>
			<path fill="#009BDF" d="M102.124,63.016c0,0-0.003-0.001-0.003-0.003c-0.07-0.147-0.175-0.279-0.319-0.375
				c-0.245-0.166-0.52-0.153-0.52-0.153H89.291c-1.762-1.091-6.754-4.863-6.754-12.483c0-6.181,3.357-9.631,5.546-11.377
				c0.003-0.003,0.005-0.003,0.005-0.006c0.218-0.17,0.361-0.434,0.361-0.729c0-0.176-0.05-0.336-0.134-0.475V37.41l-1.328-2.58
				c-2.604,1.762-7.965,6.445-7.965,15.171C79.022,61.525,88.378,66,88.378,66h15.357L102.124,63.016z"/>
			<path fill="#009BDF" d="M100.6,54.027v1.055c0,1.748-1.444,3.165-3.225,3.165c-1.779,0-3.223-1.417-3.223-3.165v-1.055H100.6z"/>
			<path fill="#009BDF" d="M103.574,50.18v-7.34c0-0.482-0.372-0.875-0.829-0.875h-1.828v8.215H103.574z"/>
			<path fill="#009BDF" d="M93.947,50.18v-7.34c0-0.482-0.373-0.875-0.83-0.875H91.29v8.214L93.947,50.18z"/>
		</g>
	</g>
</g>
</svg>
