<?xml version="1.0" encoding="utf-8"?>
<!-- Generator: Adobe Illustrator 16.0.3, SVG Export Plug-In . SVG Version: 6.00 Build 0)  -->
<!DOCTYPE svg PUBLIC "-//W3C//DTD SVG 1.1//EN" "http://www.w3.org/Graphics/SVG/1.1/DTD/svg11.dtd">
<svg version="1.1" xmlns="http://www.w3.org/2000/svg" xmlns:xlink="http://www.w3.org/1999/xlink" x="0px" y="0px" width="180px"
	 height="100px" viewBox="0 0 180 100" enable-background="new 0 0 180 100" xml:space="preserve">
<g id="guides">
</g>
<g id="Layer_2">
	<g>
		<g>
			<g>
				<circle fill-rule="evenodd" clip-rule="evenodd" fill="#FFFFFF" cx="40.695" cy="49.999" r="20.946"/>
				<path d="M40.694,71c-11.58,0-21-9.421-21-21.001c0-11.578,9.42-20.999,21-20.999s21.001,9.421,21.001,20.999
					C61.695,61.579,52.274,71,40.694,71z M40.694,29.109c-11.521,0-20.891,9.371-20.891,20.89c0,11.521,9.37,20.892,20.891,20.892
					c11.52,0,20.892-9.371,20.892-20.892C61.586,38.48,52.214,29.109,40.694,29.109z"/>
			</g>
			<g>
				<g>
					<path fill="#EE3735" d="M52.576,34.192l0.046-0.185c-3.326-2.484-7.456-3.956-11.928-3.956
						c-11.017,0-19.948,8.932-19.948,19.947c0,4.528,1.511,8.702,4.052,12.05l0.426-0.162
						C38.817,57.117,48.421,48.386,52.576,34.192z"/>
				</g>
				<g>
					<path fill="#1F6FB3" d="M58.128,40.313c0,0-0.018-0.01-0.04,0.004c-0.025,0.013-0.028,0.163-0.034,0.182
						c0.092,0.856,0.138,1.672,0.138,2.449c-0.02,16.161-19.359,15.819-32.22,19.793l-0.492,0.151
						c3.658,4.315,9.113,7.055,15.215,7.055c11.017,0,19.948-8.931,19.948-19.948C60.643,46.473,59.732,43.188,58.128,40.313z"/>
				</g>
			</g>
		</g>
		<g>
			<path fill="#231F20" d="M77.686,37.98c-5.976,0-10.82,4.845-10.82,10.82c0,0.058,0.003,0.115,0.003,0.172h-0.003v19.733h3.419
				V56.69c1.935,1.817,4.539,2.931,7.401,2.931c5.976,0,10.82-4.845,10.82-10.82S83.661,37.98,77.686,37.98z M77.686,56.217
				c-3.993,0-7.242-3.16-7.401-7.114v-0.13h-0.007c-0.001-0.059-0.007-0.114-0.007-0.172c0-4.096,3.319-7.417,7.415-7.417
				c4.097,0,7.417,3.321,7.417,7.417C85.103,52.897,81.782,56.217,77.686,56.217z M125.527,37.98c-5.975,0-10.82,4.845-10.82,10.82
				c0,0.058,0.003,0.115,0.004,0.172h-0.004v19.733h3.42V56.69c1.936,1.817,4.538,2.931,7.4,2.931
				c5.978,0,10.821-4.845,10.821-10.82S131.505,37.98,125.527,37.98z M125.527,56.217c-3.994,0-7.242-3.16-7.4-7.114v-0.13h-0.007
				c-0.002-0.059-0.008-0.114-0.008-0.172c0-4.096,3.318-7.417,7.415-7.417c4.098,0,7.416,3.321,7.416,7.417
				C132.943,52.897,129.625,56.217,125.527,56.217z M112.396,48.151h0.012c-0.017-0.266-0.046-0.523-0.079-0.781
				c0-0.004-0.001-0.008-0.001-0.012c-0.02-0.128-0.034-0.255-0.057-0.383c-0.021-0.12-0.041-0.228-0.063-0.326
				c-1.045-5.183-5.757-8.95-11.192-8.653c-5.966,0.326-10.539,5.429-10.215,11.397c0.326,5.964,5.43,10.537,11.396,10.213
				c4.688-0.257,8.506-3.462,9.773-7.717l-3.729,0.203c-1.148,2.313-3.467,3.963-6.229,4.114c-3.739,0.205-6.973-2.4-7.674-5.97
				c5.962-1.211,12.13,1.315,18.055-0.618c0,0,0.041-0.573,0.014-1.282C112.405,48.273,112.399,48.216,112.396,48.151z
				 M94.489,46.737c0.855-2.941,3.481-5.165,6.713-5.342c3.51-0.191,6.572,2.093,7.517,5.326
				C103.999,47.167,99.184,45.847,94.489,46.737z M151.146,49.756c-0.506-0.438-1.084-0.812-1.737-1.12
				c-0.655-0.309-1.317-0.589-1.987-0.838c-0.67-0.251-1.328-0.492-1.977-0.728c-0.645-0.233-1.221-0.499-1.726-0.794
				c-0.504-0.293-0.913-0.635-1.229-1.024c-0.314-0.39-0.473-0.869-0.473-1.442c0-0.411,0.084-0.793,0.249-1.146
				c0.165-0.354,0.409-0.656,0.732-0.914c0.322-0.257,0.737-0.456,1.241-0.595c0.505-0.141,1.089-0.209,1.751-0.209
				c0.741,0,1.399,0.079,1.975,0.239c0.575,0.163,1.075,0.337,1.503,0.52c0.425,0.185,0.771,0.357,1.039,0.519
				c0.269,0.162,0.474,0.241,0.616,0.241c0.094,0,0.181-0.024,0.26-0.076c0.077-0.052,0.789-2.12,0.766-2.284
				c-0.024-0.16-0.801-0.562-0.968-0.679c-0.165-0.118-0.41-0.255-0.733-0.407c-0.322-0.154-0.713-0.298-1.171-0.431
				c-0.456-0.133-0.968-0.241-1.536-0.331c-0.566-0.086-1.136-0.131-1.703-0.131c-1.293,0-2.424,0.16-3.395,0.484
				c-0.969,0.322-1.777,0.752-2.423,1.288c-0.647,0.536-1.132,1.16-1.454,1.873c-0.323,0.712-0.486,1.458-0.486,2.235
				c0,0.883,0.155,1.639,0.464,2.27c0.305,0.631,0.712,1.177,1.216,1.631c0.506,0.455,1.077,0.843,1.715,1.157
				c0.64,0.316,1.292,0.598,1.963,0.849c0.67,0.249,1.322,0.486,1.952,0.715c0.629,0.229,1.197,0.488,1.702,0.783
				s0.91,0.63,1.218,1.012c0.308,0.384,0.462,0.854,0.462,1.411c0,0.545-0.108,1.014-0.32,1.41c-0.213,0.396-0.518,0.724-0.91,0.979
				c-0.396,0.258-0.86,0.452-1.395,0.585c-0.538,0.133-1.136,0.199-1.797,0.199c-0.885,0-1.665-0.101-2.345-0.3
				c-0.676-0.196-1.264-0.414-1.759-0.649c-0.497-0.232-0.915-0.45-1.254-0.649c-0.339-0.198-0.597-0.297-0.769-0.297
				c-0.11,0-0.211,0.025-0.296,0.076c-0.086,0.051-0.154,0.136-0.201,0.253c-0.048,0.12-0.127,1.984-0.048,2.248
				c0.079,0.265,0.205,0.468,0.378,0.615c0.175,0.147,0.449,0.314,0.828,0.497c0.38,0.184,0.841,0.36,1.384,0.529
				c0.544,0.169,1.159,0.309,1.846,0.419c0.685,0.11,1.405,0.166,2.163,0.166c1.229,0,2.356-0.141,3.383-0.419
				c1.024-0.279,1.905-0.689,2.647-1.234c0.741-0.544,1.313-1.212,1.714-2.005c0.403-0.793,0.604-1.696,0.604-2.709
				c0-0.854-0.154-1.587-0.461-2.205C152.056,50.728,151.649,50.199,151.146,49.756z M159.752,39.339h-3.261
				c-0.102,0-0.182,0.08-0.182,0.179v20.134c0,0.101,0.08,0.18,0.182,0.18h3.261c0.099,0,0.179-0.079,0.179-0.18V39.518
				C159.931,39.419,159.851,39.339,159.752,39.339z M158.12,37.768c1.209,0,2.186-0.959,2.186-2.144
				c0-1.183-0.977-2.143-2.186-2.143c-1.207,0-2.185,0.96-2.185,2.143C155.936,36.809,156.913,37.768,158.12,37.768z"/>
		</g>
	</g>
</g>
</svg>
