<?xml version="1.0" encoding="utf-8"?>
<!-- Generator: Adobe Illustrator 16.0.3, SVG Export Plug-In . SVG Version: 6.00 Build 0)  -->
<!DOCTYPE svg PUBLIC "-//W3C//DTD SVG 1.1//EN" "http://www.w3.org/Graphics/SVG/1.1/DTD/svg11.dtd">
<svg version="1.1" xmlns="http://www.w3.org/2000/svg" xmlns:xlink="http://www.w3.org/1999/xlink" x="0px" y="0px" width="164px"
	 height="100px" viewBox="0 0 164 100" enable-background="new 0 0 164 100" xml:space="preserve">
<g id="guides">
</g>
<g id="Layer_2">
	<g>
		<path fill="#0071CE" d="M84.755,33.849V26h10.78v7.849H84.755z M95.264,73.191V37.087H85.025v36.104H95.264z"/>
		<path fill="#0071CE" d="M45.971,37.165c-1.373-0.505-2.945-0.747-4.769-0.666c-6.062-0.269-9.43,2.965-11.519,7.949v-7.275H19.445
			v36.104h10.238V59.941c0-8.206,3.789-12.315,10.021-12.695C40.925,42.983,43.146,39.602,45.971,37.165z"/>
		<path fill="#0071CE" d="M143.398,44.881c-5.269,0.154-11.629-3.979-14.095-5.536c-0.229-0.145-0.462-0.278-0.698-0.397
			c-0.258-0.145-0.524-0.276-0.791-0.409v15.208h-0.008c0.01,1.36-0.396,2.797-1.246,4.174l-0.074,0.122
			c-2.463,3.982-7.646,6.303-12.506,4.661c-4.721-1.595-5.981-6.166-3.481-10.208l0.075-0.122c2.461-3.98,7.643-6.304,12.504-4.662
			c0.375,0.127,0.722,0.277,1.05,0.441V37.153c-1.74-0.47-3.586-0.74-5.53-0.74c-11.25,0-19.603,8.419-19.603,18.794v0.135
			C98.995,65.715,107.28,74,118.463,74c11.248,0,19.603-8.419,19.603-18.793v-0.136c0-0.808-0.058-1.602-0.155-2.381
			C143.77,51.163,146.186,45.1,143.398,44.881z"/>
		<g>
			<path fill="#0071CE" d="M135.345,70.296h-1.064v-0.657h2.911v0.657h-1.064v2.896h-0.782V70.296z"/>
			<path fill="#0071CE" d="M137.602,69.639h1.1l0.831,2.443h0.01l0.786-2.443h1.1v3.553h-0.731v-2.517h-0.01l-0.87,2.517h-0.602
				l-0.873-2.492h-0.01v2.492h-0.73V69.639z"/>
		</g>
		<path fill="#0071CE" d="M70.184,73.191v-5.187c-2.491,3.368-5.928,5.86-11.248,5.86c-8.421,0-16.438-6.601-16.438-18.658v-0.136
			c0-12.058,7.883-18.658,16.438-18.658c5.455,0,8.823,2.492,11.248,5.388V26h10.239v47.191H70.184z M53.571,52.306l-0.075,0.121
			c-2.5,4.043-1.239,8.613,3.48,10.209c4.861,1.642,10.043-0.68,12.506-4.662l0.075-0.121c2.5-4.044,1.237-8.614-3.483-10.209
			C61.215,46.002,56.032,48.324,53.571,52.306z"/>
	</g>
</g>
</svg>
