<?xml version="1.0" encoding="utf-8"?>
<!-- Generator: Adobe Illustrator 16.0.3, SVG Export Plug-In . SVG Version: 6.00 Build 0)  -->
<!DOCTYPE svg PUBLIC "-//W3C//DTD SVG 1.1//EN" "http://www.w3.org/Graphics/SVG/1.1/DTD/svg11.dtd">
<svg version="1.1" xmlns="http://www.w3.org/2000/svg" xmlns:xlink="http://www.w3.org/1999/xlink" x="0px" y="0px" width="230px"
	 height="100px" viewBox="0 0 230 100" enable-background="new 0 0 230 100" xml:space="preserve">
<g id="guides">
</g>
<g id="Layer_2">
	<g>
		<g>
			<g>
				<path fill="#444345" d="M95.421,42.239c-0.221,0.65-0.521,1.294-0.914,1.922c-0.63-0.3-1.273-0.551-1.937-0.747
					c-0.664-0.195-1.528-0.294-2.591-0.294c-0.393,0-0.814,0.031-1.256,0.099c-0.44,0.065-0.848,0.189-1.206,0.374
					c-0.355,0.187-0.655,0.439-0.895,0.766c-0.243,0.327-0.363,0.747-0.363,1.272c0,0.737,0.268,1.347,0.805,1.825
					c0.528,0.474,1.209,0.952,2.036,1.434c0.736,0.409,1.421,0.824,2.051,1.233c0.63,0.418,1.183,0.861,1.662,1.339
					c0.479,0.479,0.852,1.016,1.124,1.612c0.271,0.6,0.407,1.289,0.407,2.071c0,1.108-0.202,2.17-0.603,3.19
					c-0.401,1.024-1.02,1.915-1.857,2.671c-0.835,0.764-1.895,1.37-3.179,1.824c-1.279,0.46-2.802,0.688-4.56,0.688
					c-2.042,0-4.051-0.379-6.029-1.143c0.085-0.652,0.246-1.307,0.472-1.973c0.23-0.659,0.506-1.35,0.832-2.068
					c0.824,0.306,1.667,0.566,2.523,0.782c0.86,0.217,1.693,0.326,2.494,0.326c0.671,0,1.3-0.075,1.877-0.228
					c0.574-0.154,1.073-0.38,1.496-0.681c0.422-0.309,0.754-0.677,0.997-1.109c0.236-0.434,0.356-0.946,0.356-1.532
					c0-0.434-0.1-0.817-0.296-1.142c-0.194-0.324-0.445-0.619-0.745-0.88c-0.31-0.265-0.666-0.506-1.078-0.735
					c-0.415-0.227-0.829-0.471-1.239-0.731c-1.389-0.828-2.491-1.677-3.307-2.559c-0.813-0.877-1.222-1.918-1.222-3.109
					c0-1.172,0.207-2.222,0.62-3.146c0.411-0.921,0.997-1.698,1.758-2.331c0.762-0.627,1.678-1.115,2.757-1.45
					c1.073-0.335,2.282-0.502,3.629-0.502c1.197,0,2.229,0.091,3.096,0.253c0.871,0.181,1.784,0.453,2.739,0.819
					C95.789,40.974,95.638,41.588,95.421,42.239L95.421,42.239z M110.344,52.636c-0.454,0.716-1.063,1.328-1.824,1.826
					c-0.76,0.496-1.625,0.905-2.593,1.218c-0.965,0.315-1.972,0.554-3.012,0.704l-2.186,0.356c0.133,1.042,0.479,1.822,1.043,2.331
					c0.565,0.508,1.396,0.765,2.476,0.765c0.871,0,1.638-0.091,2.299-0.278c0.661-0.183,1.364-0.427,2.101-0.733
					c0.347,0.438,0.583,0.962,0.703,1.58c0.116,0.62,0.176,1.28,0.176,1.973c-0.368,0.175-0.793,0.335-1.286,0.472
					c-0.483,0.146-0.991,0.263-1.515,0.361c-0.523,0.098-1.041,0.172-1.564,0.226c-0.521,0.053-0.985,0.084-1.399,0.084
					c-1.326,0-2.459-0.166-3.406-0.488c-0.944-0.326-1.727-0.786-2.348-1.388c-0.614-0.596-1.073-1.325-1.368-2.183
					c-0.293-0.858-0.437-1.811-0.437-2.852c0-1.324,0.229-2.625,0.683-3.906c0.457-1.285,1.103-2.429,1.94-3.438
					c0.834-1.014,1.854-1.826,3.063-2.448c1.205-0.62,2.558-0.929,4.056-0.929c0.717,0,1.383,0.093,2.003,0.265
					c0.624,0.174,1.157,0.44,1.613,0.797c0.456,0.358,0.814,0.801,1.079,1.318c0.256,0.522,0.389,1.13,0.389,1.827
					C111.028,51.068,110.802,51.918,110.344,52.636L110.344,52.636z M106.222,49.674c-0.272-0.267-0.635-0.396-1.091-0.396
					c-0.563,0-1.082,0.126-1.549,0.376c-0.467,0.247-0.874,0.585-1.222,0.991c-0.348,0.413-0.647,0.886-0.897,1.418
					c-0.249,0.537-0.438,1.071-0.569,1.613l1.695-0.26c0.822-0.129,1.497-0.297,2.02-0.506c0.522-0.205,0.932-0.434,1.235-0.684
					c0.307-0.248,0.514-0.505,0.623-0.766c0.108-0.257,0.162-0.521,0.162-0.78C106.629,50.266,106.494,49.932,106.222,49.674
					L106.222,49.674z M128.133,51.268c-0.041,0.368-0.099,0.758-0.159,1.172l-1.893,10.688c-0.825,0.133-1.618,0.195-2.379,0.195
					c-0.76,0-1.511-0.063-2.245-0.195l1.823-10.33c0.083-0.433,0.127-0.846,0.127-1.234c0-0.649-0.141-1.109-0.423-1.373
					c-0.28-0.258-0.682-0.391-1.204-0.391c-0.305,0-0.646,0.081-1.026,0.224c-0.381,0.157-0.765,0.478-1.156,0.967
					c-0.39,0.49-0.772,1.18-1.142,2.071c-0.369,0.888-0.685,2.061-0.947,3.518l-1.203,6.549c-0.846,0.133-1.637,0.195-2.375,0.195
					c-0.764,0-1.511-0.063-2.254-0.195l1.766-9.611c0.236-1.37,0.417-2.58,0.534-3.635c0.12-1.057,0.179-1.871,0.179-2.456
					c0-0.242,0-0.443,0-0.608c0-0.163-0.01-0.339-0.031-0.534c0.714-0.13,1.433-0.195,2.148-0.195c0.328,0,0.65,0.014,0.979,0.048
					c0.327,0.036,0.67,0.08,1.041,0.147c0.046,0.175,0.088,0.378,0.134,0.619c0.04,0.241,0.063,0.596,0.063,1.08
					c0,0.188-0.008,0.386-0.016,0.582c-0.013,0.193-0.039,0.431-0.08,0.715c0.259-0.456,0.585-0.891,0.975-1.297
					c0.395-0.416,0.835-0.778,1.336-1.08c0.501-0.307,1.036-0.542,1.613-0.719c0.575-0.174,1.156-0.264,1.743-0.264
					c1.301,0,2.32,0.334,3.049,0.999c0.727,0.66,1.088,1.763,1.088,3.306C128.198,50.551,128.177,50.898,128.133,51.268
					L128.133,51.268z M146.546,44.032l-2.123,11.797c-0.234,1.364-0.408,2.58-0.519,3.632c-0.109,1.053-0.161,1.873-0.161,2.458
					c0,0.244,0,0.441,0,0.604s0.008,0.342,0.033,0.541c-0.718,0.126-1.424,0.195-2.121,0.195c-0.606,0-1.278-0.069-2.016-0.195
					c-0.046-0.173-0.091-0.384-0.135-0.62c-0.042-0.237-0.063-0.599-0.063-1.075c0-0.195,0.005-0.425,0.016-0.684
					c0.008-0.261,0.039-0.533,0.08-0.817c-0.305,0.504-0.666,0.971-1.091,1.421c-0.423,0.442-0.893,0.829-1.403,1.155
					c-0.509,0.325-1.058,0.587-1.642,0.777c-0.592,0.198-1.207,0.298-1.859,0.298c-1.433,0-2.511-0.455-3.225-1.372
					c-0.719-0.909-1.079-2.117-1.079-3.611c0-1.634,0.247-3.207,0.739-4.727c0.485-1.525,1.212-2.868,2.182-4.042
					c0.963-1.173,2.169-2.116,3.6-2.818c1.433-0.707,3.107-1.062,5.016-1.062c0.151,0,0.301,0.01,0.439,0.017
					c0.143,0.015,0.27,0.015,0.376,0.015c0.238-1.278,0.407-2.363,0.505-3.25c0.099-0.896,0.147-1.636,0.147-2.22
					c0-0.24-0.007-0.438-0.017-0.603c-0.009-0.163-0.029-0.34-0.05-0.537c0.368-0.066,0.793-0.115,1.275-0.147
					c0.475-0.031,0.883-0.048,1.234-0.048c0.633,0,1.325,0.061,2.086,0.195c0.11,0.325,0.163,0.736,0.163,1.237
					C146.936,41.501,146.807,42.669,146.546,44.032L146.546,44.032z M140.371,49.685c-0.187-0.008-0.363-0.011-0.534-0.011
					c-1.053,0-1.932,0.258-2.66,0.779c-0.731,0.519-1.332,1.174-1.809,1.953c-0.479,0.783-0.824,1.625-1.039,2.524
					c-0.221,0.903-0.328,1.728-0.328,2.46c0,1.607,0.532,2.408,1.598,2.408c1.038,0,2.008-0.629,2.896-1.898
					c0.895-1.275,1.542-3.058,1.958-5.366l0.485-2.767C140.741,49.725,140.553,49.697,140.371,49.685L140.371,49.685z
					 M165.199,42.143c-0.208,0.587-0.491,1.229-0.863,1.921c-0.673-0.282-1.295-0.465-1.858-0.549
					c-0.564-0.091-1.117-0.13-1.664-0.13c-1.455,0-2.699,0.317-3.729,0.939c-1.032,0.631-1.878,1.449-2.541,2.461
					c-0.662,1.01-1.154,2.16-1.464,3.438c-0.316,1.283-0.474,2.573-0.474,3.876c0,1.893,0.459,3.235,1.384,4.044
					c0.924,0.8,2.145,1.198,3.666,1.198c0.305,0,0.64-0.011,1.013-0.045c0.368-0.029,0.649-0.07,0.844-0.112l1.434-8.177
					c0.436-0.091,0.846-0.152,1.24-0.179c0.394-0.032,0.771-0.05,1.141-0.05c0.369,0,0.753,0.018,1.154,0.05
					c0.404,0.026,0.802,0.088,1.19,0.179l-2.051,11.6c-0.957,0.322-2.031,0.557-3.225,0.7c-1.197,0.14-2.315,0.212-3.36,0.212
					c-1.582,0-2.975-0.229-4.168-0.688c-1.195-0.454-2.194-1.085-3.001-1.887c-0.804-0.8-1.403-1.758-1.805-2.85
					c-0.402-1.1-0.604-2.287-0.604-3.565c0-2.112,0.312-4.087,0.943-5.935c0.628-1.844,1.518-3.456,2.656-4.842
					c1.137-1.376,2.516-2.46,4.124-3.253c1.605-0.795,3.39-1.19,5.34-1.19c1.02,0,1.935,0.066,2.741,0.197
					c0.802,0.128,1.618,0.377,2.442,0.748C165.57,40.927,165.406,41.56,165.199,42.143L165.199,42.143z M178.541,48.69
					c-0.151,0.65-0.358,1.196-0.616,1.632c-0.132-0.022-0.271-0.047-0.428-0.064c-0.152-0.019-0.348-0.034-0.585-0.034
					c-0.886,0-1.625,0.154-2.197,0.458c-0.578,0.303-1.053,0.73-1.421,1.288c-0.368,0.553-0.662,1.22-0.875,2.002
					c-0.22,0.781-0.415,1.647-0.589,2.606l-1.203,6.549c-0.853,0.133-1.644,0.195-2.381,0.195c-0.762,0-1.514-0.063-2.249-0.195
					l1.764-9.611c0.231-1.37,0.411-2.58,0.532-3.635c0.122-1.057,0.182-1.871,0.182-2.456c0-0.242,0-0.443,0-0.608
					c0-0.163-0.013-0.339-0.036-0.534c0.719-0.13,1.435-0.195,2.155-0.195c0.324,0,0.648,0.014,0.976,0.048
					c0.324,0.036,0.673,0.08,1.039,0.147c0.05,0.175,0.089,0.378,0.135,0.619c0.041,0.241,0.063,0.596,0.063,1.08
					c0,0.188-0.003,0.386-0.013,0.582c-0.014,0.193-0.039,0.431-0.083,0.715c0.216-0.389,0.49-0.776,0.814-1.159
					c0.324-0.38,0.688-0.72,1.09-1.022c0.401-0.303,0.847-0.548,1.337-0.734c0.488-0.184,1.024-0.275,1.613-0.275
					c0.456,0,0.851,0.056,1.17,0.161c0.025,0.086,0.036,0.177,0.036,0.262s0,0.188,0,0.295
					C178.771,47.412,178.693,48.039,178.541,48.69L178.541,48.69z M184.146,63.127c-0.829,0.133-1.609,0.195-2.347,0.195
					c-0.674,0-1.4-0.063-2.184-0.195l2.35-13.328h-2.055c0-0.062-0.007-0.125-0.016-0.194c-0.012-0.062-0.021-0.141-0.021-0.228
					c0-0.563,0.058-1.092,0.164-1.582c0.108-0.487,0.271-0.99,0.488-1.513h6.587L184.146,63.127L184.146,63.127z M204.641,44.032
					l-2.116,11.797c-0.24,1.364-0.412,2.58-0.521,3.632c-0.11,1.053-0.163,1.873-0.163,2.458c0,0.244,0,0.441,0,0.604
					s0.011,0.342,0.032,0.541c-0.719,0.126-1.425,0.195-2.117,0.195c-0.609,0-1.284-0.069-2.022-0.195
					c-0.044-0.173-0.086-0.384-0.127-0.62c-0.047-0.237-0.065-0.599-0.065-1.075c0-0.195,0.005-0.425,0.014-0.684
					c0.012-0.261,0.039-0.533,0.08-0.817c-0.301,0.504-0.665,0.971-1.088,1.421c-0.425,0.442-0.892,0.829-1.404,1.155
					c-0.507,0.325-1.059,0.587-1.645,0.777c-0.589,0.198-1.203,0.298-1.854,0.298c-1.437,0-2.513-0.455-3.227-1.372
					c-0.719-0.909-1.074-2.117-1.074-3.611c0-1.634,0.245-3.207,0.729-4.727c0.492-1.525,1.216-2.868,2.188-4.042
					c0.962-1.173,2.163-2.116,3.598-2.818c1.432-0.707,3.103-1.062,5.019-1.062c0.153,0,0.298,0.01,0.438,0.017
					c0.142,0.015,0.267,0.015,0.373,0.015c0.236-1.278,0.412-2.363,0.504-3.25c0.101-0.896,0.147-1.636,0.147-2.22
					c0-0.24-0.005-0.438-0.017-0.603c-0.012-0.163-0.027-0.34-0.046-0.537c0.37-0.066,0.794-0.115,1.271-0.147
					c0.475-0.031,0.888-0.048,1.239-0.048c0.629,0,1.325,0.061,2.083,0.195c0.109,0.325,0.161,0.736,0.161,1.237
					C205.03,41.501,204.903,42.669,204.641,44.032L204.641,44.032z M198.468,49.685c-0.186-0.008-0.365-0.011-0.538-0.011
					c-1.043,0-1.925,0.258-2.658,0.779c-0.727,0.519-1.328,1.174-1.804,1.953c-0.479,0.783-0.827,1.625-1.045,2.524
					c-0.213,0.903-0.324,1.728-0.324,2.46c0,1.607,0.531,2.408,1.592,2.408c1.046,0,2.016-0.629,2.905-1.898
					c0.89-1.275,1.539-3.058,1.951-5.366l0.492-2.767C198.84,49.725,198.65,49.697,198.468,49.685L198.468,49.685z"/>
				<g>
					<path fill="#467BBD" d="M73.105,47.511c-0.008-0.023-0.018-0.046-0.021-0.066c-0.124-0.301-0.247-0.604-0.379-0.91
						c-0.257-0.321-0.547-0.57-0.855-0.763c-0.138-0.088-0.28-0.166-0.421-0.225c-0.096-0.046-0.186-0.084-0.276-0.115
						c-0.584-0.213-1.188-0.282-1.721-0.282c-1.381,0-2.951,0.47-4.32,1.275c-4.489,2.674-8.818,8.919-10.838,12.122l0.127-0.101
						l-0.861,1.364c3.537-0.11,11.56-0.388,15.877-3.327C74.424,52.706,73.544,48.741,73.105,47.511z"/>
					<path fill="#467BBD" d="M28.334,53.508c4.904-2.916,9.945-10.492,11.646-13.37c-4.532,0.104-11.862,0.71-15.934,3.38
						c-2.755,1.749-4.899,5.739-3.712,8.883c0.014,0.032,0.026,0.052,0.037,0.08c0.124,0.31,0.252,0.627,0.391,0.951
						c0.885,1.098,2.194,1.354,3.232,1.354C25.378,54.786,26.96,54.32,28.334,53.508z"/>
					<path fill="#467BBD" d="M57.532,52.47c-3.693-1.252-7.701-2.434-11.116-3.651c-0.044-2.69-0.112-5.97-0.194-8.951
						c-0.005-0.143-0.005-0.281-0.013-0.422c-0.004-0.146-0.008-0.291-0.009-0.432c-0.075-2.568-0.158-4.841-0.235-6.204
						c-1.801,2.22-3.359,4.601-4.486,6.46c-0.089,0.146-0.177,0.288-0.26,0.43c-0.042,0.068-0.086,0.145-0.128,0.215
						c-0.002,0.007-0.044,0.079-0.121,0.21c-0.495,0.85-2.445,4.114-5.1,7.423c0.073,0.123,4.379,7.3,7.775,12.942
						c0.081,0.135,0.163,0.271,0.241,0.399c0.083,0.138,0.162,0.271,0.242,0.404c1.737,2.879,3.147,5.215,3.485,5.754L35.936,63.36
						l-0.614-0.196l-0.591-0.188l-0.507-0.16c0.491-4.465,1.302-13.814,1.64-15.264c-2.06,2.57-4.544,5.168-7.094,6.688
						c-1.502,0.89-3.244,1.4-4.774,1.4c-0.944,0-1.785-0.188-2.493-0.549c-0.075-0.037-0.15-0.076-0.218-0.118
						c2.318,5.076,5.864,11.137,9.06,15.463c0.306,0.417,0.607,0.814,0.908,1.199c0.008,0.008,0.013,0.022,0.022,0.028
						C32.509,73.166,34.397,74,36.579,74c1.383,0,2.865-0.331,4.411-0.984c4.777-2.308,9.095-9.268,10.937-12.24
						c0.013-0.019,0.019-0.037,0.031-0.053c0.104-0.168,0.202-0.324,0.288-0.461c0.036-0.056,0.064-0.104,0.098-0.156l0.001,0.003
						c0.033-0.072,0.078-0.16,0.143-0.275c0.158-0.285,0.429-0.73,0.88-1.451c0.597-0.951,1.561-2.436,2.756-4.064
						C56.549,53.73,57.023,53.109,57.532,52.47z"/>
					<path fill="#467BBD" d="M49.764,39.023c0.078,0.131,0.153,0.264,0.227,0.392c2.859,4.912,6.382,10.968,7.563,13.032
						c1.983-2.486,4.526-5.211,7.124-6.757c1.493-0.889,3.227-1.393,4.756-1.393c0.438,0,0.852,0.042,1.245,0.122
						c0.001,0,0.005,0,0.008,0.003c-0.007-0.003-0.007-0.009-0.013-0.014c-3.434-2.101-8.128-4.883-10.621-6.496
						c0.086-0.63,0.172-1.269,0.255-1.901c0.025-0.197,0.05-0.394,0.08-0.592c0.023-0.207,0.052-0.416,0.078-0.621
						c0.286-2.183,0.548-4.275,0.741-5.932c0.527,0.688,1.059,1.419,1.593,2.173c0.114,0.167,0.229,0.327,0.343,0.492
						c0.106,0.148,0.207,0.302,0.313,0.457c0.05,0.072,0.097,0.145,0.15,0.221c2.412,3.55,7.172,12.231,7.172,12.231l0.526,0.142
						c0.232,0.078,0.451,0.172,0.659,0.275c0.009,0.007,0.02,0.007,0.024,0.014c-0.921-1.999-2.043-4.164-3.282-6.332
						c-1.557-2.744-3.291-5.501-5.02-7.965c-0.16-0.231-0.321-0.458-0.484-0.683c-0.373-0.519-0.741-1.023-1.112-1.509
						c-0.218-0.289-0.436-0.57-0.649-0.843c-0.024-0.033-0.051-0.057-0.075-0.082v-0.007C60.2,26.522,58.56,26,56.717,26
						c-1.498,0-3.031,0.351-4.204,0.958c-2.267,1.149-4.494,3.336-6.442,5.722c0.411,0.706,1.782,3.065,3.46,5.947
						C49.61,38.758,49.687,38.894,49.764,39.023z"/>
				</g>
				<g>
					<path fill="#444345" d="M207.595,42.286c-0.822,0-1.434-0.625-1.434-1.438c0-0.921,0.619-1.484,1.612-1.484
						c0.815,0,1.393,0.598,1.393,1.407C209.166,41.696,208.573,42.286,207.595,42.286z M207.686,39.689
						c-0.616,0-1.12,0.411-1.12,1.105c0,0.715,0.438,1.156,1.126,1.156c0.584,0,1.079-0.435,1.079-1.128
						C208.771,40.139,208.316,39.689,207.686,39.689z M207.935,41.56l-0.379-0.563v0.34c0,0.016,0.001,0.055,0.028,0.224h-0.464
						v-1.274l-0.031-0.28h0.534c0.312,0,0.61,0.17,0.61,0.507c0,0.165-0.12,0.354-0.304,0.438l0.524,0.609H207.935z M207.569,40.789
						c0.135,0,0.278-0.088,0.278-0.277c0-0.185-0.144-0.24-0.278-0.24h-0.014v0.518H207.569z"/>
				</g>
			</g>
			<path fill="#447BBE" d="M188.004,41.219c-0.135,0.696-0.329,1.411-0.592,2.148c-0.389,0.066-0.798,0.108-1.219,0.129
				c-0.423,0.023-0.807,0.036-1.154,0.036c-0.329,0-0.706-0.013-1.143-0.036c-0.437-0.021-0.826-0.063-1.176-0.129
				c-0.019-0.758,0.028-1.482,0.148-2.168c0.119-0.685,0.312-1.406,0.572-2.165c0.39-0.09,0.804-0.148,1.237-0.178
				c0.433-0.036,0.824-0.05,1.175-0.05c0.345,0,0.731,0.014,1.152,0.05c0.427,0.029,0.822,0.088,1.19,0.178
				C188.196,39.793,188.134,40.522,188.004,41.219L188.004,41.219z"/>
		</g>
		<path fill="#1D1F29" d="M95.421,42.239c-0.221,0.65-0.521,1.294-0.914,1.922c-0.63-0.3-1.273-0.551-1.937-0.747
			c-0.664-0.195-1.528-0.294-2.591-0.294c-0.393,0-0.814,0.031-1.256,0.099c-0.44,0.065-0.848,0.189-1.206,0.374
			c-0.355,0.187-0.655,0.439-0.895,0.766c-0.243,0.327-0.363,0.747-0.363,1.272c0,0.737,0.268,1.347,0.805,1.825
			c0.528,0.474,1.209,0.952,2.036,1.434c0.736,0.409,1.421,0.824,2.051,1.233c0.63,0.418,1.183,0.861,1.662,1.339
			c0.479,0.479,0.852,1.016,1.124,1.612c0.271,0.6,0.407,1.289,0.407,2.071c0,1.108-0.202,2.17-0.603,3.19
			c-0.401,1.024-1.02,1.915-1.857,2.671c-0.835,0.764-1.895,1.37-3.179,1.824c-1.279,0.46-2.802,0.688-4.56,0.688
			c-2.042,0-4.051-0.379-6.029-1.143c0.085-0.652,0.246-1.307,0.472-1.973c0.23-0.659,0.506-1.35,0.832-2.068
			c0.824,0.306,1.667,0.566,2.523,0.782c0.86,0.217,1.693,0.326,2.494,0.326c0.671,0,1.3-0.075,1.877-0.228
			c0.574-0.154,1.073-0.38,1.496-0.681c0.422-0.309,0.754-0.677,0.997-1.109c0.236-0.434,0.356-0.946,0.356-1.532
			c0-0.434-0.1-0.817-0.296-1.142c-0.194-0.324-0.445-0.619-0.745-0.88c-0.31-0.265-0.666-0.506-1.078-0.735
			c-0.415-0.227-0.829-0.471-1.239-0.731c-1.389-0.828-2.491-1.677-3.307-2.559c-0.813-0.877-1.222-1.918-1.222-3.109
			c0-1.172,0.207-2.222,0.62-3.146c0.411-0.921,0.997-1.698,1.758-2.331c0.762-0.627,1.678-1.115,2.757-1.45
			c1.073-0.335,2.282-0.502,3.629-0.502c1.197,0,2.229,0.091,3.096,0.253c0.871,0.181,1.784,0.453,2.739,0.819
			C95.789,40.974,95.638,41.588,95.421,42.239L95.421,42.239z M110.344,52.636c-0.454,0.716-1.063,1.328-1.824,1.826
			c-0.76,0.496-1.625,0.905-2.593,1.218c-0.965,0.315-1.972,0.554-3.012,0.704l-2.186,0.356c0.133,1.042,0.479,1.822,1.043,2.331
			c0.565,0.508,1.396,0.765,2.476,0.765c0.871,0,1.638-0.091,2.299-0.278c0.661-0.183,1.364-0.427,2.101-0.733
			c0.347,0.438,0.583,0.962,0.703,1.58c0.116,0.62,0.176,1.28,0.176,1.973c-0.368,0.175-0.793,0.335-1.286,0.472
			c-0.483,0.146-0.991,0.263-1.515,0.361c-0.523,0.098-1.041,0.172-1.564,0.226c-0.521,0.053-0.985,0.084-1.399,0.084
			c-1.326,0-2.459-0.166-3.406-0.488c-0.944-0.326-1.727-0.786-2.348-1.388c-0.614-0.596-1.073-1.325-1.368-2.183
			c-0.293-0.858-0.437-1.811-0.437-2.852c0-1.324,0.229-2.625,0.683-3.906c0.457-1.285,1.103-2.429,1.94-3.438
			c0.834-1.014,1.854-1.826,3.063-2.448c1.205-0.62,2.558-0.929,4.056-0.929c0.717,0,1.383,0.093,2.003,0.265
			c0.624,0.174,1.157,0.44,1.613,0.797c0.456,0.358,0.814,0.801,1.079,1.318c0.256,0.522,0.389,1.13,0.389,1.827
			C111.028,51.068,110.802,51.918,110.344,52.636L110.344,52.636z M106.222,49.674c-0.272-0.267-0.635-0.396-1.091-0.396
			c-0.563,0-1.082,0.126-1.549,0.376c-0.467,0.247-0.874,0.585-1.222,0.991c-0.348,0.413-0.647,0.886-0.897,1.418
			c-0.249,0.537-0.438,1.071-0.569,1.613l1.695-0.26c0.822-0.129,1.497-0.297,2.02-0.506c0.522-0.205,0.932-0.434,1.235-0.684
			c0.307-0.248,0.514-0.505,0.623-0.766c0.108-0.257,0.162-0.521,0.162-0.78C106.629,50.266,106.494,49.932,106.222,49.674
			L106.222,49.674z M128.133,51.268c-0.041,0.368-0.099,0.758-0.159,1.172l-1.893,10.688c-0.825,0.133-1.618,0.195-2.379,0.195
			c-0.76,0-1.511-0.063-2.245-0.195l1.823-10.33c0.083-0.433,0.127-0.846,0.127-1.234c0-0.649-0.141-1.109-0.423-1.373
			c-0.28-0.258-0.682-0.391-1.204-0.391c-0.305,0-0.646,0.081-1.026,0.224c-0.381,0.157-0.765,0.478-1.156,0.967
			c-0.39,0.49-0.772,1.18-1.142,2.071c-0.369,0.888-0.685,2.061-0.947,3.518l-1.203,6.549c-0.846,0.133-1.637,0.195-2.375,0.195
			c-0.764,0-1.511-0.063-2.254-0.195l1.766-9.611c0.236-1.37,0.417-2.58,0.534-3.635c0.12-1.057,0.179-1.871,0.179-2.456
			c0-0.242,0-0.443,0-0.608c0-0.163-0.01-0.339-0.031-0.534c0.714-0.13,1.433-0.195,2.148-0.195c0.328,0,0.65,0.014,0.979,0.048
			c0.327,0.036,0.67,0.08,1.041,0.147c0.046,0.175,0.088,0.378,0.134,0.619c0.04,0.241,0.063,0.596,0.063,1.08
			c0,0.188-0.008,0.386-0.016,0.582c-0.013,0.193-0.039,0.431-0.08,0.715c0.259-0.456,0.585-0.891,0.975-1.297
			c0.395-0.416,0.835-0.778,1.336-1.08c0.501-0.307,1.036-0.542,1.613-0.719c0.575-0.174,1.156-0.264,1.743-0.264
			c1.301,0,2.32,0.334,3.049,0.999c0.727,0.66,1.088,1.763,1.088,3.306C128.198,50.551,128.177,50.898,128.133,51.268
			L128.133,51.268z M146.546,44.032l-2.123,11.797c-0.234,1.364-0.408,2.58-0.519,3.632c-0.109,1.053-0.161,1.873-0.161,2.458
			c0,0.244,0,0.441,0,0.604s0.008,0.342,0.033,0.541c-0.718,0.126-1.424,0.195-2.121,0.195c-0.606,0-1.278-0.069-2.016-0.195
			c-0.046-0.173-0.091-0.384-0.135-0.62c-0.042-0.237-0.063-0.599-0.063-1.075c0-0.195,0.005-0.425,0.016-0.684
			c0.008-0.261,0.039-0.533,0.08-0.817c-0.305,0.504-0.666,0.971-1.091,1.421c-0.423,0.442-0.893,0.829-1.403,1.155
			c-0.509,0.325-1.058,0.587-1.642,0.777c-0.592,0.198-1.207,0.298-1.859,0.298c-1.433,0-2.511-0.455-3.225-1.372
			c-0.719-0.909-1.079-2.117-1.079-3.611c0-1.634,0.247-3.207,0.739-4.727c0.485-1.525,1.212-2.868,2.182-4.042
			c0.963-1.173,2.169-2.116,3.6-2.818c1.433-0.707,3.107-1.062,5.016-1.062c0.151,0,0.301,0.01,0.439,0.017
			c0.143,0.015,0.27,0.015,0.376,0.015c0.238-1.278,0.407-2.363,0.505-3.25c0.099-0.896,0.147-1.636,0.147-2.22
			c0-0.24-0.007-0.438-0.017-0.603c-0.009-0.163-0.029-0.34-0.05-0.537c0.368-0.066,0.793-0.115,1.275-0.147
			c0.475-0.031,0.883-0.048,1.234-0.048c0.633,0,1.325,0.061,2.086,0.195c0.11,0.325,0.163,0.736,0.163,1.237
			C146.936,41.501,146.807,42.669,146.546,44.032L146.546,44.032z M140.371,49.685c-0.187-0.008-0.363-0.011-0.534-0.011
			c-1.053,0-1.932,0.258-2.66,0.779c-0.731,0.519-1.332,1.174-1.809,1.953c-0.479,0.783-0.824,1.625-1.039,2.524
			c-0.221,0.903-0.328,1.728-0.328,2.46c0,1.607,0.532,2.408,1.598,2.408c1.038,0,2.008-0.629,2.896-1.898
			c0.895-1.275,1.542-3.058,1.958-5.366l0.485-2.767C140.741,49.725,140.553,49.697,140.371,49.685L140.371,49.685z M165.199,42.143
			c-0.208,0.587-0.491,1.229-0.863,1.921c-0.673-0.282-1.295-0.465-1.858-0.549c-0.564-0.091-1.117-0.13-1.664-0.13
			c-1.455,0-2.699,0.317-3.729,0.939c-1.032,0.631-1.878,1.449-2.541,2.461c-0.662,1.01-1.154,2.16-1.464,3.438
			c-0.316,1.283-0.474,2.573-0.474,3.876c0,1.893,0.459,3.235,1.384,4.044c0.924,0.8,2.145,1.198,3.666,1.198
			c0.305,0,0.64-0.011,1.013-0.045c0.368-0.029,0.649-0.07,0.844-0.112l1.434-8.177c0.436-0.091,0.846-0.152,1.24-0.179
			c0.394-0.032,0.771-0.05,1.141-0.05c0.369,0,0.753,0.018,1.154,0.05c0.404,0.026,0.802,0.088,1.19,0.179l-2.051,11.6
			c-0.957,0.322-2.031,0.557-3.225,0.7c-1.197,0.14-2.315,0.212-3.36,0.212c-1.582,0-2.975-0.229-4.168-0.688
			c-1.195-0.454-2.194-1.085-3.001-1.887c-0.804-0.8-1.403-1.758-1.805-2.85c-0.402-1.1-0.604-2.287-0.604-3.565
			c0-2.112,0.312-4.087,0.943-5.935c0.628-1.844,1.518-3.456,2.656-4.842c1.137-1.376,2.516-2.46,4.124-3.253
			c1.605-0.795,3.39-1.19,5.34-1.19c1.02,0,1.935,0.066,2.741,0.197c0.802,0.128,1.618,0.377,2.442,0.748
			C165.57,40.927,165.406,41.56,165.199,42.143L165.199,42.143z M178.541,48.69c-0.151,0.65-0.358,1.196-0.616,1.632
			c-0.132-0.022-0.271-0.047-0.428-0.064c-0.152-0.019-0.348-0.034-0.585-0.034c-0.886,0-1.625,0.154-2.197,0.458
			c-0.578,0.303-1.053,0.73-1.421,1.288c-0.368,0.553-0.662,1.22-0.875,2.002c-0.22,0.781-0.415,1.647-0.589,2.606l-1.203,6.549
			c-0.853,0.133-1.644,0.195-2.381,0.195c-0.762,0-1.514-0.063-2.249-0.195l1.764-9.611c0.231-1.37,0.411-2.58,0.532-3.635
			c0.122-1.057,0.182-1.871,0.182-2.456c0-0.242,0-0.443,0-0.608c0-0.163-0.013-0.339-0.036-0.534
			c0.719-0.13,1.435-0.195,2.155-0.195c0.324,0,0.648,0.014,0.976,0.048c0.324,0.036,0.673,0.08,1.039,0.147
			c0.05,0.175,0.089,0.378,0.135,0.619c0.041,0.241,0.063,0.596,0.063,1.08c0,0.188-0.003,0.386-0.013,0.582
			c-0.014,0.193-0.039,0.431-0.083,0.715c0.216-0.389,0.49-0.776,0.814-1.159c0.324-0.38,0.688-0.72,1.09-1.022
			c0.401-0.303,0.847-0.548,1.337-0.734c0.488-0.184,1.024-0.275,1.613-0.275c0.456,0,0.851,0.056,1.17,0.161
			c0.025,0.086,0.036,0.177,0.036,0.262s0,0.188,0,0.295C178.771,47.412,178.693,48.039,178.541,48.69L178.541,48.69z
			 M184.146,63.127c-0.829,0.133-1.609,0.195-2.347,0.195c-0.674,0-1.4-0.063-2.184-0.195l2.35-13.328h-2.055
			c0-0.062-0.007-0.125-0.016-0.194c-0.012-0.062-0.021-0.141-0.021-0.228c0-0.563,0.058-1.092,0.164-1.582
			c0.108-0.487,0.271-0.99,0.488-1.513h6.587L184.146,63.127L184.146,63.127z M204.641,44.032l-2.116,11.797
			c-0.24,1.364-0.412,2.58-0.521,3.632c-0.11,1.053-0.163,1.873-0.163,2.458c0,0.244,0,0.441,0,0.604s0.011,0.342,0.032,0.541
			c-0.719,0.126-1.425,0.195-2.117,0.195c-0.609,0-1.284-0.069-2.022-0.195c-0.044-0.173-0.086-0.384-0.127-0.62
			c-0.047-0.237-0.065-0.599-0.065-1.075c0-0.195,0.005-0.425,0.014-0.684c0.012-0.261,0.039-0.533,0.08-0.817
			c-0.301,0.504-0.665,0.971-1.088,1.421c-0.425,0.442-0.892,0.829-1.404,1.155c-0.507,0.325-1.059,0.587-1.645,0.777
			c-0.589,0.198-1.203,0.298-1.854,0.298c-1.437,0-2.513-0.455-3.227-1.372c-0.719-0.909-1.074-2.117-1.074-3.611
			c0-1.634,0.245-3.207,0.729-4.727c0.492-1.525,1.216-2.868,2.188-4.042c0.962-1.173,2.163-2.116,3.598-2.818
			c1.432-0.707,3.103-1.062,5.019-1.062c0.153,0,0.298,0.01,0.438,0.017c0.142,0.015,0.267,0.015,0.373,0.015
			c0.236-1.278,0.412-2.363,0.504-3.25c0.101-0.896,0.147-1.636,0.147-2.22c0-0.24-0.005-0.438-0.017-0.603
			c-0.012-0.163-0.027-0.34-0.046-0.537c0.37-0.066,0.794-0.115,1.271-0.147c0.475-0.031,0.888-0.048,1.239-0.048
			c0.629,0,1.325,0.061,2.083,0.195c0.109,0.325,0.161,0.736,0.161,1.237C205.03,41.501,204.903,42.669,204.641,44.032
			L204.641,44.032z M198.468,49.685c-0.186-0.008-0.365-0.011-0.538-0.011c-1.043,0-1.925,0.258-2.658,0.779
			c-0.727,0.519-1.328,1.174-1.804,1.953c-0.479,0.783-0.827,1.625-1.045,2.524c-0.213,0.903-0.324,1.728-0.324,2.46
			c0,1.607,0.531,2.408,1.592,2.408c1.046,0,2.016-0.629,2.905-1.898c0.89-1.275,1.539-3.058,1.951-5.366l0.492-2.767
			C198.84,49.725,198.65,49.697,198.468,49.685L198.468,49.685z"/>
		<g>
			<path fill="#0071CE" d="M73.105,47.511c-0.008-0.023-0.018-0.046-0.021-0.066c-0.124-0.301-0.247-0.604-0.379-0.91
				c-0.257-0.321-0.547-0.57-0.855-0.763c-0.138-0.088-0.28-0.166-0.421-0.225c-0.096-0.046-0.186-0.084-0.276-0.115
				c-0.584-0.213-1.188-0.282-1.721-0.282c-1.381,0-2.951,0.47-4.32,1.275c-4.489,2.674-8.818,8.919-10.838,12.122l0.127-0.101
				l-0.861,1.364c3.537-0.11,11.56-0.388,15.877-3.327C74.424,52.706,73.544,48.741,73.105,47.511z"/>
			<path fill="#0071CE" d="M28.334,53.508c4.904-2.916,9.945-10.492,11.646-13.37c-4.532,0.104-11.862,0.71-15.934,3.38
				c-2.755,1.749-4.899,5.739-3.712,8.883c0.014,0.032,0.026,0.052,0.037,0.08c0.124,0.31,0.252,0.627,0.391,0.951
				c0.885,1.098,2.194,1.354,3.232,1.354C25.378,54.786,26.96,54.32,28.334,53.508z"/>
			<path fill="#0071CE" d="M57.532,52.47c-3.693-1.252-7.701-2.434-11.116-3.651c-0.044-2.69-0.112-5.97-0.194-8.951
				c-0.005-0.143-0.005-0.281-0.013-0.422c-0.004-0.146-0.008-0.291-0.009-0.432c-0.075-2.568-0.158-4.841-0.235-6.204
				c-1.801,2.22-3.359,4.601-4.486,6.46c-0.089,0.146-0.177,0.288-0.26,0.43c-0.042,0.068-0.086,0.145-0.128,0.215
				c-0.002,0.007-0.044,0.079-0.121,0.21c-0.495,0.85-2.445,4.114-5.1,7.423c0.073,0.123,4.379,7.3,7.775,12.942
				c0.081,0.135,0.163,0.271,0.241,0.399c0.083,0.138,0.162,0.271,0.242,0.404c1.737,2.879,3.147,5.215,3.485,5.754L35.936,63.36
				l-0.614-0.196l-0.591-0.188l-0.507-0.16c0.491-4.465,1.302-13.814,1.64-15.264c-2.06,2.57-4.544,5.168-7.094,6.688
				c-1.502,0.89-3.244,1.4-4.774,1.4c-0.944,0-1.785-0.188-2.493-0.549c-0.075-0.037-0.15-0.076-0.218-0.118
				c2.318,5.076,5.864,11.137,9.06,15.463c0.306,0.417,0.607,0.814,0.908,1.199c0.008,0.008,0.013,0.022,0.022,0.028
				C32.509,73.166,34.397,74,36.579,74c1.383,0,2.865-0.331,4.411-0.984c4.777-2.308,9.095-9.268,10.937-12.24
				c0.013-0.019,0.019-0.037,0.031-0.053c0.104-0.168,0.202-0.324,0.288-0.461c0.036-0.056,0.064-0.104,0.098-0.156l0.001,0.003
				c0.033-0.072,0.078-0.16,0.143-0.275c0.158-0.285,0.429-0.73,0.88-1.451c0.597-0.951,1.561-2.436,2.756-4.064
				C56.549,53.73,57.023,53.109,57.532,52.47z"/>
			<path fill="#0071CE" d="M49.764,39.023c0.078,0.131,0.153,0.264,0.227,0.392c2.859,4.912,6.382,10.968,7.563,13.032
				c1.983-2.486,4.526-5.211,7.124-6.757c1.493-0.889,3.227-1.393,4.756-1.393c0.438,0,0.852,0.042,1.245,0.122
				c0.001,0,0.005,0,0.008,0.003c-0.007-0.003-0.007-0.009-0.013-0.014c-3.434-2.101-8.128-4.883-10.621-6.496
				c0.086-0.63,0.172-1.269,0.255-1.901c0.025-0.197,0.05-0.394,0.08-0.592c0.023-0.207,0.052-0.416,0.078-0.621
				c0.286-2.183,0.548-4.275,0.741-5.932c0.527,0.688,1.059,1.419,1.593,2.173c0.114,0.167,0.229,0.327,0.343,0.492
				c0.106,0.148,0.207,0.302,0.313,0.457c0.05,0.072,0.097,0.145,0.15,0.221c2.412,3.55,7.172,12.231,7.172,12.231l0.526,0.142
				c0.232,0.078,0.451,0.172,0.659,0.275c0.009,0.007,0.02,0.007,0.024,0.014c-0.921-1.999-2.043-4.164-3.282-6.332
				c-1.557-2.744-3.291-5.501-5.02-7.965c-0.16-0.231-0.321-0.458-0.484-0.683c-0.373-0.519-0.741-1.023-1.112-1.509
				c-0.218-0.289-0.436-0.57-0.649-0.843c-0.024-0.033-0.051-0.057-0.075-0.082v-0.007C60.2,26.522,58.56,26,56.717,26
				c-1.498,0-3.031,0.351-4.204,0.958c-2.267,1.149-4.494,3.336-6.442,5.722c0.411,0.706,1.782,3.065,3.46,5.947
				C49.61,38.758,49.687,38.894,49.764,39.023z"/>
		</g>
		<g>
			<path fill="#1D1F29" d="M207.595,42.286c-0.822,0-1.434-0.625-1.434-1.438c0-0.921,0.619-1.484,1.612-1.484
				c0.815,0,1.393,0.598,1.393,1.407C209.166,41.696,208.573,42.286,207.595,42.286z M207.686,39.689
				c-0.616,0-1.12,0.411-1.12,1.105c0,0.715,0.438,1.156,1.126,1.156c0.584,0,1.079-0.435,1.079-1.128
				C208.771,40.139,208.316,39.689,207.686,39.689z M207.935,41.56l-0.379-0.563v0.34c0,0.016,0.001,0.055,0.028,0.224h-0.464
				v-1.274l-0.031-0.28h0.534c0.312,0,0.61,0.17,0.61,0.507c0,0.165-0.12,0.354-0.304,0.438l0.524,0.609H207.935z M207.569,40.789
				c0.135,0,0.278-0.088,0.278-0.277c0-0.185-0.144-0.24-0.278-0.24h-0.014v0.518H207.569z"/>
		</g>
		<path fill="#0071CE" d="M188.004,41.219c-0.135,0.696-0.329,1.411-0.592,2.148c-0.389,0.066-0.798,0.108-1.219,0.129
			c-0.423,0.023-0.807,0.036-1.154,0.036c-0.329,0-0.706-0.013-1.143-0.036c-0.437-0.021-0.826-0.063-1.176-0.129
			c-0.019-0.758,0.028-1.482,0.148-2.168c0.119-0.685,0.312-1.406,0.572-2.165c0.39-0.09,0.804-0.148,1.237-0.178
			c0.433-0.036,0.824-0.05,1.175-0.05c0.345,0,0.731,0.014,1.152,0.05c0.427,0.029,0.822,0.088,1.19,0.178
			C188.196,39.793,188.134,40.522,188.004,41.219L188.004,41.219z"/>
	</g>
</g>
</svg>
