<?xml version="1.0" encoding="utf-8"?>
<!-- Generator: Adobe Illustrator 16.0.3, SVG Export Plug-In . SVG Version: 6.00 Build 0)  -->
<!DOCTYPE svg PUBLIC "-//W3C//DTD SVG 1.1//EN" "http://www.w3.org/Graphics/SVG/1.1/DTD/svg11.dtd">
<svg version="1.1" xmlns="http://www.w3.org/2000/svg" xmlns:xlink="http://www.w3.org/1999/xlink" x="0px" y="0px" width="246px"
	 height="100px" viewBox="0 0 246 100" enable-background="new 0 0 246 100" xml:space="preserve">
<g id="guides">
</g>
<g id="Layer_2">
	<g>
		<g>
			<linearGradient id="SVGID_2_" gradientUnits="userSpaceOnUse" x1="36.8438" y1="33.1025" x2="36.8438" y2="72.2188">
				<stop  offset="0" style="stop-color:#FF7900"/>
				<stop  offset="0.3889" style="stop-color:#FF5E00"/>
				<stop  offset="0.7352" style="stop-color:#FF4E00"/>
				<stop  offset="1" style="stop-color:#FF4800"/>
			</linearGradient>
			<path fill="url(#SVGID_2_)" d="M48.669,33.103H25.018c-2.832,0-5.129,2.288-5.129,5.113v23.58c0,2.824,2.297,5.114,5.129,5.114
				h6.497l3.605,3.595l0.003,0.003l0.002,0.002c0.031,0.03,0.059,0.057,0.084,0.079l1.636,1.63l1.627-1.625
				c0.027-0.023,0.059-0.051,0.09-0.084l0.003-0.002l0.001-0.003l3.608-3.595h6.495c2.833,0,5.13-2.29,5.13-5.114v-23.58
				C53.799,35.391,51.502,33.103,48.669,33.103z"/>
		</g>
		<g>
			<ellipse fill-rule="evenodd" clip-rule="evenodd" fill="#DCDCDD" cx="36.844" cy="75.127" rx="9.299" ry="0.873"/>
			<ellipse fill-rule="evenodd" clip-rule="evenodd" fill="#DCDCDD" cx="36.844" cy="75.127" rx="8.113" ry="0.623"/>
			<ellipse fill-rule="evenodd" clip-rule="evenodd" fill="#DCDCDD" cx="36.844" cy="75.127" rx="6.928" ry="0.372"/>
		</g>
		<g>
			<path fill="#BC5900" d="M31.196,49.319c0.235-1.148,0.809-2.173,1.611-2.972c1.067-1.057,2.534-1.707,4.158-1.704
				c1.625,0.005,3.087,0.663,4.15,1.726c0.792,0.796,1.357,1.812,1.589,2.949c0.519,0.115,0.974,0.396,1.309,0.783
				c-0.208-3.702-3.277-6.645-7.046-6.653c-3.778-0.008-6.87,2.936-7.078,6.653C30.223,49.714,30.68,49.434,31.196,49.319z"/>
			<path fill="#BC5900" d="M27.601,50.478c0.006-2.575,1.058-4.9,2.755-6.586c1.697-1.684,4.034-2.721,6.618-2.715
				c2.584,0.007,4.917,1.055,6.606,2.748c1.688,1.692,2.729,4.021,2.723,6.599c-0.004,1.605-0.413,3.113-1.132,4.429
				c0.271,0.428,0.454,0.918,0.52,1.442c1.14-1.674,1.806-3.693,1.812-5.869c0.014-5.81-4.697-10.529-10.524-10.544
				c-5.827-0.014-10.562,4.684-10.576,10.492c-0.006,2.194,0.663,4.232,1.812,5.921c0.065-0.524,0.248-1.015,0.521-1.442
				C28.007,53.623,27.596,52.099,27.601,50.478z"/>
			<path fill="#BC5900" d="M36.986,36.715c-7.637-0.019-13.844,6.139-13.862,13.751c-0.011,4.309,1.961,8.157,5.061,10.694v-1.6
				c-0.063-0.059-0.125-0.118-0.185-0.18c-2.28-2.285-3.686-5.433-3.678-8.911c0.01-3.479,1.43-6.619,3.721-8.894
				c2.293-2.274,5.45-3.675,8.94-3.666c3.488,0.008,6.639,1.425,8.92,3.71c2.28,2.285,3.685,5.433,3.677,8.911
				c-0.008,3.478-1.43,6.62-3.721,8.895c-0.045,0.045-0.092,0.089-0.141,0.135v1.601c3.08-2.521,5.05-6.344,5.061-10.626
				C50.798,42.92,44.622,36.734,36.986,36.715z"/>
			<g>
				<path fill="#BC5900" d="M32.29,54.005c-0.014,0.003-0.025,0.007-0.038,0.01c-0.005-0.007-0.009-0.012-0.015-0.019
					c-0.169-0.031-0.342-0.047-0.519-0.047c-0.195,0-0.387,0.02-0.571,0.055c-0.099,0.021-0.197,0.047-0.293,0.075
					c-0.767,0.238-1.399,0.789-1.743,1.502c-0.186,0.379-0.288,0.804-0.288,1.254v0.371v2.931v1.516
					c1.059,0.768,2.23,1.391,3.486,1.836v-1.275v-2.265v-1.353v-2.323c0-0.146,0.009-0.291,0.021-0.433
					c0.045-0.469,0.16-0.917,0.334-1.336c0.049-0.116,0.099-0.229,0.156-0.338C32.65,54.097,32.473,54.043,32.29,54.005z"/>
			</g>
			<g>
				<path fill="#BC5900" d="M44.794,55.581c-0.346-0.713-0.978-1.264-1.745-1.502c-0.097-0.028-0.194-0.055-0.292-0.075
					c-0.185-0.035-0.377-0.055-0.571-0.055c-0.178,0-0.353,0.016-0.521,0.047c-0.006,0.007-0.008,0.012-0.014,0.019
					c-0.012-0.003-0.024-0.007-0.037-0.01c-0.185,0.038-0.363,0.093-0.533,0.163c0.056,0.109,0.106,0.223,0.154,0.337
					c0.176,0.42,0.29,0.868,0.333,1.338c0.013,0.142,0.022,0.284,0.022,0.43v2.324v1.353v2.266v1.275
					c1.257-0.446,2.43-1.068,3.489-1.838v-1.518v-2.929v-0.371C45.08,56.385,44.977,55.96,44.794,55.581z"/>
			</g>
			<g>
				<path fill="#BC5900" d="M40.585,55.101c-0.497-1.528-1.937-2.636-3.635-2.636c-1.699,0-3.139,1.105-3.634,2.635
					c-0.119,0.369-0.186,0.764-0.186,1.173v0.163v2.577v1.296v2.195v1.25c1.204,0.344,2.474,0.529,3.785,0.531
					c1.338,0.005,2.63-0.183,3.854-0.531v-1.25v-2.195v-1.295v-2.575v-0.166C40.77,55.863,40.703,55.471,40.585,55.101z"/>
			</g>
			<ellipse fill="#BC5900" cx="36.95" cy="49.457" rx="2.34" ry="2.333"/>
			<g>
				<path fill="#BC5900" d="M31.719,49.899c-0.218,0-0.426,0.041-0.62,0.112c-0.628,0.232-1.089,0.813-1.147,1.506
					c-0.004,0.051-0.007,0.102-0.007,0.15c0,0.321,0.087,0.623,0.238,0.883c0.218,0.377,0.572,0.667,0.994,0.803
					c0.172,0.053,0.354,0.083,0.542,0.083c0.049,0,0.098-0.003,0.147-0.007c0.135-0.011,0.268-0.036,0.394-0.076
					c0.715-0.228,1.232-0.896,1.232-1.686C33.492,50.691,32.698,49.899,31.719,49.899z"/>
			</g>
			<g>
				<path fill="#BC5900" d="M43.952,51.518c-0.06-0.694-0.52-1.273-1.147-1.506c-0.193-0.071-0.402-0.112-0.619-0.112
					c-0.98,0-1.775,0.792-1.775,1.769c0,0.789,0.521,1.458,1.235,1.686c0.125,0.04,0.256,0.065,0.393,0.076
					c0.048,0.004,0.097,0.007,0.147,0.007c0.188,0,0.369-0.03,0.541-0.083c0.421-0.136,0.775-0.425,0.994-0.801
					c0.151-0.26,0.238-0.563,0.238-0.885C43.959,51.616,43.957,51.566,43.952,51.518z"/>
			</g>
		</g>
		<g>
			<path fill="#FFFFFF" d="M31.099,49.58c0.236-1.149,0.809-2.172,1.612-2.971c1.066-1.059,2.533-1.708,4.158-1.706
				c1.625,0.005,3.088,0.663,4.149,1.726c0.792,0.796,1.357,1.813,1.591,2.951c0.518,0.113,0.972,0.393,1.307,0.78
				c-0.208-3.701-3.278-6.643-7.044-6.651c-3.779-0.01-6.872,2.936-7.081,6.654C30.127,49.974,30.582,49.693,31.099,49.58z"/>
			<path fill="#FFFFFF" d="M27.503,50.737c0.007-2.576,1.058-4.9,2.755-6.585c1.699-1.684,4.035-2.72,6.619-2.715
				c2.584,0.007,4.915,1.055,6.606,2.746c1.688,1.694,2.729,4.023,2.722,6.6c-0.002,1.605-0.414,3.114-1.132,4.43
				c0.272,0.427,0.454,0.916,0.52,1.443c1.14-1.676,1.807-3.693,1.813-5.87c0.013-5.809-4.698-10.528-10.525-10.544
				c-5.826-0.014-10.562,4.684-10.576,10.493c-0.006,2.192,0.665,4.231,1.812,5.921c0.066-0.527,0.249-1.017,0.521-1.443
				C27.91,53.883,27.498,52.359,27.503,50.737z"/>
			<path fill="#FFFFFF" d="M36.888,36.976c-7.636-0.019-13.842,6.138-13.861,13.751c-0.009,4.309,1.963,8.159,5.062,10.693v-1.599
				c-0.063-0.06-0.125-0.118-0.186-0.179c-2.28-2.286-3.686-5.435-3.676-8.912c0.009-3.479,1.429-6.619,3.72-8.895
				c2.292-2.273,5.449-3.675,8.938-3.665c3.49,0.008,6.639,1.425,8.922,3.708c2.279,2.287,3.685,5.436,3.676,8.913
				c-0.008,3.478-1.429,6.619-3.721,8.894c-0.046,0.045-0.093,0.091-0.14,0.136v1.6c3.079-2.521,5.049-6.342,5.06-10.626
				C50.699,43.182,44.525,36.995,36.888,36.976z"/>
			<g>
				<path fill="#FFFFFF" d="M32.192,54.267c-0.012,0.001-0.026,0.004-0.037,0.008c-0.005-0.007-0.01-0.012-0.014-0.018
					c-0.17-0.031-0.344-0.049-0.521-0.049c-0.194,0-0.386,0.021-0.571,0.058c-0.1,0.02-0.196,0.044-0.29,0.074
					c-0.771,0.239-1.401,0.788-1.747,1.5c-0.184,0.381-0.286,0.807-0.286,1.257v0.37v2.929v1.518
					c1.057,0.768,2.229,1.39,3.486,1.836v-1.275v-2.266v-1.353v-2.323c0-0.146,0.008-0.289,0.022-0.431
					c0.044-0.47,0.158-0.919,0.333-1.338c0.048-0.114,0.098-0.229,0.155-0.337C32.554,54.356,32.376,54.302,32.192,54.267z"/>
			</g>
			<g>
				<path fill="#FFFFFF" d="M44.696,55.84c-0.347-0.712-0.977-1.261-1.747-1.5c-0.095-0.03-0.19-0.055-0.29-0.074
					c-0.185-0.037-0.376-0.058-0.571-0.058c-0.178,0-0.352,0.019-0.521,0.05c-0.003,0.005-0.008,0.01-0.011,0.017
					c-0.015-0.004-0.026-0.007-0.038-0.008c-0.186,0.037-0.363,0.091-0.535,0.16c0.059,0.11,0.109,0.224,0.157,0.339
					c0.174,0.419,0.287,0.869,0.332,1.339c0.014,0.142,0.022,0.283,0.022,0.428v2.325v1.353v2.265v1.275
					c1.257-0.446,2.43-1.068,3.488-1.837v-1.519v-2.928v-0.37C44.982,56.646,44.88,56.221,44.696,55.84z"/>
			</g>
			<g>
				<path fill="#FFFFFF" d="M40.487,55.362c-0.496-1.53-1.935-2.638-3.634-2.638c-1.7,0-3.139,1.106-3.635,2.637
					c-0.119,0.369-0.185,0.763-0.185,1.171v0.165v2.575v1.295v2.198v1.247c1.203,0.344,2.473,0.531,3.786,0.532
					c1.337,0.006,2.628-0.182,3.852-0.532v-1.247v-2.197v-1.293v-2.576v-0.167C40.672,56.124,40.606,55.73,40.487,55.362z"/>
			</g>
			<ellipse fill="#FFFFFF" cx="36.854" cy="49.717" rx="2.34" ry="2.333"/>
			<g>
				<path fill="#FFFFFF" d="M31.621,50.16c-0.218,0-0.427,0.04-0.619,0.11c-0.629,0.234-1.089,0.813-1.147,1.509
					c-0.004,0.049-0.008,0.1-0.008,0.149c0,0.322,0.088,0.622,0.239,0.883c0.218,0.378,0.571,0.667,0.995,0.802
					c0.171,0.054,0.351,0.083,0.54,0.083c0.05,0,0.099-0.002,0.146-0.005c0.136-0.013,0.268-0.039,0.394-0.078
					c0.716-0.228,1.233-0.895,1.233-1.685C33.395,50.951,32.601,50.16,31.621,50.16z"/>
			</g>
			<g>
				<path fill="#FFFFFF" d="M43.854,51.777c-0.06-0.693-0.519-1.273-1.148-1.507c-0.191-0.07-0.4-0.11-0.618-0.11
					c-0.979,0-1.773,0.791-1.773,1.769c0,0.788,0.518,1.457,1.233,1.685c0.126,0.039,0.256,0.065,0.393,0.078
					c0.049,0.003,0.098,0.005,0.147,0.005c0.189,0,0.371-0.029,0.54-0.083c0.424-0.135,0.776-0.424,0.994-0.799
					c0.152-0.262,0.239-0.563,0.239-0.886C43.861,51.878,43.857,51.826,43.854,51.777z"/>
			</g>
		</g>
		<path fill="#282F35" d="M63.147,56.668c0,0,2.007,2.071,5.105,2.071c1.479,0,2.959-0.771,2.959-2.212
			c0-3.265-9.156-2.598-9.156-8.391c0-3.229,2.887-5.055,6.443-5.055c3.909,0,5.739,1.966,5.739,1.966l-1.372,2.563
			c0,0-1.585-1.581-4.403-1.581c-1.477,0-2.922,0.632-2.922,2.177c0,3.195,9.156,2.492,9.156,8.32c0,2.949-2.535,5.161-6.444,5.161
			c-4.367,0-6.761-2.598-6.761-2.598L63.147,56.668z"/>
		<path fill="#282F35" d="M85.613,43.082c5.317,0,9.612,3.896,9.612,9.268c0,5.407-4.295,9.339-9.612,9.339
			c-5.318,0-9.613-3.932-9.613-9.339C76,46.979,80.295,43.082,85.613,43.082z M85.613,58.739c3.381,0,6.127-2.668,6.127-6.39
			c0-3.686-2.746-6.319-6.127-6.319c-3.346,0-6.127,2.634-6.127,6.319C79.486,56.071,82.268,58.739,85.613,58.739z"/>
		<path fill="#282F35" d="M106.143,43.082c4.472,0,6.69,2.598,6.69,2.598l-1.619,2.387c0,0-1.902-2.036-4.931-2.036
			c-3.593,0-6.198,2.668-6.198,6.319c0,3.615,2.605,6.39,6.304,6.39c3.31,0,5.493-2.388,5.493-2.388l1.374,2.493
			c0,0-2.466,2.844-7.113,2.844c-5.599,0-9.544-3.967-9.544-9.304C96.599,47.119,100.544,43.082,106.143,43.082z"/>
		<path fill="#282F35" d="M115.684,36.48h3.452v3.477h-3.452V36.48z M115.721,43.504h3.415v17.764h-3.415V43.504z"/>
		<path fill="#282F35" d="M132.375,50.173h0.774v-0.315c0-2.915-1.654-3.896-3.907-3.896c-2.748,0-4.967,1.719-4.967,1.719
			l-1.407-2.491c0,0,2.569-2.106,6.656-2.106c4.506,0,7.042,2.457,7.042,6.95v11.235h-3.17v-1.686c0-0.808,0.07-1.405,0.07-1.405
			h-0.07c0,0-1.443,3.512-5.705,3.512c-3.063,0-6.057-1.861-6.057-5.406C121.635,50.418,129.382,50.173,132.375,50.173z
			 M128.432,58.95c2.888,0,4.754-3.02,4.754-5.651v-0.563h-0.881c-2.571,0-7.22,0.175-7.22,3.37
			C125.085,57.546,126.213,58.95,128.432,58.95z"/>
		<path fill="#282F35" d="M140.052,36.48h3.416v19.344c0,2.144,0.845,2.529,1.901,2.529c0.317,0,0.598-0.034,0.598-0.034v3.019
			c0,0-0.527,0.07-1.127,0.07c-1.937,0-4.788-0.527-4.788-4.985V36.48z"/>
		<g>
			<linearGradient id="SVGID_3_" gradientUnits="userSpaceOnUse" x1="153.3799" y1="43.1162" x2="153.3799" y2="61.2676">
				<stop  offset="0" style="stop-color:#FF7900"/>
				<stop  offset="0.3889" style="stop-color:#FF5E00"/>
				<stop  offset="0.7352" style="stop-color:#FF4E00"/>
				<stop  offset="1" style="stop-color:#FF4800"/>
			</linearGradient>
			<path fill="url(#SVGID_3_)" d="M147.975,43.363h4.296v3.088c0,0.668-0.069,1.264-0.069,1.264h0.069
				c0.81-2.562,2.957-4.599,5.704-4.599c0.423,0,0.81,0.07,0.81,0.07v4.388c0,0-0.457-0.07-1.056-0.07
				c-1.901,0-4.049,1.09-4.896,3.758c-0.28,0.878-0.386,1.86-0.386,2.914v7.092h-4.473V43.363z"/>
			<linearGradient id="SVGID_4_" gradientUnits="userSpaceOnUse" x1="166.7256" y1="42.9414" x2="166.7256" y2="61.6885">
				<stop  offset="0" style="stop-color:#FF7900"/>
				<stop  offset="0.3889" style="stop-color:#FF5E00"/>
				<stop  offset="0.7352" style="stop-color:#FF4E00"/>
				<stop  offset="1" style="stop-color:#FF4800"/>
			</linearGradient>
			<path fill="url(#SVGID_4_)" d="M169.525,50.032h0.599v-0.245c0-2.353-1.479-3.16-3.451-3.16c-2.571,0-4.93,1.721-4.93,1.721
				l-1.691-3.194c0,0,2.783-2.212,7.043-2.212c4.719,0,7.466,2.598,7.466,7.126v11.2h-4.121v-1.475c0-0.702,0.07-1.265,0.07-1.265
				h-0.07c0.037,0-1.374,3.16-5.458,3.16c-3.204,0-6.091-2.001-6.091-5.582C158.891,50.418,166.603,50.032,169.525,50.032z
				 M166.108,58.213c2.359,0,4.051-2.527,4.051-4.705v-0.42h-0.775c-2.289,0-5.986,0.315-5.986,2.808
				C163.397,57.09,164.278,58.213,166.108,58.213z"/>
			<linearGradient id="SVGID_5_" gradientUnits="userSpaceOnUse" x1="204.2275" y1="42.9414" x2="204.2275" y2="61.6885">
				<stop  offset="0" style="stop-color:#FF7900"/>
				<stop  offset="0.3889" style="stop-color:#FF5E00"/>
				<stop  offset="0.7352" style="stop-color:#FF4E00"/>
				<stop  offset="1" style="stop-color:#FF4800"/>
			</linearGradient>
			<path fill="url(#SVGID_5_)" d="M207.026,50.032h0.599v-0.245c0-2.353-1.479-3.16-3.451-3.16c-2.57,0-4.931,1.721-4.931,1.721
				l-1.689-3.194c0,0,2.782-2.212,7.042-2.212c4.72,0,7.467,2.598,7.467,7.126v11.2h-4.121v-1.475c0-0.702,0.071-1.265,0.071-1.265
				h-0.071c0.036,0-1.373,3.16-5.457,3.16c-3.204,0-6.092-2.001-6.092-5.582C196.393,50.418,204.104,50.032,207.026,50.032z
				 M203.609,58.213c2.361,0,4.05-2.527,4.05-4.705v-0.42h-0.774c-2.289,0-5.986,0.315-5.986,2.808
				C200.898,57.09,201.778,58.213,203.609,58.213z"/>
			<linearGradient id="SVGID_6_" gradientUnits="userSpaceOnUse" x1="220.7051" y1="43.1162" x2="220.7051" y2="61.2676">
				<stop  offset="0" style="stop-color:#FF7900"/>
				<stop  offset="0.3889" style="stop-color:#FF5E00"/>
				<stop  offset="0.7352" style="stop-color:#FF4E00"/>
				<stop  offset="1" style="stop-color:#FF4800"/>
			</linearGradient>
			<path fill="url(#SVGID_6_)" d="M215.299,43.363h4.298v3.088c0,0.668-0.07,1.264-0.07,1.264h0.07
				c0.81-2.562,2.958-4.599,5.704-4.599c0.424,0,0.811,0.07,0.811,0.07v4.388c0,0-0.458-0.07-1.057-0.07
				c-1.901,0-4.049,1.09-4.896,3.758c-0.281,0.878-0.386,1.86-0.386,2.914v7.092h-4.475V43.363z"/>
			<linearGradient id="SVGID_7_" gradientUnits="userSpaceOnUse" x1="185.4756" y1="36.1348" x2="185.4756" y2="71.7099">
				<stop  offset="0" style="stop-color:#FF7900"/>
				<stop  offset="0.3889" style="stop-color:#FF5E00"/>
				<stop  offset="0.7352" style="stop-color:#FF4E00"/>
				<stop  offset="1" style="stop-color:#FF4800"/>
			</linearGradient>
			<path fill="url(#SVGID_7_)" d="M194.11,38.455c-0.408-0.91-1.224-1.599-2.212-1.838c-0.245-0.061-0.499-0.096-0.764-0.097
				l-0.103,0.008l-1.119,0.06v7.617c0,0.562,0.035,1.019,0.035,1.019h-0.07c0,0-1.232-2.282-5.177-2.282
				c-4.754,0-8.134,3.686-8.134,9.373c0,5.548,3.099,9.374,7.958,9.374c4.12,0,5.633-3.054,5.633-3.054h0.071
				c0,0-0.071,0.491-0.071,1.158v1.475h4.227V39.64C194.367,39.219,194.272,38.819,194.11,38.455z M185.547,57.933
				c-2.643,0-4.473-2.213-4.473-5.618c0-3.545,2.042-5.547,4.507-5.547c2.994,0,4.474,2.738,4.474,5.513
				C190.055,56.246,187.87,57.933,185.547,57.933z"/>
			<g>
				<g>
					
						<linearGradient id="SVGID_8_" gradientUnits="userSpaceOnUse" x1="400.5713" y1="28" x2="400.5713" y2="39.3926" gradientTransform="matrix(1 0 0 1 -203.4287 0)">
						<stop  offset="0" style="stop-color:#FF7900"/>
						<stop  offset="0.3889" style="stop-color:#FF5E00"/>
						<stop  offset="0.7352" style="stop-color:#FF4E00"/>
						<stop  offset="1" style="stop-color:#FF4800"/>
					</linearGradient>
					<path fill="url(#SVGID_8_)" d="M191.514,28c-0.057,0-0.111,0.004-0.167,0.004v1.555c0.056,0,0.11-0.008,0.167-0.008
						c2.636,0,5.113,1.024,6.979,2.883c1.862,1.857,2.889,4.329,2.89,6.957v0.002h1.555v-0.002
						C202.938,33.111,197.813,28,191.514,28z M191.514,30.701c-0.058,0-0.111,0.008-0.167,0.008v1.551
						c0.056-0.001,0.11-0.009,0.167-0.009c1.911,0.001,3.711,0.744,5.063,2.091c1.354,1.35,2.098,3.143,2.098,5.051h1.555
						C200.229,34.6,196.32,30.701,191.514,30.701z M191.514,33.479c-0.057,0-0.111,0.006-0.167,0.009v1.55
						c0.056-0.002,0.11-0.009,0.167-0.009c2.409,0.006,4.371,1.962,4.376,4.361v0.003h1.555v-0.002
						C197.444,36.132,194.783,33.479,191.514,33.479z"/>
				</g>
			</g>
		</g>
	</g>
</g>
</svg>
