<?xml version="1.0" encoding="utf-8"?>
<!-- Generator: Adobe Illustrator 16.0.3, SVG Export Plug-In . SVG Version: 6.00 Build 0)  -->
<!DOCTYPE svg PUBLIC "-//W3C//DTD SVG 1.1//EN" "http://www.w3.org/Graphics/SVG/1.1/DTD/svg11.dtd">
<svg version="1.1" xmlns="http://www.w3.org/2000/svg" xmlns:xlink="http://www.w3.org/1999/xlink" x="0px" y="0px" width="206px"
	 height="100px" viewBox="0 0 206 100" enable-background="new 0 0 206 100" xml:space="preserve">
<g id="guides">
</g>
<g id="Layer_2">
	<g>
		<g>
			<g>
				<g>
					<path fill="#231F20" d="M53.877,70.153c0-0.894,0.465-1.176,1.171-1.176h4.689c0.585,0,1.009,0.171,1.009,0.805
						c0,0.642-0.424,0.813-1.009,0.813h-3.862v1.907h3.39c0.519,0,0.936,0.149,0.936,0.77c0,0.626-0.417,0.771-0.936,0.771h-3.39
						v2.131h3.958c0.585,0,1.013,0.17,1.013,0.809c0,0.635-0.428,0.808-1.013,0.808h-4.785c-0.706,0-1.171-0.282-1.171-1.175V70.153
						z"/>
					<path fill="#231F20" d="M66.009,69.823c0-0.6,0.39-1.005,0.998-1.005s1,0.405,1,1.005v6.278h3.337
						c0.568,0,1.036,0.294,1.036,0.845c0,0.553-0.468,0.844-1.036,0.844h-4.167c-0.707,0-1.168-0.282-1.168-1.175V69.823z"/>
					<path fill="#231F20" d="M77.335,70.153c0-0.894,0.463-1.176,1.168-1.176h4.688c0.585,0,1.013,0.171,1.013,0.805
						c0,0.642-0.428,0.813-1.013,0.813h-3.858v1.907h3.383c0.525,0,0.938,0.149,0.938,0.77c0,0.626-0.413,0.771-0.938,0.771h-3.383
						v2.131h3.958c0.585,0,1.011,0.17,1.011,0.809c0,0.635-0.426,0.808-1.011,0.808h-4.788c-0.705,0-1.168-0.282-1.168-1.175V70.153
						z"/>
					<path fill="#231F20" d="M93.472,68.77c2.287,0,3.542,1.443,3.542,2.301c0,0.563-0.305,0.906-0.9,0.906
						c-1.158,0-0.815-1.593-2.642-1.593c-1.256,0-2.291,1.089-2.291,3.001c0,1.602,0.633,2.997,2.363,2.997
						c1.571,0,1.534-1.688,2.495-1.688c0.489,0,0.975,0.282,0.975,0.77c0,1.275-1.533,2.537-3.47,2.537
						c-2.741,0-4.359-1.58-4.359-4.615C89.185,70.9,90.646,68.77,93.472,68.77z"/>
					<path fill="#231F20" d="M104.236,70.666h-1.887c-0.575,0-1.036-0.294-1.036-0.843c0-0.553,0.461-0.846,1.036-0.846h5.772
						c0.569,0,1.034,0.293,1.034,0.846c0,0.549-0.465,0.843-1.034,0.843h-1.892v6.28c0,0.598-0.387,1.006-0.996,1.006
						c-0.606,0-0.998-0.408-0.998-1.006V70.666z"/>
					<path fill="#231F20" d="M114.062,70.153c0-0.894,0.463-1.176,1.171-1.176h3.324c2.374,0,3.009,1.31,3.009,2.447
						c0,0.953-0.56,1.9-1.511,2.118v0.023c1.021,0.147,1.206,0.896,1.206,1.791c0,1.013,0.266,1.395,0.266,1.812
						c0,0.464-0.474,0.783-0.937,0.783c-1.096,0-1.183-1.067-1.183-1.423c0-1.543-0.273-2.166-1.376-2.166h-1.969v2.583
						c0,0.598-0.391,1.006-1,1.006c-0.608,0-1.001-0.408-1.001-1.006V70.153z M116.063,72.896h1.996c0.76,0,1.507-0.197,1.507-1.188
						c0-0.942-0.569-1.188-1.448-1.188h-2.055V72.896z"/>
					<path fill="#231F20" d="M130.967,68.77c2.876,0,4.433,1.92,4.433,4.502c0,2.485-1.438,4.729-4.433,4.729
						c-3.141,0-4.434-2.056-4.434-4.729C126.533,70.689,128.094,68.77,130.967,68.77z M130.967,76.382
						c1.815,0,2.436-1.42,2.436-3.11c0-1.688-0.803-2.888-2.436-2.888c-1.634,0-2.437,1.2-2.437,2.888
						C128.53,74.962,129.091,76.382,130.967,76.382z"/>
					<path fill="#231F20" d="M140.661,69.995c0-0.836,0.403-1.177,1.256-1.177c0.413,0,0.776,0.159,0.996,0.529l3.493,5.664h0.026
						v-5.229c0-0.645,0.365-0.964,0.963-0.964s0.961,0.319,0.961,0.964v6.922c0,0.795-0.34,1.248-1.181,1.248
						c-0.633,0-0.839-0.137-1.096-0.541l-3.472-5.51h-0.025v5.081c0,0.65-0.363,0.97-0.961,0.97s-0.961-0.319-0.961-0.97V69.995z"/>
					<path fill="#231F20" d="M154.009,69.823c0-0.6,0.389-1.005,0.997-1.005c0.609,0,1,0.405,1,1.005v7.123
						c0,0.598-0.391,1.006-1,1.006c-0.608,0-0.997-0.408-0.997-1.006V69.823z"/>
					<path fill="#231F20" d="M165.697,68.77c2.293,0,3.546,1.443,3.546,2.301c0,0.563-0.305,0.906-0.9,0.906
						c-1.158,0-0.819-1.593-2.646-1.593c-1.256,0-2.287,1.089-2.287,3.001c0,1.602,0.633,2.997,2.359,2.997
						c1.571,0,1.537-1.688,2.498-1.688c0.488,0,0.976,0.282,0.976,0.77c0,1.275-1.533,2.537-3.474,2.537
						c-2.737,0-4.36-1.58-4.36-4.615C161.409,70.9,162.872,68.77,165.697,68.77z"/>
					<path fill="#231F20" d="M178.912,72.685c1.826,0.418,2.288,1.506,2.288,2.536c0,1.593-1.193,2.779-3.606,2.779
						c-2.529,0-3.663-1.272-3.663-2.231c0-0.488,0.354-0.829,0.841-0.829c1.085,0,0.803,1.59,2.822,1.59
						c1.037,0,1.61-0.574,1.61-1.161c0-0.356-0.17-0.749-0.853-0.92l-2.252-0.575c-1.815-0.463-2.146-1.467-2.146-2.411
						c0-1.958,1.803-2.692,3.494-2.692c1.561,0,3.399,0.883,3.399,2.056c0,0.504-0.426,0.793-0.913,0.793
						c-0.926,0-0.753-1.306-2.617-1.306c-0.929,0-1.439,0.43-1.439,1.041c0,0.612,0.732,0.807,1.363,0.955L178.912,72.685z"/>
				</g>
				<g>
					<path fill="#231F20" d="M29.479,58.264c0,2.125,1.874,3.035,3.779,3.035c1.386,0,3.225-0.557,3.225-2.301
						c0-1.498-2.078-2.056-5.581-2.787c-2.88-0.662-5.685-1.604-5.685-4.807c0-4.6,3.95-5.786,7.798-5.786
						c3.884,0,7.522,1.326,7.905,5.75h-4.678c-0.142-1.915-1.599-2.44-3.364-2.44c-1.111,0-2.74,0.175-2.74,1.674
						c0,1.775,2.81,2.021,5.583,2.682c2.874,0.664,5.688,1.708,5.688,5.053c0,4.738-4.13,6.272-8.185,6.272
						c-4.159,0-8.25-1.566-8.425-6.345H29.479z"/>
					<path fill="#231F20" d="M43.374,46.945l4.68-0.84v2.298h0.068c1.215-1.949,3.119-2.785,5.34-2.785
						c5.611,0,8.144,4.565,8.144,9.686c0,4.809-2.599,9.305-7.869,9.305c-2.184,0-4.159-0.943-5.371-2.715h-0.07v12.969
						l-4.921-4.401V46.945z M56.683,55.165c0-2.892-1.144-5.816-4.294-5.816c-3.227,0-4.267,2.892-4.267,5.816
						c0,2.924,1.106,5.711,4.298,5.711C55.646,60.876,56.683,58.089,56.683,55.165z"/>
					<path fill="#231F20" d="M63.578,51.646c0.276-4.6,4.402-6.027,8.424-6.027c3.569,0,7.873,0.803,7.873,5.119v9.375
						c0,1.638,0.172,3.277,0.62,4.008h-4.986c-0.177-0.558-0.315-1.153-0.353-1.739c-1.557,1.635-3.811,2.228-6.033,2.228
						c-3.43,0-6.101-1.702-6.101-5.403c0.068-8.186,12.134-3.794,11.926-7.837c0-2.09-1.456-2.44-3.189-2.44
						c-1.905,0-3.084,0.77-3.258,2.718H63.578z M74.948,55.304c-0.832,0.735-2.564,0.769-4.088,1.048
						c-1.523,0.275-2.918,0.836-2.918,2.646c0,1.813,1.424,2.301,3.021,2.301c3.844,0,3.984-3.035,3.984-4.146V55.304z"/>
					<path fill="#231F20" d="M82.66,46.945l4.682-0.84v3.348h0.066c0.939-2.268,3.262-3.835,5.721-3.835
						c0.385,0,0.73,0.072,1.075,0.174v4.597c-0.452-0.099-1.175-0.173-1.766-0.173c-3.64,0-4.856,2.581-4.856,5.788v8.116H82.66
						V46.945z"/>
					<path fill="#231F20" d="M96.107,41.956l4.924-2.714v13.347l6.207-6.483h5.823l-6.761,6.624l7.521,11.391h-5.96l-4.921-8.048
						l-1.909,1.846v6.202h-4.924V41.956z"/>
					<path fill="#231F20" d="M116.815,49.415h-4.854l3.354-3.31h1.5v-1.391c0-3.206,1.978-5.473,6-5.473
						c0.862,0,1.766,0.104,2.6,0.14v3.694c-0.591-0.071-1.216-0.105-1.803-0.105c-1.352,0-1.872,0.557-1.872,2.056v1.079h3.395v3.31
						h-3.395V64.12h-4.925V49.415z"/>
					<path fill="#231F20" d="M143.332,64.12h-4.682v-2.509h-0.104c-1.245,2.054-3.399,2.997-5.479,2.997
						c-5.233,0-6.551-2.964-6.551-7.421V46.105h4.924v10.171c0,2.967,0.83,4.426,3.154,4.426c2.669,0,3.813-1.497,3.813-5.153
						v-9.443h4.924V64.12z"/>
					<path fill="#231F20" d="M146.051,46.105h4.682v2.51h0.102c1.247-2.056,3.396-2.997,5.479-2.997
						c5.234,0,6.552,2.961,6.552,7.417V64.12h-4.923V53.947c0-2.965-0.836-4.429-3.156-4.429c-2.666,0-3.808,1.501-3.808,5.16v9.441
						h-4.927V46.105z"/>
				</g>
			</g>
		</g>
		<g>
			<path fill="#EE3524" d="M123.795,15.188c0,0,0.458,1.942-1.003,2.21c-1.015,0.184-2.654-0.829-3.479-1.839
				c-1.016-1.246-0.887-2.228-0.096-3.095c1.187-1.32,3.221-0.81,3.221-0.81s-3.726-3.287-7.608-0.595
				c-3.455,2.391-2.463,5.648,0.654,8.494c2.813,2.572,0.568,5.391-2.265,5.023c-1.942-0.247-2.734-1.813-2.27-2.773
				c0.404-0.825,1.797-1.33,1.797-1.33s-1.603-0.652-3.484,0.062c-1.691,0.641-3.088,2.046-2.976,5.566V42.43
				c0,0,1.747-2.168,3.802-4.374c2.306-2.486,3.355-4.167,5.721-3.968c4.473,0.275,7.71-1.723,9.909-4.927
				C129.941,22.996,126.634,16.106,123.795,15.188z"/>
		</g>
		<g>
			<path fill="#231F20" d="M167.195,59.557c1.23,0,2.332,0.894,2.332,2.276c0,1.392-1.102,2.287-2.332,2.287
				s-2.329-0.896-2.329-2.287C164.866,60.45,165.965,59.557,167.195,59.557z M167.195,63.631c0.941,0,1.712-0.756,1.712-1.798
				c0-1.035-0.771-1.786-1.712-1.786c-0.951,0-1.71,0.751-1.71,1.786C165.485,62.875,166.244,63.631,167.195,63.631z
				 M166.292,60.555h0.959c0.64,0,0.996,0.2,0.996,0.753c0,0.471-0.299,0.654-0.668,0.686l0.679,1.116h-0.525l-0.62-1.094h-0.315
				v1.094h-0.505V60.555z M166.797,61.617h0.448c0.294,0,0.498-0.039,0.498-0.353c0-0.268-0.293-0.315-0.525-0.315h-0.421V61.617z"
				/>
		</g>
	</g>
</g>
</svg>
