<?xml version="1.0" encoding="utf-8"?>
<!-- Generator: Adobe Illustrator 16.0.3, SVG Export Plug-In . SVG Version: 6.00 Build 0)  -->
<!DOCTYPE svg PUBLIC "-//W3C//DTD SVG 1.1//EN" "http://www.w3.org/Graphics/SVG/1.1/DTD/svg11.dtd">
<svg version="1.1" xmlns="http://www.w3.org/2000/svg" xmlns:xlink="http://www.w3.org/1999/xlink" x="0px" y="0px" width="240px"
	 height="100px" viewBox="0 0 240 100" enable-background="new 0 0 240 100" xml:space="preserve">
<g id="guides">
</g>
<g id="Layer_2">
	<g>
		<path fill="#60240A" d="M59.917,61.875c-2.831,0-5.386-0.312-7.665-2.59l2.936-2.935c1.484,1.483,3.418,1.691,4.799,1.691
			c1.554,0,3.176-0.518,3.176-1.864c0-0.897-0.483-1.519-1.898-1.657l-2.832-0.276c-3.244-0.311-5.247-1.726-5.247-5.04
			c0-3.729,3.28-5.731,6.939-5.731c2.797,0,5.145,0.483,6.871,2.105l-2.763,2.797c-1.035-0.932-2.624-1.208-4.178-1.208
			c-1.795,0-2.554,0.829-2.554,1.726c0,0.656,0.275,1.416,1.863,1.554l2.831,0.277c3.557,0.345,5.352,2.244,5.352,5.281
			C67.547,59.976,64.164,61.875,59.917,61.875z"/>
		<path fill="#60240A" d="M75.383,61.667c-3.66,0-5.214-2.589-5.214-5.144v-8.908h-1.898v-3.417h1.898v-5.317h4.488v5.317h3.177
			v3.417h-3.177v8.632c0,1.035,0.483,1.623,1.554,1.623h1.623v3.797H75.383z"/>
		<path fill="#60240A" d="M79.828,40.606v-3.658h4.592v3.658H79.828z M79.896,61.667V43.68h4.489v17.987H79.896z"/>
		<path fill="#60240A" d="M94.528,61.875c-3.591,0-8.045-1.935-8.045-9.219s4.454-9.184,8.045-9.184c2.485,0,4.35,0.76,5.938,2.417
			l-3.037,3.038c-0.933-1.001-1.727-1.415-2.9-1.415c-1.07,0-1.899,0.379-2.555,1.174c-0.69,0.862-1.002,2.071-1.002,3.97
			c0,1.899,0.312,3.142,1.002,4.005c0.655,0.794,1.484,1.173,2.555,1.173c1.174,0,1.968-0.413,2.9-1.414l3.037,3.003
			C98.878,61.08,97.014,61.875,94.528,61.875z"/>
		<path fill="#60240A" d="M112.849,61.667l-4.42-7.491l-1.897,2.141v5.351h-4.488V37.086h4.488v13.947l5.973-7.354h5.421
			l-6.423,7.25l6.906,10.737H112.849z"/>
		<path fill="#60240A" d="M122.155,54.072c0,2.313,1.415,4.005,3.936,4.005c1.968,0,2.935-0.553,4.073-1.692l2.728,2.659
			c-1.829,1.829-3.59,2.831-6.835,2.831c-4.247,0-8.32-1.935-8.32-9.219c0-5.87,3.176-9.184,7.837-9.184
			c5.006,0,7.837,3.659,7.837,8.597v2.003H122.155z M128.576,49.066c-0.482-1.07-1.483-1.865-3.003-1.865s-2.521,0.795-3.003,1.865
			c-0.277,0.655-0.381,1.139-0.415,1.933h6.835C128.956,50.205,128.853,49.722,128.576,49.066z"/>
		<path fill="#60240A" d="M145.313,48.583c-0.69-0.691-1.277-1.07-2.382-1.07c-1.382,0-2.901,1.035-2.901,3.314v10.84h-4.488V43.68
			h4.385v1.727c0.864-1.036,2.59-1.934,4.522-1.934c1.762,0,3.005,0.448,4.247,1.692L145.313,48.583z"/>
		<path fill="#FF6700" d="M168.866,43.473c-2.243,0-3.866,0.69-5.386,2.279c-1.14-1.554-2.762-2.279-4.764-2.279
			c-1.657,0-3.314,0.656-4.488,1.864V43.68h-4.385v17.987h4.488V50.792c0-2.451,1.588-3.279,3.003-3.279
			c1.416,0,2.97,0.828,2.97,3.279v10.875h4.488V50.688c0-2.348,1.623-3.176,3.003-3.176c1.416,0,2.97,0.828,2.97,3.279v10.875h4.488
			V50.171c0-1.969-0.518-3.66-1.968-5.11C172.284,44.061,170.661,43.473,168.866,43.473z"/>
		<path fill="#FF6700" d="M188.374,54.556c0,2.451-1.589,3.278-3.005,3.278c-1.414,0-2.969-0.827-2.969-3.278V43.68h-4.487v11.497
			c0,1.968,0.38,3.659,1.829,5.109c1.002,1.002,2.452,1.589,4.247,1.589c1.657,0,3.314-0.622,4.488-1.865v1.657h4.385V43.68h-4.488
			V54.556z"/>
		<path fill="#FF6700" d="M200.207,56.247V37.086h-4.488v19.438c0,2.555,1.555,5.144,5.248,5.144h2.555V57.87h-1.726
			C200.656,57.87,200.207,57.317,200.207,56.247z"/>
		<path fill="#FF6700" d="M219.999,52.069c0-4.938-2.83-8.597-7.837-8.597c-4.661,0-7.837,3.313-7.837,9.184
			c0,7.284,4.074,9.219,8.321,9.219c3.245,0,5.006-1.002,6.835-2.831l-2.728-2.659c-1.14,1.14-2.106,1.692-4.073,1.692
			c-2.521,0-3.936-1.692-3.936-4.005h11.254V52.069z M208.745,50.999c0.034-0.794,0.138-1.277,0.413-1.933
			c0.483-1.07,1.485-1.865,3.004-1.865c1.52,0,2.52,0.795,3.004,1.865c0.276,0.655,0.38,1.139,0.414,1.933H208.745z"/>
		<path fill-rule="evenodd" clip-rule="evenodd" fill="#60240A" d="M38.426,63.658c-0.26,0.124-0.611,0.097-0.977,0.107
			c-0.313,0.009-0.754,0.016-0.936-0.146c-0.1-0.089-0.129-0.278-0.135-0.389c-0.008-0.133,0.025-0.295,0.054-0.441
			c0.033-0.176,0.067-0.398,0-0.495c-0.079-0.111-0.36-0.065-0.509-0.148c-0.158-0.087-0.203-0.299-0.253-0.534
			c-0.017-0.074-0.061-0.142-0.068-0.2c-0.044-0.362,0.077-0.847,0.161-1.218c0.088-0.393,0.202-0.76,0.267-1.124
			c0.099-0.551,0.132-1.172,0.094-1.74c-0.019-0.295-0.059-0.528-0.013-0.775c0.043-0.231,0.14-0.425,0.188-0.655
			c0.015-0.074,0.002-0.161,0.013-0.241c0.01-0.071,0.051-0.129,0.054-0.188c0.009-0.153-0.042-0.342-0.054-0.535
			c-0.032-0.516,0.008-1.243,0.041-1.686c0.011-0.154,0.083-0.33-0.026-0.401c-0.537-0.008-1.026,0.097-1.526,0.161
			c-1.345,0.172-3.038,0.194-4.335-0.067c-0.123-0.024-0.246-0.026-0.361-0.053c-0.92-0.213-1.768-0.608-2.422-1.125
			c-0.101-0.079-0.221-0.165-0.334-0.254c-0.111-0.086-0.229-0.205-0.334-0.255c-0.525-0.243-1.22,0.038-1.432,0.375
			c-0.085,0.134-0.146,0.309-0.228,0.468c-0.079,0.153-0.147,0.315-0.215,0.469c-0.345,0.791-0.735,1.547-1.083,2.342
			c-0.201,0.458-0.426,0.97-0.575,1.485c-0.318,1.093-0.021,2.558,0.228,3.585c0.022,0.094,0.072,0.189,0.106,0.294
			c0.08,0.249,0.248,0.58,0.441,0.75c0.102,0.089,0.274,0.143,0.389,0.241c0.144,0.123,0.25,0.367,0.361,0.575
			c0.046,0.088,0.11,0.186,0.174,0.294c0.133,0.231,0.179,0.438-0.081,0.575c-0.194,0.104-0.489,0.13-0.762,0.147
			c-0.124,0.031-0.085,0.198-0.16,0.28c-0.044,0.047-0.227,0.12-0.322,0.146c-0.358,0.104-0.965,0.1-1.244,0
			c-0.14-0.048-0.299-0.155-0.335-0.266c-0.069-0.219,0.104-0.496-0.053-0.67c-0.068-0.074-0.218-0.061-0.349-0.119
			c-0.187-0.083-0.365-0.258-0.454-0.482c-0.214-0.54-0.082-1.387-0.107-2.048c-0.007-0.193-0.033-0.399-0.04-0.614
			c-0.012-0.393-0.105-0.777-0.146-1.165c-0.021-0.188-0.084-0.35-0.121-0.521c-0.061-0.276-0.106-0.576-0.188-0.856
			c-0.088-0.308-0.091-0.608,0.014-0.869c0.029-0.073,0.106-0.142,0.146-0.241c0.063-0.151,0.085-0.33,0.081-0.469
			c-0.046-0.078-0.232-0.018-0.281-0.093c-0.112-0.847-0.239-1.697-0.308-2.583c-0.022-0.295-0.023-0.603-0.054-0.908
			c-0.059-0.605-0.01-1.221-0.066-1.807c-0.028-0.286-0.098-0.555-0.134-0.83c-0.103-0.776-0.319-1.772-0.161-2.582
			c0.103-0.521,0.288-0.941,0.589-1.324c0.209-0.269,0.436-0.525,0.683-0.764c0.235-0.228,0.509-0.453,0.789-0.655
			c0.181-0.13,0.373-0.281,0.575-0.375c0.449-0.205,1.033-0.387,1.646-0.415c0.615-0.025,1.313-0.03,1.926,0.081
			c0.584,0.105,1.166,0.208,1.739,0.32c0.563,0.11,1.114,0.264,1.646,0.402c0.069,0.017,0.129,0.06,0.201,0.079
			c0.17,0.047,0.361,0.058,0.549,0.106c0.495,0.136,1.148,0.202,1.752,0.202c0.658,0,1.251-0.018,1.794-0.146
			c0.08-0.02,0.143-0.063,0.228-0.095s0.188-0.026,0.267-0.054c0.055-0.019,0.111-0.077,0.174-0.106
			c0.313-0.149,0.578-0.3,0.857-0.495c0.22-0.154,0.401-0.287,0.694-0.401c0.13-0.05,0.262-0.12,0.388-0.16
			c0.278-0.089,0.579-0.171,0.791-0.308c0.333-0.214,0.578-0.521,0.855-0.763c0.289-0.253,0.58-0.494,0.884-0.736
			c0.614-0.49,1.238-0.938,1.818-1.404c0.294-0.237,0.619-0.458,0.965-0.656c0.674-0.385,1.357-0.838,2.326-0.909
			c0.38-0.029,0.781-0.039,1.165,0.013c0.106,0.015,0.251,0.074,0.349,0.054c0.105-0.023,0.184-0.184,0.253-0.308
			c0.146-0.256,0.248-0.426,0.375-0.736c0.079-0.19,0.046-0.381,0.24-0.374c0.199,0.007,0.166,0.517,0.174,0.709
			c0.012,0.233-0.027,0.547,0.015,0.709c0.027,0.112,0.178,0.278,0.334,0.28c0.107,0.002,0.18-0.086,0.28-0.147
			c0.105-0.061,0.202-0.098,0.268-0.146c0.159-0.118,0.349-0.315,0.509-0.481c0.133-0.137,0.34-0.456,0.563-0.428
			c0.38,0.046,0.003,0.605-0.08,0.788c-0.199,0.439-0.391,0.766-0.615,1.179c-0.094,0.17-0.307,0.398-0.309,0.575
			c0,0.124,0.106,0.206,0.161,0.334c0.025,0.062,0.04,0.128,0.066,0.188c0.132,0.304,0.229,0.729,0.334,1.084
			c0.089,0.299,0.16,0.614,0.269,0.91c0.105,0.288,0.258,0.559,0.375,0.842c0.029,0.074,0.036,0.165,0.066,0.242
			c0.245,0.625,0.481,1.338,0.775,1.939c0.12,0.244,0.283,0.549,0.281,0.909c-0.002,0.398-0.209,0.59-0.389,0.884
			c-0.093,0.154-0.231,0.393-0.373,0.44c-0.105,0.037-0.228-0.001-0.334,0.014c-0.15,0.022-0.256,0.119-0.39,0.135
			c-0.363,0.041-0.689-0.242-0.79-0.509c-0.032-0.091-0.018-0.215-0.038-0.321c-0.088-0.435-0.298-0.644-0.604-0.924
			c-0.193-0.177-0.343-0.313-0.588-0.44c-0.342-0.179-0.722-0.287-1.084-0.482c-0.134-0.071-0.301-0.143-0.415-0.119
			c-0.193,0.037-0.386,0.351-0.534,0.549c-0.944,1.243-1.779,2.522-2.704,3.746c-0.61,0.807-1.263,1.628-1.752,2.555
			c-0.124,0.232-0.196,0.505-0.294,0.776c-0.097,0.266-0.143,0.56-0.242,0.842c-0.355,1.018-0.466,2.257-0.788,3.319
			c-0.035,0.111-0.047,0.238-0.081,0.36c-0.147,0.542-0.297,1.165-0.468,1.74c-0.128,0.428-0.167,1.008-0.188,1.579
			c-0.02,0.528-0.045,1.281,0.148,1.618c0.102,0.178,0.464,0.242,0.602,0.428c0.095,0.128,0.159,0.381,0.255,0.55
			c0.065,0.115,0.255,0.366,0.241,0.547c-0.013,0.137-0.127,0.232-0.229,0.28c-0.112,0.057-0.279,0.022-0.387,0.082
			C38.493,63.43,38.55,63.578,38.426,63.658z"/>
	</g>
</g>
</svg>
