<?xml version="1.0" encoding="utf-8"?>
<!-- Generator: Adobe Illustrator 16.0.3, SVG Export Plug-In . SVG Version: 6.00 Build 0)  -->
<!DOCTYPE svg PUBLIC "-//W3C//DTD SVG 1.1//EN" "http://www.w3.org/Graphics/SVG/1.1/DTD/svg11.dtd">
<svg version="1.1" xmlns="http://www.w3.org/2000/svg" xmlns:xlink="http://www.w3.org/1999/xlink" x="0px" y="0px" width="198px"
	 height="100px" viewBox="0 0 198 100" enable-background="new 0 0 198 100" xml:space="preserve">
<g id="guides">
</g>
<g id="Layer_2">
	<g>
		<g>
			<g>
				<path fill="#231F20" d="M42.283,73.977c0,0-1.223,0.891,11.314-8.704c12.539-9.595,11.189-16.236,11.189-16.236V26.011H39.705
					l5.16-0.01H19.779v23.024c0,0-1.348,6.643,11.189,16.237S42.283,73.977,42.283,73.977L42.283,73.977z"/>
			</g>
			<g>
				<path fill="#FFFFFF" d="M42.283,70.442c0,0-1.088,0.775,10.078-7.587c11.162-8.362,9.963-14.149,9.963-14.149v-20.07H39.986
					l4.596-0.009H22.244v20.068c0,0-1.203,5.789,9.963,14.15C43.371,71.21,42.283,70.442,42.283,70.442L42.283,70.442z"/>
			</g>
			<g>
				<rect x="35.965" y="57.286" fill="#BBBDBF" width="13.08" height="1.098"/>
				<g>
					<path fill="#231F20" d="M36.207,38.403c0-1.938,0.861-2.905,2.826-2.905c1.777,0,2.664,1.103,2.664,2.879v1.884
						c0,0.728-0.162,1.776-0.43,2.558l-3.742,10.764h4.197v1.508h-5.758v-1.804l3.633-10.656c0.324-0.916,0.43-1.723,0.43-2.664
						v-1.535c0-1.075-0.348-1.588-1.074-1.588s-1.076,0.513-1.076,1.588v2.234h-1.67V38.403z"/>
					<path fill="#231F20" d="M43.5,38.377c0-2.447,1.561-2.879,2.773-2.879c1.211,0,2.771,0.432,2.771,2.879v13.995
						c0,2.448-1.561,2.879-2.771,2.879c-1.213,0-2.773-0.431-2.773-2.879V38.377z M47.377,38.188c0-0.483,0-1.346-1.104-1.346
						s-1.104,0.862-1.104,1.346v14.372c0,0.484,0,1.346,1.104,1.346s1.104-0.861,1.104-1.346V38.188z"/>
				</g>
			</g>
		</g>
		<g>
			<path fill="#231F20" d="M80.125,45.022c-1.584,0-2.25-0.742-2.223-2.429l0.102-7.029c-0.588,0-1.381,0-1.637,0.025
				c-0.102,0-0.127-0.281-0.076-0.307c1.252-0.869,2.326-1.942,3.398-3.144c0.027-0.026,0.205,0.051,0.205,0.128
				c-0.051,0.511-0.178,1.865-0.205,2.377h1.381c1.074,0,1.893-0.026,2.225-0.129c0.203-0.051,0.076,1.151-0.205,1.126
				s-0.742-0.052-1.688-0.077h-1.713l-0.102,6.441c-0.025,1.56,0.717,2.045,1.84,2.045c0.537,0,1.229-0.102,1.842-0.256
				c0.025,0,0.127,0.205,0.051,0.229C82.271,44.689,80.84,45.022,80.125,45.022z"/>
			<path fill="#231F20" d="M94.719,44.664c-0.998,0-1.764,0.025-2.48,0.127c-0.102,0.026-0.051-0.306,0-0.306
				c1.33-0.128,1.611-0.307,1.611-2.249v-3.835c0-2.25-0.537-3.195-1.867-3.195c-0.816,0-1.43,0.205-3.348,1.381v5.649
				c0,1.814,0.23,2.121,1.609,2.249c0.051,0,0.104,0.332,0,0.306c-0.51-0.075-1.635-0.127-2.352-0.127
				c-0.971,0-2.172,0.025-2.861,0.127c-0.104,0.026-0.051-0.306-0.027-0.306c1.766-0.18,1.943-0.256,1.943-2.249V29.915
				c0-1.687-0.307-1.993-1.635-1.56c-0.051,0.025-0.154-0.179-0.051-0.229c1.021-0.563,2.529-1.355,3.348-2.122
				c0.025-0.026,0.23,0.051,0.205,0.128c-0.129,0.485-0.18,2.734-0.154,3.681l-0.025,6.364c1.994-1.56,3.297-1.993,4.473-1.993
				c1.789,0,2.43,1.15,2.43,3.092v4.96c0,1.84,0.102,2.121,1.916,2.249c0.051,0,0.076,0.332,0,0.306
				C96.943,44.716,95.434,44.664,94.719,44.664z"/>
			<path fill="#231F20" d="M101.516,44.664c-0.971,0-2.096,0.025-2.813,0.127c-0.076,0.026-0.051-0.28,0-0.28
				c1.738-0.205,1.916-0.281,1.916-2.274v-4.32c0-1.688-0.307-1.993-1.635-1.533c-0.051,0-0.127-0.18-0.051-0.231
				c1.021-0.587,2.529-1.431,3.35-2.223c0.023-0.026,0.229,0.051,0.229,0.128c-0.127,0.511-0.205,2.837-0.18,3.758v4.422
				c0,1.993,0.18,2.069,1.918,2.274c0.051,0,0.076,0.307,0,0.28C103.535,44.689,102.486,44.664,101.516,44.664z M101.797,30.632
				c-0.563,0-1.023-0.512-1.023-1.074c0-0.588,0.461-1.125,1.074-1.125c0.588,0,1.047,0.511,1.047,1.074
				C102.895,30.094,102.436,30.632,101.797,30.632z"/>
			<path fill="#231F20" d="M114.934,38.146l-7.158,0.153c-0.025,0.281-0.051,0.588-0.051,0.895c0,3.45,1.943,4.83,3.809,4.83
				c1.176,0,2.352-0.434,3.246-1.099c0.025-0.025,0.18,0.18,0.129,0.23c-0.896,1.048-2.607,1.866-4.219,1.866
				c-2.836,0-4.779-2.097-4.779-5.062c0-3.067,2.709-5.776,5.342-5.776c2.506,0,3.758,1.865,3.758,3.349
				C115.01,37.736,114.984,37.941,114.934,38.146z M110.588,34.797c-1.328,0-2.428,1.15-2.76,3.093l5.393-0.128
				C113.195,36.433,112.25,34.797,110.588,34.797z"/>
			<path fill="#231F20" d="M118.766,44.664c-0.973,0-2.02,0.025-2.734,0.127c-0.078,0.026-0.053-0.28,0-0.28
				c1.738-0.205,1.916-0.281,1.916-2.274V29.915c0-1.687-0.307-1.993-1.635-1.56c-0.053,0.025-0.129-0.179-0.053-0.229
				c1.023-0.563,2.531-1.355,3.35-2.122c0.025-0.026,0.229,0.051,0.229,0.128c-0.127,0.485-0.203,2.734-0.178,3.681v12.423
				c0,1.993,0.178,2.069,1.916,2.274c0.053,0,0.078,0.307,0,0.28C120.861,44.689,119.762,44.664,118.766,44.664z"/>
			<path fill="#231F20" d="M84.803,51.121c-0.639,0-1.586-1.074-2.734-1.074c-1.764,0-2.275,1.228-2.275,5.624v1.584h1.379
				c1.074,0,1.791-0.025,2.098-0.102c0.152-0.051,0.152,0.945,0,0.921c-0.281-0.026-0.818-0.052-1.764-0.052h-1.713v6.824
				c0,1.79,0.307,2.173,2.58,2.275c0.051,0,0.104,0.307,0,0.281c-0.535-0.077-2.605-0.127-3.32-0.127
				c-0.973,0-2.148,0.024-2.863,0.127c-0.104,0.025-0.053-0.281,0-0.281c1.738-0.205,1.916-0.282,1.916-2.275v-6.824
				c-0.588,0-1.814-0.025-2.07-0.025c-0.102,0.025-0.127-0.436-0.076-0.436c0.971-0.05,1.66-0.127,2.146-0.383v-1.021
				c0-4.32,2.607-7.438,5.648-7.438c0.996,0,1.994,0.639,1.994,0.971C85.748,50.175,85.16,51.121,84.803,51.121z"/>
			<path fill="#231F20" d="M94.002,60.758l-7.156,0.152c-0.025,0.282-0.051,0.589-0.051,0.896c0,3.45,1.941,4.831,3.809,4.831
				c1.176,0,2.352-0.435,3.246-1.1c0.025-0.025,0.178,0.179,0.129,0.23c-0.896,1.048-2.609,1.865-4.219,1.865
				c-2.838,0-4.779-2.096-4.779-5.061c0-3.067,2.709-5.777,5.342-5.777c2.506,0,3.758,1.866,3.758,3.349
				C94.08,60.349,94.053,60.554,94.002,60.758z M89.658,57.409c-1.33,0-2.43,1.15-2.762,3.093l5.393-0.128
				C92.264,59.045,91.318,57.409,89.658,57.409z"/>
			<path fill="#231F20" d="M98.346,67.276c-0.971,0-2.02,0.024-2.734,0.127c-0.076,0.025-0.051-0.281,0-0.281
				c1.738-0.205,1.916-0.282,1.916-2.275V52.527c0-1.688-0.307-1.994-1.635-1.56c-0.051,0.025-0.129-0.179-0.051-0.23
				c1.021-0.563,2.529-1.354,3.348-2.121c0.025-0.025,0.23,0.052,0.23,0.128c-0.129,0.485-0.205,2.734-0.18,3.681v12.422
				c0,1.993,0.18,2.07,1.918,2.275c0.051,0,0.076,0.307,0,0.281C100.441,67.301,99.344,67.276,98.346,67.276z"/>
			<path fill="#231F20" d="M106.063,67.276c-0.971,0-2.018,0.024-2.732,0.127c-0.078,0.025-0.053-0.281,0-0.281
				c1.736-0.205,1.916-0.282,1.916-2.275V52.527c0-1.688-0.307-1.994-1.637-1.56c-0.051,0.025-0.127-0.179-0.051-0.23
				c1.023-0.563,2.531-1.354,3.348-2.121c0.025-0.025,0.23,0.052,0.23,0.128c-0.127,0.485-0.205,2.734-0.178,3.681v12.422
				c0,1.993,0.178,2.07,1.916,2.275c0.051,0,0.076,0.307,0,0.281C108.16,67.301,107.061,67.276,106.063,67.276z"/>
			<path fill="#231F20" d="M115.291,67.633c-3.197,0-5.242-2.505-5.242-5.239c0-2.889,2.098-5.599,5.523-5.599
				c3.193,0,5.238,2.506,5.238,5.239C120.811,64.924,118.715,67.633,115.291,67.633z M115.01,57.357
				c-2.072,0-3.119,1.892-3.119,4.014c0,3.553,1.584,5.7,3.963,5.7c2.068,0,3.092-1.892,3.092-4.013
				C118.945,59.505,117.359,57.357,115.01,57.357z"/>
			<path fill="#231F20" d="M136.631,59.505l-3.221,8.104c-0.051,0.127-0.307,0.127-0.357,0.024l-2.709-7.617l-2.99,7.593
				c-0.053,0.127-0.307,0.127-0.359,0.024l-3.219-8.128c-0.691-1.738-1.203-2.147-2.506-2.25c-0.051,0-0.076-0.306,0.025-0.28
				c0.486,0.076,1.84,0.102,2.555,0.102c0.998,0,1.867-0.025,2.582-0.102c0.078-0.025,0.027,0.28,0,0.28
				c-1.354,0.154-1.609,0.461-0.895,2.25l2.225,5.623l2.301-5.904c-0.563-1.508-1.074-1.866-2.301-1.969
				c-0.051,0-0.078-0.306,0.025-0.28c0.512,0.076,1.865,0.102,2.582,0.102c0.971,0,1.84-0.025,2.555-0.102
				c0.078-0.025,0.053,0.28,0,0.28c-1.354,0.154-1.635,0.461-0.996,2.25l1.943,5.521l2.121-5.521
				c0.689-1.738,0.484-2.096-0.895-2.25c-0.025,0-0.076-0.306,0-0.28c0.717,0.076,1.074,0.102,2.045,0.102
				c0.715,0,1.457-0.025,1.967-0.102c0.078-0.025,0.053,0.28,0.027,0.28C137.73,57.357,137.244,57.895,136.631,59.505z"/>
			<path fill="#231F20" d="M142.457,67.633c-1.1,0-2.174-0.307-2.939-0.741c-0.102-0.076-0.129-1.737-0.129-2.837
				c0-0.077,0.256-0.051,0.281-0.025c0.613,2.274,1.893,3.145,3.221,3.145c1.279,0,1.814-0.742,1.814-1.867
				c0-2.479-4.932-2.684-4.932-5.597c0-1.508,1.252-2.915,3.475-2.915c0.922,0,1.559,0.129,2.174,0.435
				c0.127,0.077,0.256,1.509,0.256,2.557c0,0.051-0.281,0.051-0.281,0.026c-0.459-1.534-1.586-2.583-2.684-2.583
				c-0.945,0-1.457,0.665-1.457,1.688c0,2.377,4.855,2.352,4.855,5.444C146.111,66.099,144.654,67.633,142.457,67.633z"/>
			<path fill="#231F20" d="M156.998,67.276c-0.996,0-1.764,0.024-2.479,0.127c-0.102,0.025-0.051-0.307,0-0.307
				c1.328-0.128,1.611-0.308,1.611-2.25v-3.834c0-2.249-0.539-3.195-1.867-3.195c-0.818,0-1.432,0.205-3.348,1.381v5.648
				c0,1.814,0.229,2.122,1.609,2.25c0.053,0,0.102,0.332,0,0.307c-0.51-0.077-1.637-0.127-2.352-0.127
				c-0.971,0-2.172,0.024-2.861,0.127c-0.104,0.025-0.053-0.307-0.027-0.307c1.764-0.18,1.943-0.257,1.943-2.25V52.527
				c0-1.688-0.307-1.994-1.637-1.56c-0.051,0.025-0.152-0.179-0.051-0.23c1.023-0.563,2.531-1.354,3.348-2.121
				c0.027-0.025,0.23,0.052,0.205,0.128c-0.127,0.485-0.178,2.734-0.152,3.681l-0.025,6.364c1.994-1.56,3.297-1.994,4.473-1.994
				c1.789,0,2.428,1.15,2.428,3.094v4.958c0,1.841,0.104,2.122,1.916,2.25c0.053,0,0.078,0.332,0,0.307
				C159.223,67.326,157.715,67.276,156.998,67.276z"/>
			<path fill="#231F20" d="M163.285,67.276c-0.973,0-2.096,0.024-2.813,0.127c-0.076,0.025-0.051-0.281,0-0.281
				c1.738-0.205,1.916-0.282,1.916-2.275v-4.319c0-1.687-0.307-1.993-1.635-1.534c-0.051,0-0.127-0.179-0.051-0.229
				c1.021-0.588,2.531-1.432,3.35-2.224c0.025-0.025,0.229,0.051,0.229,0.128c-0.127,0.511-0.203,2.837-0.18,3.757v4.422
				c0,1.993,0.18,2.07,1.918,2.275c0.053,0,0.076,0.307,0,0.281C165.303,67.301,164.256,67.276,163.285,67.276z M163.566,53.242
				c-0.563,0-1.023-0.511-1.023-1.073c0-0.588,0.461-1.125,1.074-1.125c0.588,0,1.049,0.512,1.049,1.074
				C164.666,52.706,164.205,53.242,163.566,53.242z"/>
			<path fill="#231F20" d="M172,67.633c-0.563,0-1.125-0.051-1.713-0.229v3.937c0,1.941,0.256,2.097,2.607,2.172
				c0.051,0,0.102,0.308,0,0.308c-0.715-0.052-2.633-0.052-3.35-0.025c-0.996,0.025-1.891,0.076-2.605,0.204
				c-0.078,0.026-0.053-0.281,0-0.281c1.609-0.23,1.635-0.358,1.635-2.326v-4.703c-0.256-0.128-0.537-0.308-0.844-0.485l0.844-1.304
				v-4.345c0-1.688-0.307-2.02-1.635-1.561c-0.025,0-0.154-0.179-0.053-0.229c1.023-0.588,2.275-1.509,3.094-2.275
				c0.025-0.025,0.205,0.077,0.205,0.154c0.076,0.434,0.051,1.405,0.076,1.993c1.277-1.1,2.607-1.61,3.654-1.61
				c2.48,0,4.346,2.173,4.346,4.729C178.262,64.541,175.553,67.633,172,67.633z M172.844,58.227c-0.869,0-1.662,0.281-2.557,0.818
				v6.748c1.072,0.614,2.248,0.895,3.195,0.895c1.738,0,2.914-1.636,2.914-4.371C176.396,59.607,174.633,58.227,172.844,58.227z"/>
		</g>
	</g>
</g>
</svg>
