<?xml version="1.0" encoding="utf-8"?>
<!-- Generator: Adobe Illustrator 16.0.3, SVG Export Plug-In . SVG Version: 6.00 Build 0)  -->
<!DOCTYPE svg PUBLIC "-//W3C//DTD SVG 1.1//EN" "http://www.w3.org/Graphics/SVG/1.1/DTD/svg11.dtd">
<svg version="1.1" xmlns="http://www.w3.org/2000/svg" xmlns:xlink="http://www.w3.org/1999/xlink" x="0px" y="0px" width="260px"
	 height="100px" viewBox="0 0 260 100" enable-background="new 0 0 260 100" xml:space="preserve">
<g id="guides">
</g>
<g id="Layer_2">
	<path d="M63.627,50.726h6.531v1.413h-2.313c0.869,1.648,1.73,3.308,2.578,4.979c0.846,1.672,1.646,3.332,2.4,4.979
		c0.707-1.554,1.488-3.178,2.348-4.874c0.859-1.694,1.725-3.389,2.596-5.084h-2.029v-1.413h6.178v1.413H79.32
		c-1.082,2.142-2.164,4.255-3.246,6.338c-1.084,2.084-2.168,4.185-3.25,6.304c-1.107-2.119-2.195-4.22-3.266-6.304
		c-1.072-2.083-2.148-4.196-3.23-6.338h-2.701V50.726z M94.912,55.388c-1.836,0.729-3.662,1.453-5.475,2.172
		c-1.813,0.717-3.637,1.442-5.473,2.17c0.4,0.906,1.035,1.645,1.906,2.215c0.871,0.573,1.859,0.858,2.967,0.858
		c0.73,0,1.412-0.132,2.049-0.398c0.635-0.265,1.188-0.638,1.658-1.12c0.164,0.188,0.318,0.371,0.459,0.548
		c0.143,0.177,0.295,0.358,0.461,0.546c-0.613,0.566-1.307,1.014-2.086,1.343c-0.775,0.329-1.623,0.494-2.541,0.494
		c-0.965,0-1.865-0.183-2.701-0.548c-0.836-0.363-1.566-0.853-2.189-1.465c-0.625-0.611-1.117-1.336-1.482-2.172
		c-0.367-0.834-0.549-1.736-0.549-2.701c0-0.94,0.182-1.836,0.549-2.684c0.365-0.847,0.857-1.577,1.482-2.188
		c0.623-0.612,1.354-1.101,2.189-1.466s1.736-0.548,2.701-0.548c0.707,0,1.377,0.123,2.014,0.371
		c0.635,0.248,1.219,0.589,1.746,1.023c0.531,0.437,0.996,0.954,1.395,1.555C94.393,53.993,94.699,54.658,94.912,55.388z
		 M88.838,51.855c-0.871,0-1.666,0.182-2.383,0.545c-0.719,0.362-1.324,0.843-1.82,1.44c-0.492,0.597-0.842,1.288-1.041,2.072
		c-0.201,0.784-0.219,1.585-0.053,2.404c1.576-0.635,3.154-1.265,4.732-1.888c1.576-0.625,3.164-1.254,4.768-1.89
		c-0.402-0.79-0.979-1.435-1.732-1.936C90.557,52.106,89.732,51.855,88.838,51.855z M105.219,62.555h2.754v-7.794
		c-0.047-0.756-0.328-1.416-0.84-1.983c-0.514-0.566-1.27-0.874-2.271-0.922c-0.715,0-1.406,0.125-2.072,0.373
		c-0.668,0.247-1.258,0.585-1.77,1.009c-0.512,0.426-0.918,0.934-1.215,1.523c-0.299,0.592-0.447,1.241-0.447,1.949v5.845h2.613
		v1.413h-6.781v-1.413h2.756V52.139h-2.543v-1.413h3.709l0.035,1.236c0.023,0.401,0.045,0.766,0.068,1.094
		c0.023,0.331,0.035,0.696,0.035,1.096c0.473-1.107,1.234-2,2.287-2.684c1.051-0.683,2.238-1.024,3.561-1.024
		c1.299,0,2.326,0.366,3.082,1.095c0.756,0.73,1.158,1.684,1.205,2.86v8.156h2.578v1.413h-6.744V62.555z M114.41,42.11h1.412v8.615
		h4.061v1.413h-4.061v10.416h2.896v1.413h-4.309V52.139h-3.072v-1.413h3.072V42.11z M120.922,50.726h4.025v9.209
		c0.047,0.756,0.328,1.417,0.84,1.982c0.512,0.566,1.27,0.874,2.27,0.921c0.738,0,1.441-0.123,2.109-0.372
		c0.668-0.247,1.25-0.584,1.752-1.009c0.5-0.427,0.898-0.934,1.197-1.523c0.299-0.591,0.447-1.241,0.447-1.95v-5.845h-2.613v-1.413
		h4.025v11.971h2.506v1.271h-3.744l-0.068-1.836v-1.589c-0.475,1.13-1.238,2.03-2.293,2.701c-1.055,0.67-2.234,1.006-3.539,1.006
		c-1.303,0-2.334-0.365-3.094-1.094c-0.758-0.73-1.16-1.684-1.207-2.86v-8.157h-2.613V50.726z M138.488,62.555h2.754V52.139h-2.543
		v-1.413h3.709l0.035,1.236c0.023,0.401,0.047,0.766,0.07,1.094c0.023,0.331,0.035,0.696,0.035,1.096
		c0.545-1.154,1.344-2.054,2.398-2.701c1.053-0.647,2.125-0.983,3.215-1.007l-0.105,1.412c-0.758,0.024-1.463,0.16-2.115,0.409
		c-0.65,0.247-1.219,0.584-1.705,1.009c-0.486,0.426-0.871,0.933-1.154,1.522c-0.287,0.592-0.428,1.229-0.428,1.914v5.845h2.613
		v1.413h-6.779V62.555z M160.959,55.388c-1.834,0.729-3.66,1.453-5.473,2.172c-1.813,0.717-3.637,1.442-5.473,2.17
		c0.398,0.906,1.035,1.645,1.906,2.215c0.871,0.573,1.859,0.858,2.967,0.858c0.729,0,1.412-0.132,2.047-0.398
		c0.637-0.265,1.189-0.638,1.66-1.12c0.164,0.188,0.318,0.371,0.459,0.548c0.143,0.177,0.295,0.358,0.459,0.546
		c-0.611,0.566-1.307,1.014-2.084,1.343c-0.775,0.329-1.623,0.494-2.541,0.494c-0.965,0-1.867-0.183-2.701-0.548
		c-0.836-0.363-1.566-0.853-2.189-1.465c-0.625-0.611-1.119-1.336-1.482-2.172c-0.367-0.834-0.549-1.736-0.549-2.701
		c0-0.94,0.182-1.836,0.549-2.684c0.363-0.847,0.857-1.577,1.482-2.188c0.623-0.612,1.354-1.101,2.189-1.466
		c0.834-0.365,1.736-0.548,2.701-0.548c0.705,0,1.377,0.123,2.012,0.371c0.637,0.248,1.219,0.589,1.748,1.023
		c0.531,0.437,0.994,0.954,1.395,1.555S160.748,54.658,160.959,55.388z M154.887,51.855c-0.871,0-1.666,0.182-2.383,0.545
		c-0.721,0.362-1.324,0.843-1.82,1.44c-0.494,0.597-0.842,1.288-1.041,2.072c-0.201,0.784-0.219,1.585-0.053,2.404
		c1.576-0.635,3.154-1.265,4.73-1.888c1.578-0.625,3.166-1.254,4.768-1.89c-0.4-0.79-0.977-1.435-1.73-1.936
		C156.605,52.106,155.779,51.855,154.887,51.855z M161.238,61.178h2.684V40.274h-2.33v-2.79h5.262v13.701
		c-0.047,0.188-0.105,0.37-0.176,0.546c-0.072,0.178-0.131,0.36-0.178,0.549c0.023-0.071,0.158-0.212,0.406-0.425
		c0.246-0.212,0.57-0.423,0.971-0.635s0.865-0.4,1.395-0.565s1.1-0.247,1.713-0.247c0.988,0,1.918,0.183,2.789,0.548
		s1.625,0.864,2.262,1.501c0.633,0.634,1.135,1.372,1.5,2.206c0.363,0.836,0.547,1.726,0.547,2.666c0,0.941-0.184,1.837-0.547,2.684
		c-0.365,0.848-0.867,1.59-1.5,2.225c-0.637,0.636-1.391,1.137-2.262,1.5c-0.871,0.365-1.801,0.548-2.789,0.548
		c-0.684,0-1.295-0.076-1.836-0.229c-0.543-0.152-1.006-0.33-1.395-0.529s-0.689-0.393-0.9-0.582
		c-0.213-0.188-0.33-0.318-0.354-0.39v0.707v0.706h-5.262V61.178z M175.15,57.329c0-1.177-0.385-2.147-1.152-2.913
		c-0.77-0.765-1.766-1.147-2.996-1.147s-2.229,0.383-2.996,1.147c-0.77,0.766-1.152,1.736-1.152,2.913
		c0,1.153,0.383,2.125,1.152,2.914c0.768,0.787,1.766,1.183,2.996,1.183s2.227-0.396,2.996-1.183
		C174.766,59.454,175.15,58.482,175.15,57.329z M179.053,57.329c0-0.94,0.182-1.836,0.547-2.684
		c0.365-0.847,0.865-1.583,1.502-2.206c0.635-0.624,1.381-1.118,2.24-1.483c0.861-0.365,1.785-0.548,2.773-0.548
		s1.918,0.183,2.789,0.548s1.625,0.859,2.26,1.483c0.637,0.623,1.137,1.359,1.5,2.206c0.365,0.848,0.549,1.743,0.549,2.684
		c0,0.965-0.184,1.867-0.549,2.701c-0.363,0.836-0.863,1.572-1.5,2.207c-0.635,0.636-1.389,1.137-2.26,1.5
		c-0.871,0.365-1.801,0.548-2.789,0.548s-1.912-0.183-2.773-0.548c-0.859-0.363-1.605-0.864-2.24-1.5
		c-0.637-0.635-1.137-1.371-1.502-2.207C179.234,59.196,179.053,58.294,179.053,57.329z M181.982,57.364
		c0,0.566,0.107,1.095,0.318,1.59c0.213,0.494,0.5,0.924,0.865,1.289s0.795,0.652,1.289,0.864s1.025,0.318,1.588,0.318
		c0.566,0,1.096-0.106,1.59-0.318c0.496-0.212,0.93-0.499,1.307-0.864s0.672-0.795,0.883-1.289c0.211-0.495,0.318-1.023,0.318-1.59
		c0-0.564-0.107-1.094-0.318-1.589c-0.211-0.493-0.506-0.93-0.883-1.307c-0.377-0.376-0.811-0.67-1.307-0.883
		c-0.494-0.212-1.023-0.317-1.59-0.317c-0.563,0-1.094,0.105-1.588,0.317c-0.494,0.213-0.924,0.507-1.289,0.883
		c-0.365,0.377-0.652,0.813-0.865,1.307C182.09,56.271,181.982,56.8,181.982,57.364z M194.199,57.364
		c0-0.917,0.184-1.801,0.549-2.648c0.365-0.847,0.865-1.589,1.502-2.224c0.635-0.637,1.389-1.142,2.258-1.519
		c0.871-0.377,1.803-0.565,2.791-0.565c0.635,0,1.223,0.094,1.766,0.282c0.539,0.189,1.012,0.396,1.412,0.619
		c0.398,0.223,0.717,0.44,0.953,0.652s0.354,0.354,0.354,0.425c0-0.26,0.023-0.531,0.07-0.813c0.047-0.281,0.07-0.564,0.07-0.848
		h2.438v10.452h2.684v2.79h-5.262v-0.706v-0.707c-0.023,0.071-0.141,0.201-0.354,0.39c-0.211,0.189-0.512,0.383-0.9,0.582
		s-0.854,0.377-1.395,0.529c-0.543,0.153-1.154,0.229-1.836,0.229c-0.988,0-1.92-0.183-2.791-0.548
		c-0.869-0.363-1.623-0.864-2.258-1.5c-0.637-0.635-1.137-1.371-1.502-2.207C194.383,59.196,194.199,58.306,194.199,57.364z
		 M197.131,57.329c0,1.153,0.385,2.125,1.152,2.914c0.768,0.787,1.77,1.183,2.998,1.183s2.229-0.396,2.996-1.183
		c0.768-0.789,1.152-1.761,1.152-2.914c0-1.177-0.385-2.147-1.152-2.913c-0.768-0.765-1.768-1.147-2.996-1.147
		s-2.23,0.383-2.998,1.147C197.516,55.182,197.131,56.152,197.131,57.329z M212.016,61.178h2.684v-7.662h-2.33v-2.79h4.908v0.318
		c0.047,0.564,0.088,1.077,0.123,1.536s0.076,0.971,0.123,1.536c0.283-0.588,0.641-1.113,1.078-1.571
		c0.436-0.46,0.893-0.849,1.377-1.165c0.482-0.317,0.951-0.56,1.412-0.725c0.459-0.165,0.863-0.247,1.217-0.247l-0.211,2.86
		c-1.438,0-2.59,0.403-3.461,1.211s-1.305,1.828-1.305,3.062v3.637h2.223v2.79h-7.838V61.178z M234.5,63.262v-0.707
		c-0.023,0.071-0.141,0.201-0.352,0.39c-0.211,0.189-0.512,0.383-0.902,0.582c-0.387,0.199-0.852,0.377-1.395,0.529
		c-0.541,0.153-1.152,0.229-1.834,0.229c-0.99,0-1.92-0.183-2.791-0.548c-0.871-0.363-1.623-0.864-2.26-1.5
		c-0.635-0.635-1.137-1.377-1.5-2.225c-0.365-0.847-0.549-1.742-0.549-2.684c0-0.94,0.184-1.83,0.549-2.666
		c0.363-0.834,0.865-1.572,1.5-2.206c0.637-0.637,1.389-1.136,2.26-1.501s1.801-0.548,2.791-0.548c0.586,0,1.146,0.082,1.676,0.247
		s0.994,0.354,1.395,0.565s0.725,0.423,0.973,0.635c0.246,0.213,0.393,0.354,0.439,0.425c-0.047-0.188-0.105-0.371-0.176-0.549
		c-0.07-0.176-0.129-0.357-0.176-0.546V40.274h-2.332v-2.79h5.262v23.693h2.684v2.79H234.5V63.262z M225.85,57.329
		c0,1.153,0.385,2.125,1.152,2.914c0.768,0.787,1.768,1.183,2.998,1.183c1.229,0,2.227-0.396,2.994-1.183
		c0.77-0.789,1.154-1.761,1.154-2.914c0-1.177-0.385-2.147-1.154-2.913c-0.768-0.765-1.766-1.147-2.994-1.147
		c-1.23,0-2.23,0.383-2.998,1.147C226.234,55.182,225.85,56.152,225.85,57.329z M49.982,32H27.061c-3.539,0-6.822,2.702-6.822,6.29
		v23.268c0,3.591,3.283,6.442,6.822,6.442h22.945c3.541,0,6.232-2.852,6.232-6.442V38.29C56.238,34.702,53.523,32,49.982,32z
		 M52.439,61.558c0,1.377-1.074,2.479-2.434,2.479h-2.602v-2.353h-18v2.353h-2.344c-1.357,0-2.693-1.102-2.693-2.479V38.29
		c0-1.376,1.336-2.326,2.693-2.326h23.023l-0.123-0.009c1.357,0,2.479,0.959,2.479,2.335V61.558z"/>
</g>
</svg>
